G04*
G04 #@! TF.GenerationSoftware,Altium Limited,Altium Designer,22.5.1 (42)*
G04*
G04 Layer_Color=8421504*
%FSLAX25Y25*%
%MOIN*%
G70*
G04*
G04 #@! TF.SameCoordinates,4C861729-87C5-483C-8B33-AEF81C08CF8D*
G04*
G04*
G04 #@! TF.FilePolarity,Positive*
G04*
G01*
G75*
%ADD13O,0.02362X0.06102*%
%ADD14O,0.04724X0.07480*%
%ADD15R,0.03740X0.03543*%
%ADD16R,0.03543X0.03740*%
%ADD17R,0.03740X0.03543*%
G04:AMPARAMS|DCode=18|XSize=23.62mil|YSize=39.37mil|CornerRadius=2.01mil|HoleSize=0mil|Usage=FLASHONLY|Rotation=180.000|XOffset=0mil|YOffset=0mil|HoleType=Round|Shape=RoundedRectangle|*
%AMROUNDEDRECTD18*
21,1,0.02362,0.03535,0,0,180.0*
21,1,0.01961,0.03937,0,0,180.0*
1,1,0.00402,-0.00980,0.01768*
1,1,0.00402,0.00980,0.01768*
1,1,0.00402,0.00980,-0.01768*
1,1,0.00402,-0.00980,-0.01768*
%
%ADD18ROUNDEDRECTD18*%
%ADD19R,0.03150X0.03150*%
%ADD20O,0.05709X0.02165*%
%ADD21O,0.02165X0.05709*%
%ADD22R,0.03543X0.03740*%
D13*
X230039Y86319D02*
D03*
X240039D02*
D03*
X230039Y111319D02*
D03*
X240039D02*
D03*
X530000Y86500D02*
D03*
X540000D02*
D03*
X530000Y111500D02*
D03*
X540000D02*
D03*
X630000Y86500D02*
D03*
X640000D02*
D03*
X630000Y111500D02*
D03*
X640000D02*
D03*
X220000Y178500D02*
D03*
X210000D02*
D03*
X220000Y153500D02*
D03*
X210000D02*
D03*
X470000Y86500D02*
D03*
X480000D02*
D03*
X470000Y111500D02*
D03*
X480000D02*
D03*
X390000Y86500D02*
D03*
X400000D02*
D03*
X390000Y111500D02*
D03*
X400000D02*
D03*
X370000Y86500D02*
D03*
X380000D02*
D03*
X370000Y111500D02*
D03*
X380000D02*
D03*
X350000Y86500D02*
D03*
X360000D02*
D03*
X350000Y111500D02*
D03*
X360000D02*
D03*
X330000Y86500D02*
D03*
X340000D02*
D03*
X330000Y111500D02*
D03*
X340000D02*
D03*
X310000Y86500D02*
D03*
X320000D02*
D03*
X310000Y111500D02*
D03*
X320000D02*
D03*
X290000Y86500D02*
D03*
X300000D02*
D03*
X290000Y111500D02*
D03*
X300000D02*
D03*
X270000Y86500D02*
D03*
X280000D02*
D03*
X270000Y111500D02*
D03*
X280000D02*
D03*
X250000Y86500D02*
D03*
X260000D02*
D03*
X250000Y111500D02*
D03*
X260000D02*
D03*
X209842Y86221D02*
D03*
X219843D02*
D03*
X209842Y111221D02*
D03*
X219843D02*
D03*
X590000Y86500D02*
D03*
X600000D02*
D03*
X590000Y111500D02*
D03*
X600000D02*
D03*
X570000Y86500D02*
D03*
X580000D02*
D03*
X570000Y111500D02*
D03*
X580000D02*
D03*
X550000Y86500D02*
D03*
X560000D02*
D03*
X550000Y111500D02*
D03*
X560000D02*
D03*
X510000Y86500D02*
D03*
X520000D02*
D03*
X510000Y111500D02*
D03*
X520000D02*
D03*
X490000Y86500D02*
D03*
X500000D02*
D03*
X490000Y111500D02*
D03*
X500000D02*
D03*
X450000Y86500D02*
D03*
X460000D02*
D03*
X450000Y111500D02*
D03*
X460000D02*
D03*
X430000Y86500D02*
D03*
X440000D02*
D03*
X430000Y111500D02*
D03*
X440000D02*
D03*
X410000Y86500D02*
D03*
X420000D02*
D03*
X410000Y111500D02*
D03*
X420000D02*
D03*
X650000Y86500D02*
D03*
X660000D02*
D03*
X650000Y111500D02*
D03*
X660000D02*
D03*
X400000Y178500D02*
D03*
X390000D02*
D03*
X400000Y153500D02*
D03*
X390000D02*
D03*
X380000Y178500D02*
D03*
X370000D02*
D03*
X380000Y153500D02*
D03*
X370000D02*
D03*
X360000Y178500D02*
D03*
X350000D02*
D03*
X360000Y153500D02*
D03*
X350000D02*
D03*
X340000Y178500D02*
D03*
X330000D02*
D03*
X340000Y153500D02*
D03*
X330000D02*
D03*
X320000Y178500D02*
D03*
X310000D02*
D03*
X320000Y153500D02*
D03*
X310000D02*
D03*
X300000Y178500D02*
D03*
X290000D02*
D03*
X300000Y153500D02*
D03*
X290000D02*
D03*
X280000Y178500D02*
D03*
X270000D02*
D03*
X280000Y153500D02*
D03*
X270000D02*
D03*
X260000Y178500D02*
D03*
X250000D02*
D03*
X260000Y153500D02*
D03*
X250000D02*
D03*
X240000Y178500D02*
D03*
X230000D02*
D03*
X240000Y153500D02*
D03*
X230000D02*
D03*
X600000Y178500D02*
D03*
X590000D02*
D03*
X600000Y153500D02*
D03*
X590000D02*
D03*
X580000Y178500D02*
D03*
X570000D02*
D03*
X580000Y153500D02*
D03*
X570000D02*
D03*
X560000Y178500D02*
D03*
X550000D02*
D03*
X560000Y153500D02*
D03*
X550000D02*
D03*
X540000Y178500D02*
D03*
X530000D02*
D03*
X540000Y153500D02*
D03*
X530000D02*
D03*
X520000Y178500D02*
D03*
X510000D02*
D03*
X520000Y153500D02*
D03*
X510000D02*
D03*
X500000Y178500D02*
D03*
X490000D02*
D03*
X500000Y153500D02*
D03*
X490000D02*
D03*
X480000Y178500D02*
D03*
X470000D02*
D03*
X480000Y153500D02*
D03*
X470000D02*
D03*
X460000Y178500D02*
D03*
X450000D02*
D03*
X460000Y153500D02*
D03*
X450000D02*
D03*
X440000Y178500D02*
D03*
X430000D02*
D03*
X440000Y153500D02*
D03*
X430000D02*
D03*
X420000Y178500D02*
D03*
X410000D02*
D03*
X420000Y153500D02*
D03*
X410000D02*
D03*
X660000Y178500D02*
D03*
X650000D02*
D03*
X660000Y153500D02*
D03*
X650000D02*
D03*
X640000Y178500D02*
D03*
X630000D02*
D03*
X640000Y153500D02*
D03*
X630000D02*
D03*
D14*
X220000Y117224D02*
D03*
X210000D02*
D03*
X220000Y80413D02*
D03*
X210000D02*
D03*
X640000Y117224D02*
D03*
X630000D02*
D03*
X640000Y80413D02*
D03*
X630000D02*
D03*
X530000Y147776D02*
D03*
X540000D02*
D03*
X530000Y184587D02*
D03*
X540000D02*
D03*
X400000Y117224D02*
D03*
X390000D02*
D03*
X400000Y80413D02*
D03*
X390000D02*
D03*
X380000Y117224D02*
D03*
X370000D02*
D03*
X380000Y80413D02*
D03*
X370000D02*
D03*
X360000Y117224D02*
D03*
X350000D02*
D03*
X360000Y80413D02*
D03*
X350000D02*
D03*
X340000Y117224D02*
D03*
X330000D02*
D03*
X340000Y80413D02*
D03*
X330000D02*
D03*
X320000Y117224D02*
D03*
X310000D02*
D03*
X320000Y80413D02*
D03*
X310000D02*
D03*
X300000Y117224D02*
D03*
X290000D02*
D03*
X300000Y80413D02*
D03*
X290000D02*
D03*
X280000Y117224D02*
D03*
X270000D02*
D03*
X280000Y80413D02*
D03*
X270000D02*
D03*
X260000Y117224D02*
D03*
X250000D02*
D03*
X260000Y80413D02*
D03*
X250000D02*
D03*
X240000Y117224D02*
D03*
X230000D02*
D03*
X240000Y80413D02*
D03*
X230000D02*
D03*
X600000Y117224D02*
D03*
X590000D02*
D03*
X600000Y80413D02*
D03*
X590000D02*
D03*
X580000Y117224D02*
D03*
X570000D02*
D03*
X580000Y80413D02*
D03*
X570000D02*
D03*
X560000Y117224D02*
D03*
X550000D02*
D03*
X560000Y80413D02*
D03*
X550000D02*
D03*
X540000Y117224D02*
D03*
X530000D02*
D03*
X540000Y80413D02*
D03*
X530000D02*
D03*
X520000Y117224D02*
D03*
X510000D02*
D03*
X520000Y80413D02*
D03*
X510000D02*
D03*
X500000Y117224D02*
D03*
X490000D02*
D03*
X500000Y80413D02*
D03*
X490000D02*
D03*
X480000Y117224D02*
D03*
X470000D02*
D03*
X480000Y80413D02*
D03*
X470000D02*
D03*
X460000Y117224D02*
D03*
X450000D02*
D03*
X460000Y80413D02*
D03*
X450000D02*
D03*
X440000Y117224D02*
D03*
X430000D02*
D03*
X440000Y80413D02*
D03*
X430000D02*
D03*
X420000Y117224D02*
D03*
X410000D02*
D03*
X420000Y80413D02*
D03*
X410000D02*
D03*
X660000Y117224D02*
D03*
X650000D02*
D03*
X660000Y80413D02*
D03*
X650000D02*
D03*
X390000Y147776D02*
D03*
X400000D02*
D03*
X390000Y184587D02*
D03*
X400000D02*
D03*
X370000Y147776D02*
D03*
X380000D02*
D03*
X370000Y184587D02*
D03*
X380000D02*
D03*
X350000Y147776D02*
D03*
X360000D02*
D03*
X350000Y184587D02*
D03*
X360000D02*
D03*
X330000Y147776D02*
D03*
X340000D02*
D03*
X330000Y184587D02*
D03*
X340000D02*
D03*
X310000Y147776D02*
D03*
X320000D02*
D03*
X310000Y184587D02*
D03*
X320000D02*
D03*
X290000Y147776D02*
D03*
X300000D02*
D03*
X290000Y184587D02*
D03*
X300000D02*
D03*
X270000Y147776D02*
D03*
X280000D02*
D03*
X270000Y184587D02*
D03*
X280000D02*
D03*
X250000Y147776D02*
D03*
X260000D02*
D03*
X250000Y184587D02*
D03*
X260000D02*
D03*
X230000Y147776D02*
D03*
X240000D02*
D03*
X230000Y184587D02*
D03*
X240000D02*
D03*
X210000Y147776D02*
D03*
X220000D02*
D03*
X210000Y184587D02*
D03*
X220000D02*
D03*
X590000Y147776D02*
D03*
X600000D02*
D03*
X590000Y184587D02*
D03*
X600000D02*
D03*
X570000Y147776D02*
D03*
X580000D02*
D03*
X570000Y184587D02*
D03*
X580000D02*
D03*
X550000Y147776D02*
D03*
X560000D02*
D03*
X550000Y184587D02*
D03*
X560000D02*
D03*
X510000Y147776D02*
D03*
X520000D02*
D03*
X510000Y184587D02*
D03*
X520000D02*
D03*
X490000Y147776D02*
D03*
X500000D02*
D03*
X490000Y184587D02*
D03*
X500000D02*
D03*
X470000Y147776D02*
D03*
X480000D02*
D03*
X470000Y184587D02*
D03*
X480000D02*
D03*
X450000Y147776D02*
D03*
X460000D02*
D03*
X450000Y184587D02*
D03*
X460000D02*
D03*
X430000Y147776D02*
D03*
X440000D02*
D03*
X430000Y184587D02*
D03*
X440000D02*
D03*
X410000Y147776D02*
D03*
X420000D02*
D03*
X410000Y184587D02*
D03*
X420000D02*
D03*
X650000Y147776D02*
D03*
X660000D02*
D03*
X650000Y184587D02*
D03*
X660000D02*
D03*
X630000Y147776D02*
D03*
X640000D02*
D03*
X630000Y184587D02*
D03*
X640000D02*
D03*
D15*
X74902Y137402D02*
D03*
X69193D02*
D03*
X69390Y124803D02*
D03*
X63681D02*
D03*
X74902Y143307D02*
D03*
X69193D02*
D03*
X74902Y149213D02*
D03*
X69193D02*
D03*
X173425Y128740D02*
D03*
X167717D02*
D03*
X160827Y132677D02*
D03*
X155118D02*
D03*
X173425Y89370D02*
D03*
X167717D02*
D03*
X160827Y93307D02*
D03*
X155118D02*
D03*
X173425Y97244D02*
D03*
X167717D02*
D03*
X160827Y101181D02*
D03*
X155118D02*
D03*
X173425Y105118D02*
D03*
X167717D02*
D03*
X160827Y109055D02*
D03*
X155118D02*
D03*
X173425Y112992D02*
D03*
X167717D02*
D03*
X160827Y116929D02*
D03*
X155118D02*
D03*
X173425Y120866D02*
D03*
X167717D02*
D03*
X160827Y124803D02*
D03*
X155118D02*
D03*
X160827Y172047D02*
D03*
X155118D02*
D03*
X173524Y168504D02*
D03*
X167815D02*
D03*
X160827Y164173D02*
D03*
X155118D02*
D03*
X173425Y160236D02*
D03*
X167717D02*
D03*
X160827Y156299D02*
D03*
X155118D02*
D03*
X173425Y152362D02*
D03*
X167717D02*
D03*
X160827Y148425D02*
D03*
X155118D02*
D03*
X173425Y144488D02*
D03*
X167717D02*
D03*
X160827Y140551D02*
D03*
X155118D02*
D03*
X173425Y136614D02*
D03*
X167717D02*
D03*
D16*
X42126Y87697D02*
D03*
Y93405D02*
D03*
X103150Y53051D02*
D03*
Y58760D02*
D03*
X42126Y157579D02*
D03*
Y151870D02*
D03*
X42126Y177756D02*
D03*
Y172047D02*
D03*
X42126Y197736D02*
D03*
Y192028D02*
D03*
X48425Y93405D02*
D03*
Y87697D02*
D03*
X93701Y99508D02*
D03*
Y105217D02*
D03*
X84252Y113681D02*
D03*
Y119390D02*
D03*
X92520Y209941D02*
D03*
Y204232D02*
D03*
D17*
X61417Y72047D02*
D03*
Y65748D02*
D03*
X84252Y128740D02*
D03*
Y135039D02*
D03*
X76772Y82284D02*
D03*
Y88583D02*
D03*
X54331Y65748D02*
D03*
Y72047D02*
D03*
X75590Y124803D02*
D03*
Y131102D02*
D03*
D18*
X68701Y63484D02*
D03*
X72441D02*
D03*
X76181D02*
D03*
Y74311D02*
D03*
X68701D02*
D03*
D19*
X103150Y44193D02*
D03*
Y37697D02*
D03*
X93701Y93799D02*
D03*
Y87303D02*
D03*
D20*
X93504Y142717D02*
D03*
Y139567D02*
D03*
Y136417D02*
D03*
Y133268D02*
D03*
Y130118D02*
D03*
Y126969D02*
D03*
Y123819D02*
D03*
Y120669D02*
D03*
X126772D02*
D03*
Y123819D02*
D03*
Y126969D02*
D03*
Y130118D02*
D03*
Y133268D02*
D03*
Y136417D02*
D03*
Y139567D02*
D03*
Y142717D02*
D03*
D21*
X99114Y115059D02*
D03*
X102264D02*
D03*
X105413D02*
D03*
X108563D02*
D03*
X111713D02*
D03*
X114862D02*
D03*
X118012D02*
D03*
X121161D02*
D03*
Y148327D02*
D03*
X118012D02*
D03*
X114862D02*
D03*
X111713D02*
D03*
X108563D02*
D03*
X105413D02*
D03*
X102264D02*
D03*
X99114D02*
D03*
D22*
X97638Y79134D02*
D03*
X103937D02*
D03*
X42126Y101969D02*
D03*
X48425D02*
D03*
M02*
