G04*
G04 #@! TF.GenerationSoftware,Altium Limited,Altium Designer,22.5.1 (42)*
G04*
G04 Layer_Physical_Order=2*
G04 Layer_Color=16711680*
%FSLAX25Y25*%
%MOIN*%
G70*
G04*
G04 #@! TF.SameCoordinates,4C861729-87C5-483C-8B33-AEF81C08CF8D*
G04*
G04*
G04 #@! TF.FilePolarity,Positive*
G04*
G01*
G75*
%ADD11C,0.01000*%
%ADD15R,0.03740X0.03543*%
%ADD40C,0.03937*%
%ADD41C,0.01968*%
%ADD42C,0.00500*%
%ADD43C,0.07874*%
%ADD44C,0.15748*%
%ADD45C,0.06000*%
%ADD46R,0.06000X0.06000*%
%ADD47C,0.09843*%
%ADD48R,0.09843X0.09843*%
%ADD49C,0.06496*%
%ADD50R,0.06496X0.06496*%
%ADD51C,0.03937*%
%ADD52C,0.01968*%
%ADD53R,0.04921X0.12795*%
G36*
X188000Y176583D02*
X209000Y157000D01*
X662646D01*
X663000Y156646D01*
X662993Y149529D01*
X662493Y149395D01*
X662375Y149598D01*
X661823Y150151D01*
X661146Y150542D01*
X660500Y150715D01*
Y147776D01*
Y144836D01*
X661146Y145009D01*
X661823Y145400D01*
X662375Y145953D01*
X662490Y146151D01*
X662989Y146016D01*
X662953Y108401D01*
X662599Y108048D01*
X209000Y109000D01*
X188000Y88000D01*
Y11811D01*
X7874D01*
Y29310D01*
X8290Y29588D01*
X9124Y29243D01*
X10839Y28902D01*
X11213D01*
Y37776D01*
Y46650D01*
X10839D01*
X9124Y46309D01*
X8290Y45963D01*
X7874Y46241D01*
Y219310D01*
X8290Y219588D01*
X9124Y219243D01*
X10839Y218902D01*
X11213D01*
Y227776D01*
Y236650D01*
X10839D01*
X9124Y236309D01*
X8290Y235963D01*
X7874Y236241D01*
Y255906D01*
X188000D01*
Y176583D01*
D02*
G37*
%LPC*%
G36*
X43170Y235646D02*
X43020D01*
Y231209D01*
X47457D01*
Y231359D01*
X47120Y232614D01*
X46470Y233740D01*
X45551Y234659D01*
X44425Y235309D01*
X43170Y235646D01*
D02*
G37*
G36*
X42020D02*
X41870D01*
X40614Y235309D01*
X39488Y234659D01*
X38569Y233740D01*
X37919Y232614D01*
X37583Y231359D01*
Y231209D01*
X42020D01*
Y235646D01*
D02*
G37*
G36*
X12587Y236650D02*
X12213D01*
Y228276D01*
X20587D01*
Y228650D01*
X20246Y230364D01*
X19577Y231979D01*
X18606Y233433D01*
X17369Y234668D01*
X15916Y235640D01*
X14301Y236309D01*
X12587Y236650D01*
D02*
G37*
G36*
X47457Y230209D02*
X43020D01*
Y225772D01*
X43170D01*
X44425Y226108D01*
X45551Y226758D01*
X46470Y227677D01*
X47120Y228803D01*
X47457Y230059D01*
Y230209D01*
D02*
G37*
G36*
X42020D02*
X37583D01*
Y230059D01*
X37919Y228803D01*
X38569Y227677D01*
X39488Y226758D01*
X40614Y226108D01*
X41870Y225772D01*
X42020D01*
Y230209D01*
D02*
G37*
G36*
X84508Y235646D02*
X83208D01*
X81953Y235309D01*
X80827Y234659D01*
X79908Y233740D01*
X79258Y232614D01*
X78921Y231359D01*
Y230059D01*
X79258Y228803D01*
X79908Y227677D01*
X80827Y226758D01*
X81953Y226108D01*
X83208Y225772D01*
X84508D01*
X85764Y226108D01*
X86890Y226758D01*
X87809Y227677D01*
X88459Y228803D01*
X88795Y230059D01*
Y231359D01*
X88459Y232614D01*
X87809Y233740D01*
X86890Y234659D01*
X85764Y235309D01*
X84508Y235646D01*
D02*
G37*
G36*
X43020Y224199D02*
Y221760D01*
X45459D01*
X45286Y222406D01*
X44895Y223083D01*
X44342Y223635D01*
X43665Y224026D01*
X43020Y224199D01*
D02*
G37*
G36*
X42020D02*
X41374Y224026D01*
X40697Y223635D01*
X40144Y223083D01*
X39753Y222406D01*
X39580Y221760D01*
X42020D01*
Y224199D01*
D02*
G37*
G36*
X20587Y227276D02*
X12213D01*
Y218902D01*
X12587D01*
X14301Y219243D01*
X15916Y219912D01*
X17369Y220883D01*
X18606Y222119D01*
X19577Y223572D01*
X20246Y225187D01*
X20587Y226902D01*
Y227276D01*
D02*
G37*
G36*
X45459Y220760D02*
X43020D01*
Y218321D01*
X43665Y218494D01*
X44342Y218884D01*
X44895Y219437D01*
X45286Y220114D01*
X45459Y220760D01*
D02*
G37*
G36*
X42020D02*
X39580D01*
X39753Y220114D01*
X40144Y219437D01*
X40697Y218884D01*
X41374Y218494D01*
X42020Y218321D01*
Y220760D01*
D02*
G37*
G36*
X134969Y214484D02*
X134909D01*
Y210736D01*
X138657D01*
Y210795D01*
X138368Y211876D01*
X137809Y212845D01*
X137018Y213635D01*
X136049Y214195D01*
X134969Y214484D01*
D02*
G37*
G36*
X133909D02*
X133850D01*
X132770Y214195D01*
X131801Y213635D01*
X131010Y212845D01*
X130451Y211876D01*
X130161Y210795D01*
Y210736D01*
X133909D01*
Y214484D01*
D02*
G37*
G36*
X35949Y211776D02*
X32449D01*
Y208276D01*
X35949D01*
Y211776D01*
D02*
G37*
G36*
X22475D02*
X22449D01*
Y208276D01*
X25949D01*
Y208302D01*
X25676Y209319D01*
X25150Y210232D01*
X24405Y210976D01*
X23493Y211503D01*
X22475Y211776D01*
D02*
G37*
G36*
X31449D02*
X27949D01*
Y208276D01*
X31449D01*
Y211776D01*
D02*
G37*
G36*
X21449D02*
X21422D01*
X20405Y211503D01*
X19493Y210976D01*
X18748Y210232D01*
X18221Y209319D01*
X17949Y208302D01*
Y208276D01*
X21449D01*
Y211776D01*
D02*
G37*
G36*
X175000Y223430D02*
X173355Y223268D01*
X171774Y222789D01*
X170316Y222010D01*
X169039Y220961D01*
X167990Y219684D01*
X167211Y218226D01*
X166732Y216645D01*
X166570Y215000D01*
X166732Y213355D01*
X167211Y211774D01*
X167990Y210316D01*
X169039Y209039D01*
X170316Y207990D01*
X171774Y207211D01*
X173355Y206732D01*
X175000Y206570D01*
X176645Y206732D01*
X178226Y207211D01*
X179684Y207990D01*
X180961Y209039D01*
X182010Y210316D01*
X182789Y211774D01*
X183268Y213355D01*
X183430Y215000D01*
X183268Y216645D01*
X182789Y218226D01*
X182010Y219684D01*
X180961Y220961D01*
X179684Y222010D01*
X178226Y222789D01*
X176645Y223268D01*
X175000Y223430D01*
D02*
G37*
G36*
X144969Y214484D02*
X143850D01*
X142770Y214195D01*
X141801Y213635D01*
X141010Y212845D01*
X140451Y211876D01*
X140161Y210795D01*
Y209677D01*
X140451Y208596D01*
X141010Y207628D01*
X141801Y206837D01*
X142770Y206278D01*
X143850Y205988D01*
X144969D01*
X146049Y206278D01*
X147018Y206837D01*
X147809Y207628D01*
X148368Y208596D01*
X148658Y209677D01*
Y210795D01*
X148368Y211876D01*
X147809Y212845D01*
X147018Y213635D01*
X146049Y214195D01*
X144969Y214484D01*
D02*
G37*
G36*
X138657Y209736D02*
X134909D01*
Y205988D01*
X134969D01*
X136049Y206278D01*
X137018Y206837D01*
X137809Y207628D01*
X138368Y208596D01*
X138657Y209677D01*
Y209736D01*
D02*
G37*
G36*
X133909D02*
X130161D01*
Y209677D01*
X130451Y208596D01*
X131010Y207628D01*
X131801Y206837D01*
X132770Y206278D01*
X133850Y205988D01*
X133909D01*
Y209736D01*
D02*
G37*
G36*
X35949Y207276D02*
X32449D01*
Y203776D01*
X35949D01*
Y207276D01*
D02*
G37*
G36*
X31449D02*
X27949D01*
Y203776D01*
X31449D01*
Y207276D01*
D02*
G37*
G36*
X25949D02*
X22449D01*
Y203776D01*
X22475D01*
X23493Y204048D01*
X24405Y204575D01*
X25150Y205319D01*
X25676Y206232D01*
X25949Y207249D01*
Y207276D01*
D02*
G37*
G36*
X21449D02*
X17949D01*
Y207249D01*
X18221Y206232D01*
X18748Y205319D01*
X19493Y204575D01*
X20405Y204048D01*
X21422Y203776D01*
X21449D01*
Y207276D01*
D02*
G37*
G36*
X131602Y205301D02*
Y202862D01*
X134042D01*
X133869Y203508D01*
X133478Y204185D01*
X132925Y204738D01*
X132248Y205128D01*
X131602Y205301D01*
D02*
G37*
G36*
X130602D02*
X129957Y205128D01*
X129280Y204738D01*
X128727Y204185D01*
X128336Y203508D01*
X128163Y202862D01*
X130602D01*
Y205301D01*
D02*
G37*
G36*
X134042Y201862D02*
X131602D01*
Y199423D01*
X132248Y199596D01*
X132925Y199987D01*
X133478Y200539D01*
X133869Y201216D01*
X134042Y201862D01*
D02*
G37*
G36*
X130602D02*
X128163D01*
X128336Y201216D01*
X128727Y200539D01*
X129280Y199987D01*
X129957Y199596D01*
X130602Y199423D01*
Y201862D01*
D02*
G37*
G36*
X93020Y199953D02*
Y197513D01*
X95459D01*
X95286Y198159D01*
X94895Y198836D01*
X94342Y199389D01*
X93665Y199780D01*
X93020Y199953D01*
D02*
G37*
G36*
X92020D02*
X91374Y199780D01*
X90697Y199389D01*
X90144Y198836D01*
X89754Y198159D01*
X89581Y197513D01*
X92020D01*
Y199953D01*
D02*
G37*
G36*
X95459Y196513D02*
X93020D01*
Y194074D01*
X93665Y194247D01*
X94342Y194638D01*
X94895Y195191D01*
X95286Y195868D01*
X95459Y196513D01*
D02*
G37*
G36*
X92020D02*
X89581D01*
X89754Y195868D01*
X90144Y195191D01*
X90697Y194638D01*
X91374Y194247D01*
X92020Y194074D01*
Y196513D01*
D02*
G37*
G36*
X32475Y201776D02*
X31422D01*
X30405Y201503D01*
X29493Y200976D01*
X28748Y200232D01*
X28221Y199320D01*
X27949Y198302D01*
Y197249D01*
X28221Y196232D01*
X28748Y195319D01*
X29493Y194575D01*
X30405Y194048D01*
X31422Y193776D01*
X32475D01*
X33493Y194048D01*
X34405Y194575D01*
X35150Y195319D01*
X35676Y196232D01*
X35949Y197249D01*
Y198302D01*
X35676Y199320D01*
X35150Y200232D01*
X34405Y200976D01*
X33493Y201503D01*
X32475Y201776D01*
D02*
G37*
G36*
X22475D02*
X21422D01*
X20405Y201503D01*
X19493Y200976D01*
X18748Y200232D01*
X18221Y199320D01*
X17949Y198302D01*
Y197249D01*
X18221Y196232D01*
X18748Y195319D01*
X19493Y194575D01*
X20405Y194048D01*
X21422Y193776D01*
X22475D01*
X23493Y194048D01*
X24405Y194575D01*
X25150Y195319D01*
X25676Y196232D01*
X25949Y197249D01*
Y198302D01*
X25676Y199320D01*
X25150Y200232D01*
X24405Y200976D01*
X23493Y201503D01*
X22475Y201776D01*
D02*
G37*
G36*
X32475Y191776D02*
X32449D01*
Y188276D01*
X35949D01*
Y188302D01*
X35676Y189320D01*
X35150Y190232D01*
X34405Y190976D01*
X33493Y191503D01*
X32475Y191776D01*
D02*
G37*
G36*
X22475D02*
X22449D01*
Y188276D01*
X25949D01*
Y188302D01*
X25676Y189320D01*
X25150Y190232D01*
X24405Y190976D01*
X23493Y191503D01*
X22475Y191776D01*
D02*
G37*
G36*
X31449D02*
X31422D01*
X30405Y191503D01*
X29493Y190976D01*
X28748Y190232D01*
X28221Y189320D01*
X27949Y188302D01*
Y188276D01*
X31449D01*
Y191776D01*
D02*
G37*
G36*
X21449D02*
X21422D01*
X20405Y191503D01*
X19493Y190976D01*
X18748Y190232D01*
X18221Y189320D01*
X17949Y188302D01*
Y188276D01*
X21449D01*
Y191776D01*
D02*
G37*
G36*
X35949Y187276D02*
X32449D01*
Y183776D01*
X32475D01*
X33493Y184048D01*
X34405Y184575D01*
X35150Y185319D01*
X35676Y186232D01*
X35949Y187249D01*
Y187276D01*
D02*
G37*
G36*
X31449D02*
X27949D01*
Y187249D01*
X28221Y186232D01*
X28748Y185319D01*
X29493Y184575D01*
X30405Y184048D01*
X31422Y183776D01*
X31449D01*
Y187276D01*
D02*
G37*
G36*
X25949D02*
X22449D01*
Y183776D01*
X22475D01*
X23493Y184048D01*
X24405Y184575D01*
X25150Y185319D01*
X25676Y186232D01*
X25949Y187249D01*
Y187276D01*
D02*
G37*
G36*
X21449D02*
X17949D01*
Y187249D01*
X18221Y186232D01*
X18748Y185319D01*
X19493Y184575D01*
X20405Y184048D01*
X21422Y183776D01*
X21449D01*
Y187276D01*
D02*
G37*
G36*
X32475Y181776D02*
X31422D01*
X30405Y181503D01*
X29493Y180976D01*
X28748Y180232D01*
X28221Y179320D01*
X27949Y178302D01*
Y177249D01*
X28221Y176232D01*
X28748Y175320D01*
X29493Y174575D01*
X30405Y174048D01*
X31422Y173776D01*
X32475D01*
X33493Y174048D01*
X34405Y174575D01*
X35150Y175320D01*
X35676Y176232D01*
X35949Y177249D01*
Y178302D01*
X35676Y179320D01*
X35150Y180232D01*
X34405Y180976D01*
X33493Y181503D01*
X32475Y181776D01*
D02*
G37*
G36*
X22475D02*
X21422D01*
X20405Y181503D01*
X19493Y180976D01*
X18748Y180232D01*
X18221Y179320D01*
X17949Y178302D01*
Y177249D01*
X18221Y176232D01*
X18748Y175320D01*
X19493Y174575D01*
X20405Y174048D01*
X21422Y173776D01*
X22475D01*
X23493Y174048D01*
X24405Y174575D01*
X25150Y175320D01*
X25676Y176232D01*
X25949Y177249D01*
Y178302D01*
X25676Y179320D01*
X25150Y180232D01*
X24405Y180976D01*
X23493Y181503D01*
X22475Y181776D01*
D02*
G37*
G36*
X71122Y235646D02*
X69823D01*
X68567Y235309D01*
X67441Y234659D01*
X66522Y233740D01*
X65872Y232614D01*
X65535Y231359D01*
Y230059D01*
X65872Y228803D01*
X66522Y227677D01*
X67441Y226758D01*
X68567Y226108D01*
X68943Y226007D01*
Y195481D01*
X68937D01*
X69079Y193676D01*
X69502Y191916D01*
X70194Y190244D01*
X71140Y188700D01*
X72316Y187324D01*
X72320Y187328D01*
X77879Y181769D01*
X77937Y181730D01*
X78950Y180496D01*
X79734Y179028D01*
X80217Y177436D01*
X80374Y175847D01*
X80360Y175779D01*
Y172690D01*
X79870Y172593D01*
X79805Y172749D01*
X78860Y174292D01*
X77684Y175669D01*
X77680Y175664D01*
X61491Y191853D01*
X61433Y191892D01*
X60420Y193126D01*
X59636Y194594D01*
X59153Y196186D01*
X58996Y197775D01*
X59010Y197843D01*
Y226007D01*
X59386Y226108D01*
X60512Y226758D01*
X61431Y227677D01*
X62081Y228803D01*
X62417Y230059D01*
Y231359D01*
X62081Y232614D01*
X61431Y233740D01*
X60512Y234659D01*
X59386Y235309D01*
X58130Y235646D01*
X56830D01*
X55575Y235309D01*
X54449Y234659D01*
X53530Y233740D01*
X52880Y232614D01*
X52543Y231359D01*
Y230059D01*
X52880Y228803D01*
X53530Y227677D01*
X54449Y226758D01*
X55575Y226108D01*
X55951Y226007D01*
Y197843D01*
X55945D01*
X56087Y196038D01*
X56509Y194278D01*
X57202Y192606D01*
X58148Y191063D01*
X59323Y189686D01*
X59328Y189690D01*
X75517Y173502D01*
X75574Y173463D01*
X76587Y172229D01*
X77372Y170761D01*
X77855Y169168D01*
X78011Y167580D01*
X77998Y167512D01*
Y144714D01*
X77997Y144697D01*
X77952Y144365D01*
X77932Y144219D01*
X77933Y144217D01*
X77926Y143721D01*
X77871Y143307D01*
X78008Y142267D01*
X78409Y141298D01*
X78779Y140816D01*
X78786Y140800D01*
Y139375D01*
X78633Y139222D01*
X78331Y138493D01*
Y137704D01*
X78633Y136974D01*
X79191Y136416D01*
X79920Y136114D01*
X80710D01*
X81439Y136416D01*
X81997Y136974D01*
X82299Y137704D01*
Y138493D01*
X81997Y139222D01*
X81844Y139375D01*
Y140481D01*
X81844Y140917D01*
X81855D01*
X82129Y141250D01*
X82205Y141323D01*
X82284D01*
X83014Y141625D01*
X83572Y142183D01*
X83874Y142912D01*
Y143702D01*
X83572Y144431D01*
X83419Y144584D01*
Y175779D01*
X83425D01*
X83283Y177584D01*
X82861Y179344D01*
X82168Y181016D01*
X81222Y182560D01*
X80047Y183936D01*
X80042Y183932D01*
X74483Y189491D01*
X74425Y189530D01*
X73413Y190763D01*
X72628Y192231D01*
X72145Y193824D01*
X71988Y195413D01*
X72002Y195481D01*
Y226007D01*
X72378Y226108D01*
X73504Y226758D01*
X74423Y227677D01*
X75073Y228803D01*
X75410Y230059D01*
Y231359D01*
X75073Y232614D01*
X74423Y233740D01*
X73504Y234659D01*
X72378Y235309D01*
X71122Y235646D01*
D02*
G37*
G36*
X32475Y171776D02*
X32449D01*
Y168276D01*
X35949D01*
Y168302D01*
X35676Y169319D01*
X35150Y170232D01*
X34405Y170976D01*
X33493Y171503D01*
X32475Y171776D01*
D02*
G37*
G36*
X22475D02*
X22449D01*
Y168276D01*
X25949D01*
Y168302D01*
X25676Y169319D01*
X25150Y170232D01*
X24405Y170976D01*
X23493Y171503D01*
X22475Y171776D01*
D02*
G37*
G36*
X31449D02*
X31422D01*
X30405Y171503D01*
X29493Y170976D01*
X28748Y170232D01*
X28221Y169319D01*
X27949Y168302D01*
Y168276D01*
X31449D01*
Y171776D01*
D02*
G37*
G36*
X21449D02*
X21422D01*
X20405Y171503D01*
X19493Y170976D01*
X18748Y170232D01*
X18221Y169319D01*
X17949Y168302D01*
Y168276D01*
X21449D01*
Y171776D01*
D02*
G37*
G36*
X142123Y175016D02*
X141341D01*
X140586Y174813D01*
X139910Y174423D01*
X139357Y173870D01*
X138966Y173193D01*
X138764Y172438D01*
Y171656D01*
X138966Y170901D01*
X139357Y170224D01*
X139910Y169672D01*
X140586Y169281D01*
X141341Y169079D01*
X142123D01*
X142878Y169281D01*
X143555Y169672D01*
X144108Y170224D01*
X144277Y170518D01*
X145928D01*
X146135Y170018D01*
X146050Y169933D01*
X145659Y169256D01*
X145457Y168501D01*
Y167719D01*
X145659Y166964D01*
X145871Y166596D01*
X145583Y166096D01*
X144277D01*
X144108Y166390D01*
X143555Y166942D01*
X142878Y167333D01*
X142123Y167535D01*
X141341D01*
X140586Y167333D01*
X139910Y166942D01*
X139357Y166390D01*
X138966Y165713D01*
X138764Y164958D01*
Y164176D01*
X138966Y163421D01*
X139357Y162744D01*
X139910Y162191D01*
X140586Y161801D01*
X141341Y161598D01*
X142123D01*
X142878Y161801D01*
X143555Y162191D01*
X144108Y162744D01*
X144277Y163038D01*
X146347D01*
X146465Y162841D01*
X146528Y162538D01*
X146050Y162059D01*
X145659Y161382D01*
X145457Y160627D01*
Y159845D01*
X145659Y159090D01*
X146050Y158414D01*
X146135Y158329D01*
X145928Y157829D01*
X144277D01*
X144108Y158122D01*
X143555Y158675D01*
X142878Y159065D01*
X142123Y159268D01*
X141341D01*
X140586Y159065D01*
X139910Y158675D01*
X139357Y158122D01*
X138966Y157445D01*
X138764Y156690D01*
Y155908D01*
X138966Y155153D01*
X139357Y154476D01*
X139910Y153924D01*
X140586Y153533D01*
X141341Y153331D01*
X142123D01*
X142878Y153533D01*
X143555Y153924D01*
X144108Y154476D01*
X144277Y154770D01*
X145928D01*
X146135Y154270D01*
X146050Y154185D01*
X145659Y153508D01*
X145457Y152753D01*
Y151971D01*
X145659Y151216D01*
X145871Y150848D01*
X145583Y150348D01*
X144671D01*
X144501Y150642D01*
X143949Y151194D01*
X143272Y151585D01*
X142517Y151787D01*
X141735D01*
X140980Y151585D01*
X140303Y151194D01*
X139751Y150642D01*
X139360Y149965D01*
X139157Y149210D01*
Y148428D01*
X139360Y147673D01*
X139751Y146996D01*
X140303Y146443D01*
X140980Y146053D01*
X141735Y145850D01*
X142517D01*
X143272Y146053D01*
X143949Y146443D01*
X144501Y146996D01*
X144671Y147290D01*
X146347D01*
X146465Y147093D01*
X146528Y146790D01*
X146050Y146311D01*
X145659Y145634D01*
X145457Y144879D01*
Y144097D01*
X145659Y143342D01*
X146050Y142666D01*
X146135Y142581D01*
X145928Y142081D01*
X145458D01*
X145289Y142374D01*
X144736Y142927D01*
X144059Y143317D01*
X143304Y143520D01*
X142523D01*
X141768Y143317D01*
X141091Y142927D01*
X140538Y142374D01*
X140147Y141697D01*
X139945Y140942D01*
Y140160D01*
X140147Y139405D01*
X140538Y138728D01*
X141091Y138176D01*
X141768Y137785D01*
X142523Y137583D01*
X143304D01*
X144059Y137785D01*
X144736Y138176D01*
X145289Y138728D01*
X145458Y139022D01*
X145928D01*
X146135Y138522D01*
X146050Y138437D01*
X145659Y137760D01*
X145457Y137005D01*
Y136223D01*
X145659Y135468D01*
X146050Y134792D01*
X146135Y134707D01*
X145928Y134207D01*
X145458D01*
X145289Y134500D01*
X144736Y135053D01*
X144059Y135443D01*
X143304Y135646D01*
X142523D01*
X141768Y135443D01*
X141091Y135053D01*
X140538Y134500D01*
X140147Y133823D01*
X139945Y133068D01*
Y132286D01*
X140147Y131531D01*
X140538Y130854D01*
X141091Y130302D01*
X141768Y129911D01*
X142523Y129709D01*
X143304D01*
X144059Y129911D01*
X144736Y130302D01*
X145289Y130854D01*
X145458Y131148D01*
X145928D01*
X146135Y130648D01*
X146050Y130563D01*
X145659Y129886D01*
X145457Y129131D01*
Y128349D01*
X145659Y127594D01*
X146050Y126918D01*
X146135Y126832D01*
X145928Y126332D01*
X144495D01*
X144430Y126319D01*
X144342Y126407D01*
X143666Y126798D01*
X142911Y127000D01*
X142129D01*
X141374Y126798D01*
X140697Y126407D01*
X140144Y125854D01*
X139753Y125177D01*
X139551Y124422D01*
Y123641D01*
X139753Y122886D01*
X140144Y122209D01*
X140697Y121656D01*
X141374Y121265D01*
X142129Y121063D01*
X142911D01*
X143666Y121265D01*
X144342Y121656D01*
X144895Y122209D01*
X145286Y122886D01*
X145390Y123274D01*
X146321D01*
X146528Y122774D01*
X146247Y122492D01*
X145856Y121815D01*
X145653Y121060D01*
Y120279D01*
X145856Y119524D01*
X146182Y118958D01*
X145994Y118458D01*
X144671D01*
X144501Y118752D01*
X143949Y119305D01*
X143272Y119695D01*
X142517Y119898D01*
X141735D01*
X140980Y119695D01*
X140303Y119305D01*
X139751Y118752D01*
X139360Y118075D01*
X139157Y117320D01*
Y116538D01*
X139360Y115783D01*
X139751Y115106D01*
X140303Y114554D01*
X140980Y114163D01*
X141735Y113961D01*
X142517D01*
X143272Y114163D01*
X143949Y114554D01*
X144501Y115106D01*
X144671Y115400D01*
X145140D01*
X145347Y114900D01*
X145262Y114815D01*
X144872Y114138D01*
X144669Y113383D01*
Y112601D01*
X144872Y111846D01*
X145262Y111169D01*
X145741Y110691D01*
X145677Y110387D01*
X145560Y110191D01*
X144671D01*
X144501Y110484D01*
X143949Y111037D01*
X143272Y111428D01*
X142517Y111630D01*
X141735D01*
X140980Y111428D01*
X140303Y111037D01*
X139751Y110484D01*
X139360Y109807D01*
X139157Y109052D01*
Y108271D01*
X139360Y107516D01*
X139751Y106839D01*
X140303Y106286D01*
X140980Y105895D01*
X141735Y105693D01*
X142517D01*
X143272Y105895D01*
X143949Y106286D01*
X144501Y106839D01*
X144671Y107132D01*
X145189D01*
X145478Y106632D01*
X145265Y106264D01*
X145063Y105509D01*
Y104727D01*
X145265Y103972D01*
X145656Y103295D01*
X145741Y103210D01*
X145534Y102710D01*
X143883D01*
X143714Y103004D01*
X143161Y103557D01*
X142484Y103947D01*
X141729Y104150D01*
X140948D01*
X140193Y103947D01*
X139516Y103557D01*
X138963Y103004D01*
X138572Y102327D01*
X138370Y101572D01*
Y100790D01*
X138572Y100035D01*
X138963Y99358D01*
X139516Y98806D01*
X140193Y98415D01*
X140948Y98213D01*
X141729D01*
X142484Y98415D01*
X143161Y98806D01*
X143714Y99358D01*
X143883Y99652D01*
X145534D01*
X145741Y99152D01*
X145656Y99067D01*
X145265Y98390D01*
X145063Y97635D01*
Y96853D01*
X145265Y96098D01*
X145656Y95421D01*
X146209Y94869D01*
X146535Y94680D01*
X146617Y94056D01*
X145600Y93038D01*
X145273Y93126D01*
X144491D01*
X143736Y92924D01*
X143059Y92533D01*
X142507Y91980D01*
X142116Y91303D01*
X141913Y90548D01*
Y89767D01*
X142116Y89012D01*
X142507Y88335D01*
X143059Y87782D01*
X143736Y87391D01*
X144491Y87189D01*
X145273D01*
X146028Y87391D01*
X146705Y87782D01*
X147257Y88335D01*
X147648Y89012D01*
X147850Y89767D01*
Y90548D01*
X147763Y90875D01*
X148665Y91778D01*
X152248D01*
Y90535D01*
X163697D01*
Y92033D01*
X164847D01*
Y89628D01*
X162121D01*
X161536Y89511D01*
X161177Y89271D01*
X160988Y89380D01*
X160233Y89583D01*
X159452D01*
X158697Y89380D01*
X158020Y88990D01*
X157467Y88437D01*
X157076Y87760D01*
X156874Y87005D01*
Y86223D01*
X157076Y85468D01*
X157467Y84791D01*
X158020Y84239D01*
X158697Y83848D01*
X159452Y83646D01*
X160233D01*
X160988Y83848D01*
X161665Y84239D01*
X162218Y84791D01*
X162609Y85468D01*
X162811Y86223D01*
Y86569D01*
X166445D01*
X166593Y86598D01*
X176295D01*
Y90339D01*
X206304Y120348D01*
X208472D01*
X208607Y119848D01*
X208177Y119600D01*
X207625Y119047D01*
X207234Y118370D01*
X207061Y117724D01*
X212939D01*
X212766Y118370D01*
X212375Y119047D01*
X211823Y119600D01*
X211394Y119848D01*
X211528Y120348D01*
X228472D01*
X228606Y119848D01*
X228177Y119600D01*
X227625Y119047D01*
X227234Y118370D01*
X227061Y117724D01*
X232939D01*
X232766Y118370D01*
X232375Y119047D01*
X231823Y119600D01*
X231394Y119848D01*
X231528Y120348D01*
X233842D01*
Y119993D01*
X234145Y119264D01*
X234703Y118706D01*
X235432Y118403D01*
X236222D01*
X236951Y118706D01*
X237509Y119264D01*
X237811Y119993D01*
Y120782D01*
X237749Y120932D01*
X238027Y121348D01*
X273213D01*
Y120865D01*
X273515Y120136D01*
X274073Y119578D01*
X274802Y119276D01*
X275591D01*
X276321Y119578D01*
X276879Y120136D01*
X277181Y120865D01*
Y121654D01*
X277066Y121932D01*
X277344Y122348D01*
X312464D01*
X312976Y121835D01*
Y121259D01*
X313279Y120529D01*
X313837Y119971D01*
X314566Y119669D01*
X315355D01*
X316085Y119971D01*
X316643Y120529D01*
X316945Y121259D01*
Y122048D01*
X316643Y122777D01*
X316573Y122848D01*
X316780Y123348D01*
X350834D01*
X353134Y121048D01*
Y120472D01*
X353436Y119742D01*
X353994Y119184D01*
X354723Y118882D01*
X355513D01*
X356242Y119184D01*
X356800Y119742D01*
X357102Y120472D01*
Y121261D01*
X356800Y121990D01*
X356242Y122548D01*
X355513Y122850D01*
X354936D01*
X353901Y123886D01*
X354092Y124348D01*
X390779D01*
X392898Y122229D01*
Y121652D01*
X393200Y120923D01*
X393758Y120365D01*
X394487Y120063D01*
X395277D01*
X396006Y120365D01*
X396564Y120923D01*
X396866Y121652D01*
Y122442D01*
X396564Y123171D01*
X396006Y123729D01*
X395277Y124031D01*
X394700D01*
X393846Y124886D01*
X394037Y125348D01*
X429149D01*
X433055Y121442D01*
Y120865D01*
X433357Y120136D01*
X433915Y119578D01*
X434645Y119276D01*
X435434D01*
X436163Y119578D01*
X436722Y120136D01*
X437024Y120865D01*
Y121654D01*
X436722Y122384D01*
X436163Y122942D01*
X435434Y123244D01*
X434858D01*
X432216Y125886D01*
X432407Y126348D01*
X468700D01*
X472819Y122229D01*
Y121652D01*
X473121Y120923D01*
X473679Y120365D01*
X474408Y120063D01*
X475198D01*
X475927Y120365D01*
X476485Y120923D01*
X476787Y121652D01*
Y122442D01*
X476485Y123171D01*
X475927Y123729D01*
X475198Y124031D01*
X474621D01*
X471767Y126886D01*
X471958Y127348D01*
X507858D01*
X512976Y122229D01*
Y121652D01*
X513278Y120923D01*
X513837Y120365D01*
X514566Y120063D01*
X515355D01*
X516085Y120365D01*
X516643Y120923D01*
X516945Y121652D01*
Y122442D01*
X516643Y123171D01*
X516085Y123729D01*
X515355Y124031D01*
X514779D01*
X510925Y127886D01*
X511116Y128348D01*
X547015D01*
X553528Y121835D01*
Y121259D01*
X553830Y120529D01*
X554388Y119971D01*
X555117Y119669D01*
X555906D01*
X556636Y119971D01*
X557194Y120529D01*
X557496Y121259D01*
Y122048D01*
X557194Y122777D01*
X556636Y123336D01*
X555906Y123638D01*
X555330D01*
X550082Y128886D01*
X550274Y129348D01*
X585386D01*
X592504Y122229D01*
Y121652D01*
X592806Y120923D01*
X593364Y120365D01*
X594094Y120063D01*
X594883D01*
X595612Y120365D01*
X596170Y120923D01*
X596472Y121652D01*
Y122442D01*
X596170Y123171D01*
X595612Y123729D01*
X594883Y124031D01*
X594306D01*
X588452Y129886D01*
X588644Y130348D01*
X645015D01*
X653528Y121835D01*
Y121259D01*
X653830Y120529D01*
X654388Y119971D01*
X655117Y119669D01*
X655906D01*
X656636Y119971D01*
X657194Y120529D01*
X657496Y121259D01*
Y122048D01*
X657194Y122777D01*
X656636Y123336D01*
X655906Y123638D01*
X655330D01*
X646445Y132523D01*
X646031Y132799D01*
X645543Y132896D01*
X640864D01*
X640673Y133359D01*
X645881Y138567D01*
X646458D01*
X647187Y138869D01*
X647745Y139427D01*
X648047Y140156D01*
Y140946D01*
X647745Y141675D01*
X647187Y142233D01*
X646458Y142535D01*
X645668D01*
X644939Y142233D01*
X644381Y141675D01*
X644079Y140946D01*
Y140369D01*
X637661Y133952D01*
X584045D01*
X583854Y134414D01*
X586826Y137386D01*
X587403D01*
X588132Y137688D01*
X588690Y138246D01*
X588992Y138975D01*
Y139765D01*
X588690Y140494D01*
X588132Y141052D01*
X587403Y141354D01*
X586613D01*
X585884Y141052D01*
X585326Y140494D01*
X585024Y139765D01*
Y139188D01*
X581023Y135188D01*
X544730D01*
X544539Y135650D01*
X546668Y137779D01*
X547245D01*
X547974Y138082D01*
X548532Y138640D01*
X548835Y139369D01*
Y140158D01*
X548532Y140888D01*
X547974Y141446D01*
X547245Y141748D01*
X546456D01*
X545726Y141446D01*
X545168Y140888D01*
X544866Y140158D01*
Y139582D01*
X541472Y136188D01*
X505573D01*
X505381Y136650D01*
X506905Y138173D01*
X507481D01*
X508211Y138475D01*
X508769Y139033D01*
X509071Y139763D01*
Y140552D01*
X508769Y141281D01*
X508211Y141840D01*
X507481Y142142D01*
X506692D01*
X505963Y141840D01*
X505404Y141281D01*
X505102Y140552D01*
Y139976D01*
X502315Y137188D01*
X465628D01*
X465437Y137650D01*
X466747Y138961D01*
X467324D01*
X468053Y139263D01*
X468611Y139821D01*
X468913Y140550D01*
Y141340D01*
X468611Y142069D01*
X468053Y142627D01*
X467324Y142929D01*
X466534D01*
X465805Y142627D01*
X465247Y142069D01*
X464945Y141340D01*
Y140763D01*
X462370Y138188D01*
X426077D01*
X425885Y138650D01*
X426590Y139354D01*
X427166D01*
X427896Y139656D01*
X428454Y140215D01*
X428756Y140944D01*
Y141733D01*
X428454Y142463D01*
X427896Y143021D01*
X427166Y143323D01*
X426377D01*
X425648Y143021D01*
X425090Y142463D01*
X424787Y141733D01*
Y141157D01*
X422819Y139188D01*
X386132D01*
X385940Y139650D01*
X386432Y140142D01*
X387009D01*
X387738Y140444D01*
X388296Y141002D01*
X388598Y141731D01*
Y142521D01*
X388296Y143250D01*
X387738Y143808D01*
X387009Y144110D01*
X386220D01*
X385490Y143808D01*
X384932Y143250D01*
X384630Y142521D01*
Y141944D01*
X382874Y140188D01*
X346925D01*
X346826Y140688D01*
X347187Y140838D01*
X347745Y141396D01*
X348047Y142125D01*
Y142914D01*
X347745Y143644D01*
X347187Y144202D01*
X346458Y144504D01*
X345668D01*
X344939Y144202D01*
X344381Y143644D01*
X344079Y142914D01*
Y142338D01*
X342929Y141188D01*
X306575D01*
X306380Y141688D01*
X306800Y142108D01*
X307102Y142838D01*
Y143627D01*
X306800Y144356D01*
X306242Y144914D01*
X305513Y145217D01*
X304723D01*
X303994Y144914D01*
X303436Y144356D01*
X303134Y143627D01*
Y142838D01*
X303165Y142763D01*
X302590Y142188D01*
X266417D01*
X266222Y142688D01*
X266643Y143108D01*
X266945Y143838D01*
Y144627D01*
X266643Y145356D01*
X266085Y145914D01*
X265355Y146216D01*
X264566D01*
X263837Y145914D01*
X263279Y145356D01*
X262976Y144627D01*
Y143913D01*
X262252Y143188D01*
X226594D01*
X226400Y143688D01*
X226820Y144108D01*
X227122Y144838D01*
Y145627D01*
X226820Y146356D01*
X226262Y146915D01*
X225533Y147216D01*
X224743D01*
X224014Y146915D01*
X223456Y146356D01*
X223154Y145627D01*
Y145050D01*
X222291Y144188D01*
X207614D01*
X178854Y172949D01*
X178440Y173225D01*
X177953Y173322D01*
X163697D01*
Y174819D01*
X152248D01*
Y173577D01*
X144277D01*
X144108Y173870D01*
X143555Y174423D01*
X142878Y174813D01*
X142123Y175016D01*
D02*
G37*
G36*
X35949Y167276D02*
X32449D01*
Y163776D01*
X32475D01*
X33493Y164048D01*
X34405Y164575D01*
X35150Y165320D01*
X35676Y166232D01*
X35949Y167249D01*
Y167276D01*
D02*
G37*
G36*
X31449D02*
X27949D01*
Y167249D01*
X28221Y166232D01*
X28748Y165320D01*
X29493Y164575D01*
X30405Y164048D01*
X31422Y163776D01*
X31449D01*
Y167276D01*
D02*
G37*
G36*
X25949D02*
X22449D01*
Y163776D01*
X22475D01*
X23493Y164048D01*
X24405Y164575D01*
X25150Y165320D01*
X25676Y166232D01*
X25949Y167249D01*
Y167276D01*
D02*
G37*
G36*
X21449D02*
X17949D01*
Y167249D01*
X18221Y166232D01*
X18748Y165320D01*
X19493Y164575D01*
X20405Y164048D01*
X21422Y163776D01*
X21449D01*
Y167276D01*
D02*
G37*
G36*
X32475Y161776D02*
X31422D01*
X30405Y161503D01*
X29493Y160976D01*
X28748Y160232D01*
X28221Y159319D01*
X27949Y158302D01*
Y157249D01*
X28221Y156232D01*
X28748Y155319D01*
X29493Y154575D01*
X30405Y154048D01*
X31422Y153776D01*
X32475D01*
X33493Y154048D01*
X34405Y154575D01*
X35150Y155319D01*
X35676Y156232D01*
X35949Y157249D01*
Y158302D01*
X35676Y159319D01*
X35150Y160232D01*
X34405Y160976D01*
X33493Y161503D01*
X32475Y161776D01*
D02*
G37*
G36*
X22475D02*
X21422D01*
X20405Y161503D01*
X19493Y160976D01*
X18748Y160232D01*
X18221Y159319D01*
X17949Y158302D01*
Y157249D01*
X18221Y156232D01*
X18748Y155319D01*
X19493Y154575D01*
X20405Y154048D01*
X21422Y153776D01*
X22475D01*
X23493Y154048D01*
X24405Y154575D01*
X25150Y155319D01*
X25676Y156232D01*
X25949Y157249D01*
Y158302D01*
X25676Y159319D01*
X25150Y160232D01*
X24405Y160976D01*
X23493Y161503D01*
X22475Y161776D01*
D02*
G37*
G36*
X110233Y176984D02*
X109452D01*
X108697Y176782D01*
X108020Y176391D01*
X107467Y175838D01*
X107076Y175162D01*
X106874Y174407D01*
Y173625D01*
X107076Y172870D01*
X107467Y172193D01*
X108020Y171640D01*
X108313Y171471D01*
Y157685D01*
X108327Y157617D01*
X108170Y156029D01*
X107687Y154436D01*
X106902Y152968D01*
X105890Y151734D01*
X105832Y151696D01*
X76309Y122172D01*
X75981Y122260D01*
X75200D01*
X74445Y122058D01*
X73768Y121667D01*
X73215Y121114D01*
X72824Y120437D01*
X72622Y119682D01*
Y118901D01*
X72824Y118146D01*
X73215Y117469D01*
X73768Y116916D01*
X74445Y116525D01*
X75200Y116323D01*
X75981D01*
X76736Y116525D01*
X77413Y116916D01*
X77966Y117469D01*
X78357Y118146D01*
X78559Y118901D01*
Y119682D01*
X78471Y120009D01*
X107995Y149533D01*
X107999Y149529D01*
X109175Y150905D01*
X110121Y152448D01*
X110813Y154121D01*
X111236Y155881D01*
X111378Y157685D01*
X111372D01*
Y171471D01*
X111665Y171640D01*
X112218Y172193D01*
X112609Y172870D01*
X112811Y173625D01*
Y174407D01*
X112609Y175162D01*
X112218Y175838D01*
X111665Y176391D01*
X110988Y176782D01*
X110233Y176984D01*
D02*
G37*
G36*
X32475Y151776D02*
X32449D01*
Y148276D01*
X35949D01*
Y148302D01*
X35676Y149320D01*
X35150Y150232D01*
X34405Y150976D01*
X33493Y151503D01*
X32475Y151776D01*
D02*
G37*
G36*
X22475D02*
X22449D01*
Y148276D01*
X25949D01*
Y148302D01*
X25676Y149320D01*
X25150Y150232D01*
X24405Y150976D01*
X23493Y151503D01*
X22475Y151776D01*
D02*
G37*
G36*
X31449D02*
X31422D01*
X30405Y151503D01*
X29493Y150976D01*
X28748Y150232D01*
X28221Y149320D01*
X27949Y148302D01*
Y148276D01*
X31449D01*
Y151776D01*
D02*
G37*
G36*
X21449D02*
X21422D01*
X20405Y151503D01*
X19493Y150976D01*
X18748Y150232D01*
X18221Y149320D01*
X17949Y148302D01*
Y148276D01*
X21449D01*
Y151776D01*
D02*
G37*
G36*
X659500Y150715D02*
X658854Y150542D01*
X658177Y150151D01*
X657625Y149598D01*
X657234Y148921D01*
X657061Y148276D01*
X659500D01*
Y150715D01*
D02*
G37*
G36*
X640500D02*
Y148276D01*
X642939D01*
X642766Y148921D01*
X642375Y149598D01*
X641823Y150151D01*
X641146Y150542D01*
X640500Y150715D01*
D02*
G37*
G36*
X639500D02*
X638854Y150542D01*
X638177Y150151D01*
X637625Y149598D01*
X637234Y148921D01*
X637061Y148276D01*
X639500D01*
Y150715D01*
D02*
G37*
G36*
X600500D02*
Y148276D01*
X602939D01*
X602766Y148921D01*
X602375Y149598D01*
X601823Y150151D01*
X601146Y150542D01*
X600500Y150715D01*
D02*
G37*
G36*
X599500D02*
X598854Y150542D01*
X598177Y150151D01*
X597625Y149598D01*
X597234Y148921D01*
X597061Y148276D01*
X599500D01*
Y150715D01*
D02*
G37*
G36*
X580500D02*
Y148276D01*
X582939D01*
X582766Y148921D01*
X582375Y149598D01*
X581823Y150151D01*
X581146Y150542D01*
X580500Y150715D01*
D02*
G37*
G36*
X579500D02*
X578854Y150542D01*
X578177Y150151D01*
X577625Y149598D01*
X577234Y148921D01*
X577061Y148276D01*
X579500D01*
Y150715D01*
D02*
G37*
G36*
X560500D02*
Y148276D01*
X562939D01*
X562766Y148921D01*
X562375Y149598D01*
X561823Y150151D01*
X561146Y150542D01*
X560500Y150715D01*
D02*
G37*
G36*
X559500D02*
X558854Y150542D01*
X558177Y150151D01*
X557625Y149598D01*
X557234Y148921D01*
X557061Y148276D01*
X559500D01*
Y150715D01*
D02*
G37*
G36*
X540500D02*
Y148276D01*
X542939D01*
X542766Y148921D01*
X542375Y149598D01*
X541823Y150151D01*
X541146Y150542D01*
X540500Y150715D01*
D02*
G37*
G36*
X539500D02*
X538854Y150542D01*
X538177Y150151D01*
X537625Y149598D01*
X537234Y148921D01*
X537061Y148276D01*
X539500D01*
Y150715D01*
D02*
G37*
G36*
X520500D02*
Y148276D01*
X522939D01*
X522766Y148921D01*
X522375Y149598D01*
X521823Y150151D01*
X521146Y150542D01*
X520500Y150715D01*
D02*
G37*
G36*
X519500D02*
X518854Y150542D01*
X518177Y150151D01*
X517625Y149598D01*
X517234Y148921D01*
X517061Y148276D01*
X519500D01*
Y150715D01*
D02*
G37*
G36*
X500500D02*
Y148276D01*
X502939D01*
X502766Y148921D01*
X502375Y149598D01*
X501823Y150151D01*
X501146Y150542D01*
X500500Y150715D01*
D02*
G37*
G36*
X499500D02*
X498854Y150542D01*
X498177Y150151D01*
X497625Y149598D01*
X497234Y148921D01*
X497061Y148276D01*
X499500D01*
Y150715D01*
D02*
G37*
G36*
X480500D02*
Y148276D01*
X482939D01*
X482766Y148921D01*
X482375Y149598D01*
X481823Y150151D01*
X481146Y150542D01*
X480500Y150715D01*
D02*
G37*
G36*
X479500D02*
X478854Y150542D01*
X478177Y150151D01*
X477625Y149598D01*
X477234Y148921D01*
X477061Y148276D01*
X479500D01*
Y150715D01*
D02*
G37*
G36*
X460500D02*
Y148276D01*
X462939D01*
X462766Y148921D01*
X462375Y149598D01*
X461823Y150151D01*
X461146Y150542D01*
X460500Y150715D01*
D02*
G37*
G36*
X459500D02*
X458854Y150542D01*
X458177Y150151D01*
X457625Y149598D01*
X457234Y148921D01*
X457061Y148276D01*
X459500D01*
Y150715D01*
D02*
G37*
G36*
X440500D02*
Y148276D01*
X442939D01*
X442766Y148921D01*
X442375Y149598D01*
X441823Y150151D01*
X441146Y150542D01*
X440500Y150715D01*
D02*
G37*
G36*
X439500D02*
X438854Y150542D01*
X438177Y150151D01*
X437625Y149598D01*
X437234Y148921D01*
X437061Y148276D01*
X439500D01*
Y150715D01*
D02*
G37*
G36*
X420500D02*
Y148276D01*
X422939D01*
X422766Y148921D01*
X422375Y149598D01*
X421823Y150151D01*
X421146Y150542D01*
X420500Y150715D01*
D02*
G37*
G36*
X419500D02*
X418854Y150542D01*
X418177Y150151D01*
X417625Y149598D01*
X417234Y148921D01*
X417061Y148276D01*
X419500D01*
Y150715D01*
D02*
G37*
G36*
X400500D02*
Y148276D01*
X402939D01*
X402766Y148921D01*
X402375Y149598D01*
X401823Y150151D01*
X401146Y150542D01*
X400500Y150715D01*
D02*
G37*
G36*
X399500D02*
X398854Y150542D01*
X398177Y150151D01*
X397625Y149598D01*
X397234Y148921D01*
X397061Y148276D01*
X399500D01*
Y150715D01*
D02*
G37*
G36*
X380500D02*
Y148276D01*
X382939D01*
X382766Y148921D01*
X382375Y149598D01*
X381823Y150151D01*
X381146Y150542D01*
X380500Y150715D01*
D02*
G37*
G36*
X379500D02*
X378854Y150542D01*
X378177Y150151D01*
X377625Y149598D01*
X377234Y148921D01*
X377061Y148276D01*
X379500D01*
Y150715D01*
D02*
G37*
G36*
X360500D02*
Y148276D01*
X362939D01*
X362766Y148921D01*
X362375Y149598D01*
X361823Y150151D01*
X361146Y150542D01*
X360500Y150715D01*
D02*
G37*
G36*
X359500D02*
X358854Y150542D01*
X358177Y150151D01*
X357625Y149598D01*
X357234Y148921D01*
X357061Y148276D01*
X359500D01*
Y150715D01*
D02*
G37*
G36*
X340500D02*
Y148276D01*
X342939D01*
X342766Y148921D01*
X342375Y149598D01*
X341823Y150151D01*
X341146Y150542D01*
X340500Y150715D01*
D02*
G37*
G36*
X339500D02*
X338854Y150542D01*
X338177Y150151D01*
X337625Y149598D01*
X337234Y148921D01*
X337061Y148276D01*
X339500D01*
Y150715D01*
D02*
G37*
G36*
X320500D02*
Y148276D01*
X322939D01*
X322766Y148921D01*
X322375Y149598D01*
X321823Y150151D01*
X321146Y150542D01*
X320500Y150715D01*
D02*
G37*
G36*
X319500D02*
X318854Y150542D01*
X318177Y150151D01*
X317625Y149598D01*
X317234Y148921D01*
X317061Y148276D01*
X319500D01*
Y150715D01*
D02*
G37*
G36*
X300500D02*
Y148276D01*
X302939D01*
X302766Y148921D01*
X302375Y149598D01*
X301823Y150151D01*
X301146Y150542D01*
X300500Y150715D01*
D02*
G37*
G36*
X299500D02*
X298854Y150542D01*
X298177Y150151D01*
X297625Y149598D01*
X297234Y148921D01*
X297061Y148276D01*
X299500D01*
Y150715D01*
D02*
G37*
G36*
X280500D02*
Y148276D01*
X282939D01*
X282766Y148921D01*
X282375Y149598D01*
X281823Y150151D01*
X281146Y150542D01*
X280500Y150715D01*
D02*
G37*
G36*
X279500D02*
X278854Y150542D01*
X278177Y150151D01*
X277625Y149598D01*
X277234Y148921D01*
X277061Y148276D01*
X279500D01*
Y150715D01*
D02*
G37*
G36*
X260500D02*
Y148276D01*
X262939D01*
X262766Y148921D01*
X262375Y149598D01*
X261823Y150151D01*
X261146Y150542D01*
X260500Y150715D01*
D02*
G37*
G36*
X259500D02*
X258854Y150542D01*
X258177Y150151D01*
X257625Y149598D01*
X257234Y148921D01*
X257061Y148276D01*
X259500D01*
Y150715D01*
D02*
G37*
G36*
X240500D02*
Y148276D01*
X242939D01*
X242766Y148921D01*
X242375Y149598D01*
X241823Y150151D01*
X241146Y150542D01*
X240500Y150715D01*
D02*
G37*
G36*
X239500D02*
X238854Y150542D01*
X238177Y150151D01*
X237625Y149598D01*
X237234Y148921D01*
X237061Y148276D01*
X239500D01*
Y150715D01*
D02*
G37*
G36*
X220500D02*
Y148276D01*
X222939D01*
X222766Y148921D01*
X222375Y149598D01*
X221823Y150151D01*
X221146Y150542D01*
X220500Y150715D01*
D02*
G37*
G36*
X219500D02*
X218854Y150542D01*
X218177Y150151D01*
X217625Y149598D01*
X217234Y148921D01*
X217061Y148276D01*
X219500D01*
Y150715D01*
D02*
G37*
G36*
X124969Y214484D02*
X123850D01*
X122770Y214195D01*
X121801Y213635D01*
X121010Y212845D01*
X120451Y211876D01*
X120161Y210795D01*
Y209677D01*
X120451Y208596D01*
X121010Y207628D01*
X121801Y206837D01*
X122386Y206499D01*
Y194693D01*
X122389Y194678D01*
X122536Y192813D01*
X122977Y190979D01*
X123698Y189236D01*
X124684Y187627D01*
X125899Y186204D01*
X125908Y186192D01*
X127924Y184176D01*
X128002Y184123D01*
X128939Y182982D01*
X129678Y181598D01*
X130134Y180097D01*
X130279Y178627D01*
X130260Y178535D01*
Y148288D01*
X129760Y148222D01*
X129636Y148685D01*
X129246Y149362D01*
X128693Y149915D01*
X128400Y150084D01*
Y179823D01*
X128283Y180408D01*
X127952Y180904D01*
X115939Y192917D01*
Y206248D01*
X116049Y206278D01*
X117018Y206837D01*
X117809Y207628D01*
X118368Y208596D01*
X118658Y209677D01*
Y210795D01*
X118368Y211876D01*
X117809Y212845D01*
X117018Y213635D01*
X116049Y214195D01*
X114969Y214484D01*
X113850D01*
X112770Y214195D01*
X111801Y213635D01*
X111010Y212845D01*
X110451Y211876D01*
X110161Y210795D01*
Y209677D01*
X110451Y208596D01*
X111010Y207628D01*
X111801Y206837D01*
X112770Y206278D01*
X112880Y206248D01*
Y192283D01*
X112996Y191698D01*
X113328Y191202D01*
X125341Y179189D01*
Y150084D01*
X125048Y149915D01*
X124495Y149362D01*
X124104Y148685D01*
X123902Y147930D01*
Y147149D01*
X124104Y146394D01*
X124495Y145717D01*
X125048Y145164D01*
X125724Y144773D01*
X126479Y144571D01*
X127261D01*
X128016Y144773D01*
X128693Y145164D01*
X129246Y145717D01*
X129636Y146394D01*
X129708Y146659D01*
X130201Y146569D01*
X130134Y145888D01*
X129678Y144386D01*
X128939Y143002D01*
X128002Y141861D01*
X127924Y141809D01*
X123546Y137430D01*
X123493Y137352D01*
X122352Y136416D01*
X120968Y135676D01*
X119467Y135220D01*
X117997Y135076D01*
X117905Y135094D01*
X103356D01*
X103004Y135446D01*
X102327Y135837D01*
X101572Y136039D01*
X100790D01*
X100035Y135837D01*
X99358Y135446D01*
X98806Y134894D01*
X98415Y134217D01*
X98213Y133462D01*
Y132680D01*
X98415Y131925D01*
X98806Y131248D01*
X99158Y130896D01*
Y89970D01*
X98806Y89618D01*
X98415Y88941D01*
X98213Y88186D01*
Y87405D01*
X98415Y86650D01*
X98806Y85973D01*
X99358Y85420D01*
X100035Y85029D01*
X100790Y84827D01*
X101572D01*
X102327Y85029D01*
X103004Y85420D01*
X103557Y85973D01*
X103947Y86650D01*
X104150Y87405D01*
Y88186D01*
X103947Y88941D01*
X103557Y89618D01*
X103204Y89970D01*
Y130896D01*
X103356Y131048D01*
X117905D01*
X117920Y131051D01*
X119786Y131198D01*
X121620Y131638D01*
X123363Y132360D01*
X124971Y133345D01*
X126394Y134561D01*
X126407Y134569D01*
X130785Y138948D01*
X130794Y138960D01*
X132009Y140383D01*
X132994Y141992D01*
X133716Y143734D01*
X134157Y145569D01*
X134304Y147434D01*
X134307Y147449D01*
Y178535D01*
X134304Y178550D01*
X134157Y180416D01*
X133716Y182250D01*
X132994Y183993D01*
X132009Y185601D01*
X130794Y187024D01*
X130785Y187037D01*
X128769Y189053D01*
X128691Y189105D01*
X127754Y190246D01*
X127015Y191630D01*
X126559Y193132D01*
X126414Y194601D01*
X126433Y194693D01*
Y206499D01*
X127018Y206837D01*
X127809Y207628D01*
X128368Y208596D01*
X128657Y209677D01*
Y210795D01*
X128368Y211876D01*
X127809Y212845D01*
X127018Y213635D01*
X126049Y214195D01*
X124969Y214484D01*
D02*
G37*
G36*
X659500Y147276D02*
X657061D01*
X657234Y146630D01*
X657625Y145953D01*
X658177Y145400D01*
X658854Y145009D01*
X659500Y144836D01*
Y147276D01*
D02*
G37*
G36*
X642939D02*
X640500D01*
Y144836D01*
X641146Y145009D01*
X641823Y145400D01*
X642375Y145953D01*
X642766Y146630D01*
X642939Y147276D01*
D02*
G37*
G36*
X639500D02*
X637061D01*
X637234Y146630D01*
X637625Y145953D01*
X638177Y145400D01*
X638854Y145009D01*
X639500Y144836D01*
Y147276D01*
D02*
G37*
G36*
X602939D02*
X600500D01*
Y144836D01*
X601146Y145009D01*
X601823Y145400D01*
X602375Y145953D01*
X602766Y146630D01*
X602939Y147276D01*
D02*
G37*
G36*
X599500D02*
X597061D01*
X597234Y146630D01*
X597625Y145953D01*
X598177Y145400D01*
X598854Y145009D01*
X599500Y144836D01*
Y147276D01*
D02*
G37*
G36*
X582939D02*
X580500D01*
Y144836D01*
X581146Y145009D01*
X581823Y145400D01*
X582375Y145953D01*
X582766Y146630D01*
X582939Y147276D01*
D02*
G37*
G36*
X579500D02*
X577061D01*
X577234Y146630D01*
X577625Y145953D01*
X578177Y145400D01*
X578854Y145009D01*
X579500Y144836D01*
Y147276D01*
D02*
G37*
G36*
X562939D02*
X560500D01*
Y144836D01*
X561146Y145009D01*
X561823Y145400D01*
X562375Y145953D01*
X562766Y146630D01*
X562939Y147276D01*
D02*
G37*
G36*
X559500D02*
X557061D01*
X557234Y146630D01*
X557625Y145953D01*
X558177Y145400D01*
X558854Y145009D01*
X559500Y144836D01*
Y147276D01*
D02*
G37*
G36*
X542939D02*
X540500D01*
Y144836D01*
X541146Y145009D01*
X541823Y145400D01*
X542375Y145953D01*
X542766Y146630D01*
X542939Y147276D01*
D02*
G37*
G36*
X539500D02*
X537061D01*
X537234Y146630D01*
X537625Y145953D01*
X538177Y145400D01*
X538854Y145009D01*
X539500Y144836D01*
Y147276D01*
D02*
G37*
G36*
X522939D02*
X520500D01*
Y144836D01*
X521146Y145009D01*
X521823Y145400D01*
X522375Y145953D01*
X522766Y146630D01*
X522939Y147276D01*
D02*
G37*
G36*
X519500D02*
X517061D01*
X517234Y146630D01*
X517625Y145953D01*
X518177Y145400D01*
X518854Y145009D01*
X519500Y144836D01*
Y147276D01*
D02*
G37*
G36*
X502939D02*
X500500D01*
Y144836D01*
X501146Y145009D01*
X501823Y145400D01*
X502375Y145953D01*
X502766Y146630D01*
X502939Y147276D01*
D02*
G37*
G36*
X499500D02*
X497061D01*
X497234Y146630D01*
X497625Y145953D01*
X498177Y145400D01*
X498854Y145009D01*
X499500Y144836D01*
Y147276D01*
D02*
G37*
G36*
X482939D02*
X480500D01*
Y144836D01*
X481146Y145009D01*
X481823Y145400D01*
X482375Y145953D01*
X482766Y146630D01*
X482939Y147276D01*
D02*
G37*
G36*
X479500D02*
X477061D01*
X477234Y146630D01*
X477625Y145953D01*
X478177Y145400D01*
X478854Y145009D01*
X479500Y144836D01*
Y147276D01*
D02*
G37*
G36*
X462939D02*
X460500D01*
Y144836D01*
X461146Y145009D01*
X461823Y145400D01*
X462375Y145953D01*
X462766Y146630D01*
X462939Y147276D01*
D02*
G37*
G36*
X459500D02*
X457061D01*
X457234Y146630D01*
X457625Y145953D01*
X458177Y145400D01*
X458854Y145009D01*
X459500Y144836D01*
Y147276D01*
D02*
G37*
G36*
X442939D02*
X440500D01*
Y144836D01*
X441146Y145009D01*
X441823Y145400D01*
X442375Y145953D01*
X442766Y146630D01*
X442939Y147276D01*
D02*
G37*
G36*
X439500D02*
X437061D01*
X437234Y146630D01*
X437625Y145953D01*
X438177Y145400D01*
X438854Y145009D01*
X439500Y144836D01*
Y147276D01*
D02*
G37*
G36*
X422939D02*
X420500D01*
Y144836D01*
X421146Y145009D01*
X421823Y145400D01*
X422375Y145953D01*
X422766Y146630D01*
X422939Y147276D01*
D02*
G37*
G36*
X419500D02*
X417061D01*
X417234Y146630D01*
X417625Y145953D01*
X418177Y145400D01*
X418854Y145009D01*
X419500Y144836D01*
Y147276D01*
D02*
G37*
G36*
X402939D02*
X400500D01*
Y144836D01*
X401146Y145009D01*
X401823Y145400D01*
X402375Y145953D01*
X402766Y146630D01*
X402939Y147276D01*
D02*
G37*
G36*
X399500D02*
X397061D01*
X397234Y146630D01*
X397625Y145953D01*
X398177Y145400D01*
X398854Y145009D01*
X399500Y144836D01*
Y147276D01*
D02*
G37*
G36*
X382939D02*
X380500D01*
Y144836D01*
X381146Y145009D01*
X381823Y145400D01*
X382375Y145953D01*
X382766Y146630D01*
X382939Y147276D01*
D02*
G37*
G36*
X379500D02*
X377061D01*
X377234Y146630D01*
X377625Y145953D01*
X378177Y145400D01*
X378854Y145009D01*
X379500Y144836D01*
Y147276D01*
D02*
G37*
G36*
X362939D02*
X360500D01*
Y144836D01*
X361146Y145009D01*
X361823Y145400D01*
X362375Y145953D01*
X362766Y146630D01*
X362939Y147276D01*
D02*
G37*
G36*
X359500D02*
X357061D01*
X357234Y146630D01*
X357625Y145953D01*
X358177Y145400D01*
X358854Y145009D01*
X359500Y144836D01*
Y147276D01*
D02*
G37*
G36*
X342939D02*
X340500D01*
Y144836D01*
X341146Y145009D01*
X341823Y145400D01*
X342375Y145953D01*
X342766Y146630D01*
X342939Y147276D01*
D02*
G37*
G36*
X339500D02*
X337061D01*
X337234Y146630D01*
X337625Y145953D01*
X338177Y145400D01*
X338854Y145009D01*
X339500Y144836D01*
Y147276D01*
D02*
G37*
G36*
X322939D02*
X320500D01*
Y144836D01*
X321146Y145009D01*
X321823Y145400D01*
X322375Y145953D01*
X322766Y146630D01*
X322939Y147276D01*
D02*
G37*
G36*
X319500D02*
X317061D01*
X317234Y146630D01*
X317625Y145953D01*
X318177Y145400D01*
X318854Y145009D01*
X319500Y144836D01*
Y147276D01*
D02*
G37*
G36*
X302939D02*
X300500D01*
Y144836D01*
X301146Y145009D01*
X301823Y145400D01*
X302375Y145953D01*
X302766Y146630D01*
X302939Y147276D01*
D02*
G37*
G36*
X299500D02*
X297061D01*
X297234Y146630D01*
X297625Y145953D01*
X298177Y145400D01*
X298854Y145009D01*
X299500Y144836D01*
Y147276D01*
D02*
G37*
G36*
X282939D02*
X280500D01*
Y144836D01*
X281146Y145009D01*
X281823Y145400D01*
X282375Y145953D01*
X282766Y146630D01*
X282939Y147276D01*
D02*
G37*
G36*
X279500D02*
X277061D01*
X277234Y146630D01*
X277625Y145953D01*
X278177Y145400D01*
X278854Y145009D01*
X279500Y144836D01*
Y147276D01*
D02*
G37*
G36*
X262939D02*
X260500D01*
Y144836D01*
X261146Y145009D01*
X261823Y145400D01*
X262375Y145953D01*
X262766Y146630D01*
X262939Y147276D01*
D02*
G37*
G36*
X259500D02*
X257061D01*
X257234Y146630D01*
X257625Y145953D01*
X258177Y145400D01*
X258854Y145009D01*
X259500Y144836D01*
Y147276D01*
D02*
G37*
G36*
X242939D02*
X240500D01*
Y144836D01*
X241146Y145009D01*
X241823Y145400D01*
X242375Y145953D01*
X242766Y146630D01*
X242939Y147276D01*
D02*
G37*
G36*
X239500D02*
X237061D01*
X237234Y146630D01*
X237625Y145953D01*
X238177Y145400D01*
X238854Y145009D01*
X239500Y144836D01*
Y147276D01*
D02*
G37*
G36*
X222939D02*
X220500D01*
Y144836D01*
X221146Y145009D01*
X221823Y145400D01*
X222375Y145953D01*
X222766Y146630D01*
X222939Y147276D01*
D02*
G37*
G36*
X219500D02*
X217061D01*
X217234Y146630D01*
X217625Y145953D01*
X218177Y145400D01*
X218854Y145009D01*
X219500Y144836D01*
Y147276D01*
D02*
G37*
G36*
X35949Y147276D02*
X32449D01*
Y143776D01*
X32475D01*
X33493Y144048D01*
X34405Y144575D01*
X35150Y145319D01*
X35676Y146232D01*
X35949Y147249D01*
Y147276D01*
D02*
G37*
G36*
X31449D02*
X27949D01*
Y147249D01*
X28221Y146232D01*
X28748Y145319D01*
X29493Y144575D01*
X30405Y144048D01*
X31422Y143776D01*
X31449D01*
Y147276D01*
D02*
G37*
G36*
X25949D02*
X22449D01*
Y143776D01*
X22475D01*
X23493Y144048D01*
X24405Y144575D01*
X25150Y145319D01*
X25676Y146232D01*
X25949Y147249D01*
Y147276D01*
D02*
G37*
G36*
X21449D02*
X17949D01*
Y147249D01*
X18221Y146232D01*
X18748Y145319D01*
X19493Y144575D01*
X20405Y144048D01*
X21422Y143776D01*
X21449D01*
Y147276D01*
D02*
G37*
G36*
X108658Y214484D02*
X100161D01*
Y205988D01*
X102880D01*
Y192835D01*
X102997Y192249D01*
X103328Y191753D01*
X116974Y178107D01*
Y142308D01*
X116681Y142139D01*
X116129Y141586D01*
X115738Y140910D01*
X115535Y140155D01*
Y139373D01*
X115738Y138618D01*
X116129Y137941D01*
X116681Y137388D01*
X117358Y136998D01*
X118113Y136795D01*
X118895D01*
X119650Y136998D01*
X120327Y137388D01*
X120879Y137941D01*
X121270Y138618D01*
X121472Y139373D01*
Y140155D01*
X121270Y140910D01*
X120879Y141586D01*
X120327Y142139D01*
X120033Y142308D01*
Y178740D01*
X119917Y179325D01*
X119585Y179822D01*
X105939Y193468D01*
Y205988D01*
X108658D01*
Y214484D01*
D02*
G37*
G36*
X32475Y141776D02*
X31422D01*
X30405Y141503D01*
X29493Y140976D01*
X28748Y140232D01*
X28221Y139320D01*
X27949Y138302D01*
Y137249D01*
X28221Y136232D01*
X28748Y135319D01*
X29493Y134575D01*
X30405Y134048D01*
X31422Y133776D01*
X32475D01*
X33493Y134048D01*
X34405Y134575D01*
X35150Y135319D01*
X35676Y136232D01*
X35949Y137249D01*
Y138302D01*
X35676Y139320D01*
X35150Y140232D01*
X34405Y140976D01*
X33493Y141503D01*
X32475Y141776D01*
D02*
G37*
G36*
X22475D02*
X21422D01*
X20405Y141503D01*
X19493Y140976D01*
X18748Y140232D01*
X18221Y139320D01*
X17949Y138302D01*
Y137249D01*
X18221Y136232D01*
X18748Y135319D01*
X19493Y134575D01*
X20405Y134048D01*
X21422Y133776D01*
X22475D01*
X23493Y134048D01*
X24405Y134575D01*
X25150Y135319D01*
X25676Y136232D01*
X25949Y137249D01*
Y138302D01*
X25676Y139320D01*
X25150Y140232D01*
X24405Y140976D01*
X23493Y141503D01*
X22475Y141776D01*
D02*
G37*
G36*
X68217Y134042D02*
Y131602D01*
X70656D01*
X70483Y132248D01*
X70092Y132925D01*
X69539Y133478D01*
X68862Y133869D01*
X68217Y134042D01*
D02*
G37*
G36*
X67217D02*
X66571Y133869D01*
X65894Y133478D01*
X65341Y132925D01*
X64950Y132248D01*
X64777Y131602D01*
X67217D01*
Y134042D01*
D02*
G37*
G36*
X70656Y130602D02*
X68217D01*
Y128163D01*
X68862Y128336D01*
X69539Y128727D01*
X70092Y129280D01*
X70483Y129956D01*
X70656Y130602D01*
D02*
G37*
G36*
X67217D02*
X64777D01*
X64950Y129956D01*
X65341Y129280D01*
X65894Y128727D01*
X66571Y128336D01*
X67217Y128163D01*
Y130602D01*
D02*
G37*
G36*
X32475Y131776D02*
X31422D01*
X30405Y131503D01*
X29493Y130976D01*
X28748Y130232D01*
X28221Y129320D01*
X27949Y128302D01*
Y127249D01*
X28221Y126232D01*
X28748Y125320D01*
X29493Y124575D01*
X30405Y124048D01*
X31422Y123776D01*
X32475D01*
X33493Y124048D01*
X34405Y124575D01*
X35150Y125320D01*
X35676Y126232D01*
X35949Y127249D01*
Y128302D01*
X35676Y129320D01*
X35150Y130232D01*
X34405Y130976D01*
X33493Y131503D01*
X32475Y131776D01*
D02*
G37*
G36*
X22475D02*
X21422D01*
X20405Y131503D01*
X19493Y130976D01*
X18748Y130232D01*
X18221Y129320D01*
X17949Y128302D01*
Y127249D01*
X18221Y126232D01*
X18748Y125320D01*
X19493Y124575D01*
X20405Y124048D01*
X21422Y123776D01*
X22475D01*
X23493Y124048D01*
X24405Y124575D01*
X25150Y125320D01*
X25676Y126232D01*
X25949Y127249D01*
Y128302D01*
X25676Y129320D01*
X25150Y130232D01*
X24405Y130976D01*
X23493Y131503D01*
X22475Y131776D01*
D02*
G37*
G36*
X650500Y120164D02*
Y117724D01*
X652939D01*
X652766Y118370D01*
X652375Y119047D01*
X651823Y119600D01*
X651146Y119991D01*
X650500Y120164D01*
D02*
G37*
G36*
X649500D02*
X648854Y119991D01*
X648177Y119600D01*
X647625Y119047D01*
X647234Y118370D01*
X647061Y117724D01*
X649500D01*
Y120164D01*
D02*
G37*
G36*
X630500D02*
Y117724D01*
X632939D01*
X632766Y118370D01*
X632375Y119047D01*
X631823Y119600D01*
X631146Y119991D01*
X630500Y120164D01*
D02*
G37*
G36*
X629500D02*
X628854Y119991D01*
X628177Y119600D01*
X627625Y119047D01*
X627234Y118370D01*
X627061Y117724D01*
X629500D01*
Y120164D01*
D02*
G37*
G36*
X590500D02*
Y117724D01*
X592939D01*
X592766Y118370D01*
X592375Y119047D01*
X591823Y119600D01*
X591146Y119991D01*
X590500Y120164D01*
D02*
G37*
G36*
X589500D02*
X588854Y119991D01*
X588177Y119600D01*
X587625Y119047D01*
X587234Y118370D01*
X587061Y117724D01*
X589500D01*
Y120164D01*
D02*
G37*
G36*
X570500D02*
Y117724D01*
X572939D01*
X572766Y118370D01*
X572375Y119047D01*
X571823Y119600D01*
X571146Y119991D01*
X570500Y120164D01*
D02*
G37*
G36*
X569500D02*
X568854Y119991D01*
X568177Y119600D01*
X567625Y119047D01*
X567234Y118370D01*
X567061Y117724D01*
X569500D01*
Y120164D01*
D02*
G37*
G36*
X550500D02*
Y117724D01*
X552939D01*
X552766Y118370D01*
X552375Y119047D01*
X551823Y119600D01*
X551146Y119991D01*
X550500Y120164D01*
D02*
G37*
G36*
X549500D02*
X548854Y119991D01*
X548177Y119600D01*
X547625Y119047D01*
X547234Y118370D01*
X547061Y117724D01*
X549500D01*
Y120164D01*
D02*
G37*
G36*
X530500D02*
Y117724D01*
X532939D01*
X532766Y118370D01*
X532375Y119047D01*
X531823Y119600D01*
X531146Y119991D01*
X530500Y120164D01*
D02*
G37*
G36*
X529500D02*
X528854Y119991D01*
X528177Y119600D01*
X527625Y119047D01*
X527234Y118370D01*
X527061Y117724D01*
X529500D01*
Y120164D01*
D02*
G37*
G36*
X510500D02*
Y117724D01*
X512939D01*
X512766Y118370D01*
X512375Y119047D01*
X511823Y119600D01*
X511146Y119991D01*
X510500Y120164D01*
D02*
G37*
G36*
X509500D02*
X508854Y119991D01*
X508177Y119600D01*
X507625Y119047D01*
X507234Y118370D01*
X507061Y117724D01*
X509500D01*
Y120164D01*
D02*
G37*
G36*
X490500D02*
Y117724D01*
X492939D01*
X492766Y118370D01*
X492375Y119047D01*
X491823Y119600D01*
X491146Y119991D01*
X490500Y120164D01*
D02*
G37*
G36*
X489500D02*
X488854Y119991D01*
X488177Y119600D01*
X487625Y119047D01*
X487234Y118370D01*
X487061Y117724D01*
X489500D01*
Y120164D01*
D02*
G37*
G36*
X470500D02*
Y117724D01*
X472939D01*
X472766Y118370D01*
X472375Y119047D01*
X471823Y119600D01*
X471146Y119991D01*
X470500Y120164D01*
D02*
G37*
G36*
X469500D02*
X468854Y119991D01*
X468177Y119600D01*
X467625Y119047D01*
X467234Y118370D01*
X467061Y117724D01*
X469500D01*
Y120164D01*
D02*
G37*
G36*
X450500D02*
Y117724D01*
X452939D01*
X452766Y118370D01*
X452375Y119047D01*
X451823Y119600D01*
X451146Y119991D01*
X450500Y120164D01*
D02*
G37*
G36*
X449500D02*
X448854Y119991D01*
X448177Y119600D01*
X447625Y119047D01*
X447234Y118370D01*
X447061Y117724D01*
X449500D01*
Y120164D01*
D02*
G37*
G36*
X430500D02*
Y117724D01*
X432939D01*
X432766Y118370D01*
X432375Y119047D01*
X431823Y119600D01*
X431146Y119991D01*
X430500Y120164D01*
D02*
G37*
G36*
X429500D02*
X428854Y119991D01*
X428177Y119600D01*
X427625Y119047D01*
X427234Y118370D01*
X427061Y117724D01*
X429500D01*
Y120164D01*
D02*
G37*
G36*
X410500D02*
Y117724D01*
X412939D01*
X412766Y118370D01*
X412375Y119047D01*
X411823Y119600D01*
X411146Y119991D01*
X410500Y120164D01*
D02*
G37*
G36*
X409500D02*
X408854Y119991D01*
X408177Y119600D01*
X407625Y119047D01*
X407234Y118370D01*
X407061Y117724D01*
X409500D01*
Y120164D01*
D02*
G37*
G36*
X390500D02*
Y117724D01*
X392939D01*
X392766Y118370D01*
X392375Y119047D01*
X391823Y119600D01*
X391146Y119991D01*
X390500Y120164D01*
D02*
G37*
G36*
X389500D02*
X388854Y119991D01*
X388177Y119600D01*
X387625Y119047D01*
X387234Y118370D01*
X387061Y117724D01*
X389500D01*
Y120164D01*
D02*
G37*
G36*
X370500D02*
Y117724D01*
X372939D01*
X372766Y118370D01*
X372375Y119047D01*
X371823Y119600D01*
X371146Y119991D01*
X370500Y120164D01*
D02*
G37*
G36*
X369500D02*
X368854Y119991D01*
X368177Y119600D01*
X367625Y119047D01*
X367234Y118370D01*
X367061Y117724D01*
X369500D01*
Y120164D01*
D02*
G37*
G36*
X350500D02*
Y117724D01*
X352939D01*
X352766Y118370D01*
X352375Y119047D01*
X351823Y119600D01*
X351146Y119991D01*
X350500Y120164D01*
D02*
G37*
G36*
X349500D02*
X348854Y119991D01*
X348177Y119600D01*
X347625Y119047D01*
X347234Y118370D01*
X347061Y117724D01*
X349500D01*
Y120164D01*
D02*
G37*
G36*
X330500D02*
Y117724D01*
X332939D01*
X332766Y118370D01*
X332375Y119047D01*
X331823Y119600D01*
X331146Y119991D01*
X330500Y120164D01*
D02*
G37*
G36*
X329500D02*
X328854Y119991D01*
X328177Y119600D01*
X327625Y119047D01*
X327234Y118370D01*
X327061Y117724D01*
X329500D01*
Y120164D01*
D02*
G37*
G36*
X310500D02*
Y117724D01*
X312939D01*
X312766Y118370D01*
X312375Y119047D01*
X311823Y119600D01*
X311146Y119991D01*
X310500Y120164D01*
D02*
G37*
G36*
X309500D02*
X308854Y119991D01*
X308177Y119600D01*
X307625Y119047D01*
X307234Y118370D01*
X307061Y117724D01*
X309500D01*
Y120164D01*
D02*
G37*
G36*
X290500D02*
Y117724D01*
X292939D01*
X292766Y118370D01*
X292375Y119047D01*
X291823Y119600D01*
X291146Y119991D01*
X290500Y120164D01*
D02*
G37*
G36*
X289500D02*
X288854Y119991D01*
X288177Y119600D01*
X287625Y119047D01*
X287234Y118370D01*
X287061Y117724D01*
X289500D01*
Y120164D01*
D02*
G37*
G36*
X270500D02*
Y117724D01*
X272939D01*
X272766Y118370D01*
X272375Y119047D01*
X271823Y119600D01*
X271146Y119991D01*
X270500Y120164D01*
D02*
G37*
G36*
X269500D02*
X268854Y119991D01*
X268177Y119600D01*
X267625Y119047D01*
X267234Y118370D01*
X267061Y117724D01*
X269500D01*
Y120164D01*
D02*
G37*
G36*
X250500D02*
Y117724D01*
X252939D01*
X252766Y118370D01*
X252375Y119047D01*
X251823Y119600D01*
X251146Y119991D01*
X250500Y120164D01*
D02*
G37*
G36*
X249500D02*
X248854Y119991D01*
X248177Y119600D01*
X247625Y119047D01*
X247234Y118370D01*
X247061Y117724D01*
X249500D01*
Y120164D01*
D02*
G37*
G36*
X59450Y155528D02*
X58660D01*
X57931Y155226D01*
X57373Y154667D01*
X57071Y153938D01*
Y153577D01*
X56794Y153253D01*
X55848Y151709D01*
X55155Y150037D01*
X54733Y148277D01*
X54591Y146472D01*
X54597D01*
Y124976D01*
X54713Y124391D01*
X55045Y123895D01*
X55102Y123856D01*
X56115Y122622D01*
X56900Y121154D01*
X57383Y119562D01*
X57430Y119086D01*
X57373Y119029D01*
X57071Y118300D01*
Y117510D01*
X57373Y116781D01*
X57931Y116223D01*
X58660Y115921D01*
X59450D01*
X60179Y116223D01*
X60737Y116781D01*
X61039Y117510D01*
Y118300D01*
X60737Y119029D01*
X60482Y119284D01*
X60449Y119710D01*
X60026Y121470D01*
X59333Y123142D01*
X58388Y124686D01*
X57656Y125543D01*
Y146472D01*
X57642Y146540D01*
X57798Y148129D01*
X58282Y149722D01*
X59066Y151189D01*
X59369Y151559D01*
X59450D01*
X60179Y151861D01*
X60737Y152419D01*
X61039Y153149D01*
Y153938D01*
X60737Y154667D01*
X60179Y155226D01*
X59450Y155528D01*
D02*
G37*
G36*
X212939Y116724D02*
X210500D01*
Y114285D01*
X211146Y114458D01*
X211823Y114849D01*
X212375Y115402D01*
X212766Y116079D01*
X212939Y116724D01*
D02*
G37*
G36*
X209500D02*
X207061D01*
X207234Y116079D01*
X207625Y115402D01*
X208177Y114849D01*
X208854Y114458D01*
X209500Y114285D01*
Y116724D01*
D02*
G37*
G36*
X652939Y116724D02*
X650500D01*
Y114285D01*
X651146Y114458D01*
X651823Y114849D01*
X652375Y115402D01*
X652766Y116079D01*
X652939Y116724D01*
D02*
G37*
G36*
X649500D02*
X647061D01*
X647234Y116079D01*
X647625Y115402D01*
X648177Y114849D01*
X648854Y114458D01*
X649500Y114285D01*
Y116724D01*
D02*
G37*
G36*
X632939D02*
X630500D01*
Y114285D01*
X631146Y114458D01*
X631823Y114849D01*
X632375Y115402D01*
X632766Y116079D01*
X632939Y116724D01*
D02*
G37*
G36*
X629500D02*
X627061D01*
X627234Y116079D01*
X627625Y115402D01*
X628177Y114849D01*
X628854Y114458D01*
X629500Y114285D01*
Y116724D01*
D02*
G37*
G36*
X592939D02*
X590500D01*
Y114285D01*
X591146Y114458D01*
X591823Y114849D01*
X592375Y115402D01*
X592766Y116079D01*
X592939Y116724D01*
D02*
G37*
G36*
X589500D02*
X587061D01*
X587234Y116079D01*
X587625Y115402D01*
X588177Y114849D01*
X588854Y114458D01*
X589500Y114285D01*
Y116724D01*
D02*
G37*
G36*
X572939D02*
X570500D01*
Y114285D01*
X571146Y114458D01*
X571823Y114849D01*
X572375Y115402D01*
X572766Y116079D01*
X572939Y116724D01*
D02*
G37*
G36*
X569500D02*
X567061D01*
X567234Y116079D01*
X567625Y115402D01*
X568177Y114849D01*
X568854Y114458D01*
X569500Y114285D01*
Y116724D01*
D02*
G37*
G36*
X552939D02*
X550500D01*
Y114285D01*
X551146Y114458D01*
X551823Y114849D01*
X552375Y115402D01*
X552766Y116079D01*
X552939Y116724D01*
D02*
G37*
G36*
X549500D02*
X547061D01*
X547234Y116079D01*
X547625Y115402D01*
X548177Y114849D01*
X548854Y114458D01*
X549500Y114285D01*
Y116724D01*
D02*
G37*
G36*
X532939D02*
X530500D01*
Y114285D01*
X531146Y114458D01*
X531823Y114849D01*
X532375Y115402D01*
X532766Y116079D01*
X532939Y116724D01*
D02*
G37*
G36*
X529500D02*
X527061D01*
X527234Y116079D01*
X527625Y115402D01*
X528177Y114849D01*
X528854Y114458D01*
X529500Y114285D01*
Y116724D01*
D02*
G37*
G36*
X512939D02*
X510500D01*
Y114285D01*
X511146Y114458D01*
X511823Y114849D01*
X512375Y115402D01*
X512766Y116079D01*
X512939Y116724D01*
D02*
G37*
G36*
X509500D02*
X507061D01*
X507234Y116079D01*
X507625Y115402D01*
X508177Y114849D01*
X508854Y114458D01*
X509500Y114285D01*
Y116724D01*
D02*
G37*
G36*
X492939D02*
X490500D01*
Y114285D01*
X491146Y114458D01*
X491823Y114849D01*
X492375Y115402D01*
X492766Y116079D01*
X492939Y116724D01*
D02*
G37*
G36*
X489500D02*
X487061D01*
X487234Y116079D01*
X487625Y115402D01*
X488177Y114849D01*
X488854Y114458D01*
X489500Y114285D01*
Y116724D01*
D02*
G37*
G36*
X472939D02*
X470500D01*
Y114285D01*
X471146Y114458D01*
X471823Y114849D01*
X472375Y115402D01*
X472766Y116079D01*
X472939Y116724D01*
D02*
G37*
G36*
X469500D02*
X467061D01*
X467234Y116079D01*
X467625Y115402D01*
X468177Y114849D01*
X468854Y114458D01*
X469500Y114285D01*
Y116724D01*
D02*
G37*
G36*
X452939D02*
X450500D01*
Y114285D01*
X451146Y114458D01*
X451823Y114849D01*
X452375Y115402D01*
X452766Y116079D01*
X452939Y116724D01*
D02*
G37*
G36*
X449500D02*
X447061D01*
X447234Y116079D01*
X447625Y115402D01*
X448177Y114849D01*
X448854Y114458D01*
X449500Y114285D01*
Y116724D01*
D02*
G37*
G36*
X432939D02*
X430500D01*
Y114285D01*
X431146Y114458D01*
X431823Y114849D01*
X432375Y115402D01*
X432766Y116079D01*
X432939Y116724D01*
D02*
G37*
G36*
X429500D02*
X427061D01*
X427234Y116079D01*
X427625Y115402D01*
X428177Y114849D01*
X428854Y114458D01*
X429500Y114285D01*
Y116724D01*
D02*
G37*
G36*
X412939D02*
X410500D01*
Y114285D01*
X411146Y114458D01*
X411823Y114849D01*
X412375Y115402D01*
X412766Y116079D01*
X412939Y116724D01*
D02*
G37*
G36*
X409500D02*
X407061D01*
X407234Y116079D01*
X407625Y115402D01*
X408177Y114849D01*
X408854Y114458D01*
X409500Y114285D01*
Y116724D01*
D02*
G37*
G36*
X392939D02*
X390500D01*
Y114285D01*
X391146Y114458D01*
X391823Y114849D01*
X392375Y115402D01*
X392766Y116079D01*
X392939Y116724D01*
D02*
G37*
G36*
X389500D02*
X387061D01*
X387234Y116079D01*
X387625Y115402D01*
X388177Y114849D01*
X388854Y114458D01*
X389500Y114285D01*
Y116724D01*
D02*
G37*
G36*
X372939D02*
X370500D01*
Y114285D01*
X371146Y114458D01*
X371823Y114849D01*
X372375Y115402D01*
X372766Y116079D01*
X372939Y116724D01*
D02*
G37*
G36*
X369500D02*
X367061D01*
X367234Y116079D01*
X367625Y115402D01*
X368177Y114849D01*
X368854Y114458D01*
X369500Y114285D01*
Y116724D01*
D02*
G37*
G36*
X352939D02*
X350500D01*
Y114285D01*
X351146Y114458D01*
X351823Y114849D01*
X352375Y115402D01*
X352766Y116079D01*
X352939Y116724D01*
D02*
G37*
G36*
X349500D02*
X347061D01*
X347234Y116079D01*
X347625Y115402D01*
X348177Y114849D01*
X348854Y114458D01*
X349500Y114285D01*
Y116724D01*
D02*
G37*
G36*
X332939D02*
X330500D01*
Y114285D01*
X331146Y114458D01*
X331823Y114849D01*
X332375Y115402D01*
X332766Y116079D01*
X332939Y116724D01*
D02*
G37*
G36*
X329500D02*
X327061D01*
X327234Y116079D01*
X327625Y115402D01*
X328177Y114849D01*
X328854Y114458D01*
X329500Y114285D01*
Y116724D01*
D02*
G37*
G36*
X312939D02*
X310500D01*
Y114285D01*
X311146Y114458D01*
X311823Y114849D01*
X312375Y115402D01*
X312766Y116079D01*
X312939Y116724D01*
D02*
G37*
G36*
X309500D02*
X307061D01*
X307234Y116079D01*
X307625Y115402D01*
X308177Y114849D01*
X308854Y114458D01*
X309500Y114285D01*
Y116724D01*
D02*
G37*
G36*
X292939D02*
X290500D01*
Y114285D01*
X291146Y114458D01*
X291823Y114849D01*
X292375Y115402D01*
X292766Y116079D01*
X292939Y116724D01*
D02*
G37*
G36*
X289500D02*
X287061D01*
X287234Y116079D01*
X287625Y115402D01*
X288177Y114849D01*
X288854Y114458D01*
X289500Y114285D01*
Y116724D01*
D02*
G37*
G36*
X272939D02*
X270500D01*
Y114285D01*
X271146Y114458D01*
X271823Y114849D01*
X272375Y115402D01*
X272766Y116079D01*
X272939Y116724D01*
D02*
G37*
G36*
X269500D02*
X267061D01*
X267234Y116079D01*
X267625Y115402D01*
X268177Y114849D01*
X268854Y114458D01*
X269500Y114285D01*
Y116724D01*
D02*
G37*
G36*
X252939D02*
X250500D01*
Y114285D01*
X251146Y114458D01*
X251823Y114849D01*
X252375Y115402D01*
X252766Y116079D01*
X252939Y116724D01*
D02*
G37*
G36*
X249500D02*
X247061D01*
X247234Y116079D01*
X247625Y115402D01*
X248177Y114849D01*
X248854Y114458D01*
X249500Y114285D01*
Y116724D01*
D02*
G37*
G36*
X232939D02*
X230500D01*
Y114285D01*
X231146Y114458D01*
X231823Y114849D01*
X232375Y115402D01*
X232766Y116079D01*
X232939Y116724D01*
D02*
G37*
G36*
X229500D02*
X227061D01*
X227234Y116079D01*
X227625Y115402D01*
X228177Y114849D01*
X228854Y114458D01*
X229500Y114285D01*
Y116724D01*
D02*
G37*
G36*
X32475Y121776D02*
X31422D01*
X30405Y121503D01*
X29493Y120976D01*
X28748Y120232D01*
X28221Y119319D01*
X27949Y118302D01*
Y117249D01*
X28221Y116232D01*
X28748Y115320D01*
X29493Y114575D01*
X30405Y114048D01*
X31422Y113776D01*
X32475D01*
X33493Y114048D01*
X34405Y114575D01*
X35150Y115320D01*
X35676Y116232D01*
X35949Y117249D01*
Y118302D01*
X35676Y119319D01*
X35150Y120232D01*
X34405Y120976D01*
X33493Y121503D01*
X32475Y121776D01*
D02*
G37*
G36*
X22475D02*
X21422D01*
X20405Y121503D01*
X19493Y120976D01*
X18748Y120232D01*
X18221Y119319D01*
X17949Y118302D01*
Y117249D01*
X18221Y116232D01*
X18748Y115320D01*
X19493Y114575D01*
X20405Y114048D01*
X21422Y113776D01*
X22475D01*
X23493Y114048D01*
X24405Y114575D01*
X25150Y115320D01*
X25676Y116232D01*
X25949Y117249D01*
Y118302D01*
X25676Y119319D01*
X25150Y120232D01*
X24405Y120976D01*
X23493Y121503D01*
X22475Y121776D01*
D02*
G37*
G36*
X32475Y111776D02*
X31422D01*
X30405Y111503D01*
X29493Y110976D01*
X28748Y110232D01*
X28221Y109319D01*
X27949Y108302D01*
Y107249D01*
X28221Y106232D01*
X28748Y105319D01*
X29493Y104575D01*
X30405Y104048D01*
X31422Y103776D01*
X32475D01*
X33493Y104048D01*
X34405Y104575D01*
X35150Y105319D01*
X35676Y106232D01*
X35949Y107249D01*
Y108302D01*
X35676Y109319D01*
X35150Y110232D01*
X34405Y110976D01*
X33493Y111503D01*
X32475Y111776D01*
D02*
G37*
G36*
X22475D02*
X21422D01*
X20405Y111503D01*
X19493Y110976D01*
X18748Y110232D01*
X18221Y109319D01*
X17949Y108302D01*
Y107249D01*
X18221Y106232D01*
X18748Y105319D01*
X19493Y104575D01*
X20405Y104048D01*
X21422Y103776D01*
X22475D01*
X23493Y104048D01*
X24405Y104575D01*
X25150Y105319D01*
X25676Y106232D01*
X25949Y107249D01*
Y108302D01*
X25676Y109319D01*
X25150Y110232D01*
X24405Y110976D01*
X23493Y111503D01*
X22475Y111776D01*
D02*
G37*
G36*
X56012Y104908D02*
Y102469D01*
X58451D01*
X58278Y103114D01*
X57887Y103791D01*
X57335Y104344D01*
X56658Y104735D01*
X56012Y104908D01*
D02*
G37*
G36*
X55012D02*
X54366Y104735D01*
X53689Y104344D01*
X53136Y103791D01*
X52746Y103114D01*
X52573Y102469D01*
X55012D01*
Y104908D01*
D02*
G37*
G36*
X58451Y101469D02*
X56012D01*
Y99029D01*
X56658Y99202D01*
X57335Y99593D01*
X57887Y100146D01*
X58278Y100823D01*
X58451Y101469D01*
D02*
G37*
G36*
X55012D02*
X52573D01*
X52746Y100823D01*
X53136Y100146D01*
X53689Y99593D01*
X54366Y99202D01*
X55012Y99029D01*
Y101469D01*
D02*
G37*
G36*
X77272Y98215D02*
Y95776D01*
X79711D01*
X79538Y96421D01*
X79147Y97098D01*
X78594Y97651D01*
X77917Y98042D01*
X77272Y98215D01*
D02*
G37*
G36*
X76272D02*
X75626Y98042D01*
X74949Y97651D01*
X74396Y97098D01*
X74005Y96421D01*
X73832Y95776D01*
X76272D01*
Y98215D01*
D02*
G37*
G36*
X32475Y101776D02*
X31422D01*
X30405Y101503D01*
X29493Y100976D01*
X28748Y100232D01*
X28221Y99319D01*
X27949Y98302D01*
Y97249D01*
X28221Y96232D01*
X28748Y95319D01*
X29493Y94575D01*
X30405Y94048D01*
X31422Y93776D01*
X32475D01*
X33493Y94048D01*
X34405Y94575D01*
X35150Y95319D01*
X35676Y96232D01*
X35949Y97249D01*
Y98302D01*
X35676Y99319D01*
X35150Y100232D01*
X34405Y100976D01*
X33493Y101503D01*
X32475Y101776D01*
D02*
G37*
G36*
X22475D02*
X21422D01*
X20405Y101503D01*
X19493Y100976D01*
X18748Y100232D01*
X18221Y99319D01*
X17949Y98302D01*
Y97249D01*
X18221Y96232D01*
X18748Y95319D01*
X19493Y94575D01*
X20405Y94048D01*
X21422Y93776D01*
X22475D01*
X23493Y94048D01*
X24405Y94575D01*
X25150Y95319D01*
X25676Y96232D01*
X25949Y97249D01*
Y98302D01*
X25676Y99319D01*
X25150Y100232D01*
X24405Y100976D01*
X23493Y101503D01*
X22475Y101776D01*
D02*
G37*
G36*
X79711Y94776D02*
X77272D01*
Y92336D01*
X77917Y92509D01*
X78594Y92900D01*
X79147Y93453D01*
X79538Y94130D01*
X79711Y94776D01*
D02*
G37*
G36*
X76272D02*
X73832D01*
X74005Y94130D01*
X74396Y93453D01*
X74949Y92900D01*
X75626Y92509D01*
X76272Y92336D01*
Y94776D01*
D02*
G37*
G36*
X22475Y91776D02*
X22449D01*
Y88276D01*
X25949D01*
Y88302D01*
X25676Y89319D01*
X25150Y90232D01*
X24405Y90976D01*
X23493Y91503D01*
X22475Y91776D01*
D02*
G37*
G36*
X21449D02*
X21422D01*
X20405Y91503D01*
X19493Y90976D01*
X18748Y90232D01*
X18221Y89319D01*
X17949Y88302D01*
Y88276D01*
X21449D01*
Y91776D01*
D02*
G37*
G36*
X32475D02*
X31422D01*
X30405Y91503D01*
X29493Y90976D01*
X28748Y90232D01*
X28221Y89319D01*
X27949Y88302D01*
Y87249D01*
X28221Y86232D01*
X28748Y85320D01*
X29493Y84575D01*
X30405Y84048D01*
X31422Y83776D01*
X32475D01*
X33493Y84048D01*
X34405Y84575D01*
X35150Y85320D01*
X35676Y86232D01*
X35949Y87249D01*
Y88302D01*
X35676Y89319D01*
X35150Y90232D01*
X34405Y90976D01*
X33493Y91503D01*
X32475Y91776D01*
D02*
G37*
G36*
X25949Y87276D02*
X22449D01*
Y83776D01*
X22475D01*
X23493Y84048D01*
X24405Y84575D01*
X25150Y85320D01*
X25676Y86232D01*
X25949Y87249D01*
Y87276D01*
D02*
G37*
G36*
X21449D02*
X17949D01*
Y87249D01*
X18221Y86232D01*
X18748Y85320D01*
X19493Y84575D01*
X20405Y84048D01*
X21422Y83776D01*
X21449D01*
Y87276D01*
D02*
G37*
G36*
X32475Y81776D02*
X32449D01*
Y78276D01*
X35949D01*
Y78302D01*
X35676Y79320D01*
X35150Y80232D01*
X34405Y80976D01*
X33493Y81503D01*
X32475Y81776D01*
D02*
G37*
G36*
X22475D02*
X22449D01*
Y78276D01*
X25949D01*
Y78302D01*
X25676Y79320D01*
X25150Y80232D01*
X24405Y80976D01*
X23493Y81503D01*
X22475Y81776D01*
D02*
G37*
G36*
X31449D02*
X31422D01*
X30405Y81503D01*
X29493Y80976D01*
X28748Y80232D01*
X28221Y79320D01*
X27949Y78302D01*
Y78276D01*
X31449D01*
Y81776D01*
D02*
G37*
G36*
X21449D02*
X21422D01*
X20405Y81503D01*
X19493Y80976D01*
X18748Y80232D01*
X18221Y79320D01*
X17949Y78302D01*
Y78276D01*
X21449D01*
Y81776D01*
D02*
G37*
G36*
X35949Y77276D02*
X32449D01*
Y73776D01*
X32475D01*
X33493Y74048D01*
X34405Y74575D01*
X35150Y75319D01*
X35676Y76232D01*
X35949Y77249D01*
Y77276D01*
D02*
G37*
G36*
X31449D02*
X27949D01*
Y77249D01*
X28221Y76232D01*
X28748Y75319D01*
X29493Y74575D01*
X30405Y74048D01*
X31422Y73776D01*
X31449D01*
Y77276D01*
D02*
G37*
G36*
X25949D02*
X22449D01*
Y73776D01*
X22475D01*
X23493Y74048D01*
X24405Y74575D01*
X25150Y75319D01*
X25676Y76232D01*
X25949Y77249D01*
Y77276D01*
D02*
G37*
G36*
X21449D02*
X17949D01*
Y77249D01*
X18221Y76232D01*
X18748Y75319D01*
X19493Y74575D01*
X20405Y74048D01*
X21422Y73776D01*
X21449D01*
Y77276D01*
D02*
G37*
G36*
X104437Y76168D02*
Y73728D01*
X106876D01*
X106703Y74374D01*
X106312Y75051D01*
X105760Y75604D01*
X105083Y75995D01*
X104437Y76168D01*
D02*
G37*
G36*
X103437D02*
X102791Y75995D01*
X102114Y75604D01*
X101561Y75051D01*
X101171Y74374D01*
X100998Y73728D01*
X103437D01*
Y76168D01*
D02*
G37*
G36*
X46563Y74986D02*
Y72547D01*
X49002D01*
X48829Y73193D01*
X48438Y73870D01*
X47886Y74423D01*
X47209Y74813D01*
X46563Y74986D01*
D02*
G37*
G36*
X45563D02*
X44917Y74813D01*
X44240Y74423D01*
X43688Y73870D01*
X43297Y73193D01*
X43124Y72547D01*
X45563D01*
Y74986D01*
D02*
G37*
G36*
X106876Y72728D02*
X104437D01*
Y70289D01*
X105083Y70462D01*
X105760Y70853D01*
X106312Y71406D01*
X106703Y72083D01*
X106876Y72728D01*
D02*
G37*
G36*
X103437D02*
X100998D01*
X101171Y72083D01*
X101561Y71406D01*
X102114Y70853D01*
X102791Y70462D01*
X103437Y70289D01*
Y72728D01*
D02*
G37*
G36*
X49002Y71547D02*
X46563D01*
Y69108D01*
X47209Y69281D01*
X47886Y69672D01*
X48438Y70224D01*
X48829Y70901D01*
X49002Y71547D01*
D02*
G37*
G36*
X45563D02*
X43124D01*
X43297Y70901D01*
X43688Y70224D01*
X44240Y69672D01*
X44917Y69281D01*
X45563Y69108D01*
Y71547D01*
D02*
G37*
G36*
X32475Y71776D02*
X32449D01*
Y68276D01*
X35949D01*
Y68302D01*
X35676Y69319D01*
X35150Y70232D01*
X34405Y70976D01*
X33493Y71503D01*
X32475Y71776D01*
D02*
G37*
G36*
X22475D02*
X22449D01*
Y68276D01*
X25949D01*
Y68302D01*
X25676Y69319D01*
X25150Y70232D01*
X24405Y70976D01*
X23493Y71503D01*
X22475Y71776D01*
D02*
G37*
G36*
X31449D02*
X31422D01*
X30405Y71503D01*
X29493Y70976D01*
X28748Y70232D01*
X28221Y69319D01*
X27949Y68302D01*
Y68276D01*
X31449D01*
Y71776D01*
D02*
G37*
G36*
X21449D02*
X21422D01*
X20405Y71503D01*
X19493Y70976D01*
X18748Y70232D01*
X18221Y69319D01*
X17949Y68302D01*
Y68276D01*
X21449D01*
Y71776D01*
D02*
G37*
G36*
X103650Y67506D02*
Y65067D01*
X106089D01*
X105916Y65713D01*
X105525Y66390D01*
X104972Y66942D01*
X104296Y67333D01*
X103650Y67506D01*
D02*
G37*
G36*
X102650D02*
X102004Y67333D01*
X101327Y66942D01*
X100774Y66390D01*
X100383Y65713D01*
X100210Y65067D01*
X102650D01*
Y67506D01*
D02*
G37*
G36*
X35949Y67276D02*
X32449D01*
Y63776D01*
X32475D01*
X33493Y64048D01*
X34405Y64575D01*
X35150Y65320D01*
X35676Y66232D01*
X35949Y67249D01*
Y67276D01*
D02*
G37*
G36*
X31449D02*
X27949D01*
Y67249D01*
X28221Y66232D01*
X28748Y65320D01*
X29493Y64575D01*
X30405Y64048D01*
X31422Y63776D01*
X31449D01*
Y67276D01*
D02*
G37*
G36*
X25949D02*
X22449D01*
Y63776D01*
X22475D01*
X23493Y64048D01*
X24405Y64575D01*
X25150Y65320D01*
X25676Y66232D01*
X25949Y67249D01*
Y67276D01*
D02*
G37*
G36*
X21449D02*
X17949D01*
Y67249D01*
X18221Y66232D01*
X18748Y65320D01*
X19493Y64575D01*
X20405Y64048D01*
X21422Y63776D01*
X21449D01*
Y67276D01*
D02*
G37*
G36*
X106089Y64067D02*
X103650D01*
Y61628D01*
X104296Y61801D01*
X104972Y62191D01*
X105525Y62744D01*
X105916Y63421D01*
X106089Y64067D01*
D02*
G37*
G36*
X102650D02*
X100210D01*
X100383Y63421D01*
X100774Y62744D01*
X101327Y62191D01*
X102004Y61801D01*
X102650Y61628D01*
Y64067D01*
D02*
G37*
G36*
X32475Y61776D02*
X32449D01*
Y58276D01*
X35949D01*
Y58302D01*
X35676Y59320D01*
X35150Y60232D01*
X34405Y60976D01*
X33493Y61503D01*
X32475Y61776D01*
D02*
G37*
G36*
X22475D02*
X22449D01*
Y58276D01*
X25949D01*
Y58302D01*
X25676Y59320D01*
X25150Y60232D01*
X24405Y60976D01*
X23493Y61503D01*
X22475Y61776D01*
D02*
G37*
G36*
X31449D02*
X31422D01*
X30405Y61503D01*
X29493Y60976D01*
X28748Y60232D01*
X28221Y59320D01*
X27949Y58302D01*
Y58276D01*
X31449D01*
Y61776D01*
D02*
G37*
G36*
X21449D02*
X21422D01*
X20405Y61503D01*
X19493Y60976D01*
X18748Y60232D01*
X18221Y59320D01*
X17949Y58302D01*
Y58276D01*
X21449D01*
Y61776D01*
D02*
G37*
G36*
X35949Y57276D02*
X32449D01*
Y53776D01*
X32475D01*
X33493Y54048D01*
X34405Y54575D01*
X35150Y55319D01*
X35676Y56232D01*
X35949Y57249D01*
Y57276D01*
D02*
G37*
G36*
X31449D02*
X27949D01*
Y57249D01*
X28221Y56232D01*
X28748Y55319D01*
X29493Y54575D01*
X30405Y54048D01*
X31422Y53776D01*
X31449D01*
Y57276D01*
D02*
G37*
G36*
X25949D02*
X22449D01*
Y53776D01*
X22475D01*
X23493Y54048D01*
X24405Y54575D01*
X25150Y55319D01*
X25676Y56232D01*
X25949Y57249D01*
Y57276D01*
D02*
G37*
G36*
X21449D02*
X17949D01*
Y57249D01*
X18221Y56232D01*
X18748Y55319D01*
X19493Y54575D01*
X20405Y54048D01*
X21422Y53776D01*
X21449D01*
Y57276D01*
D02*
G37*
G36*
X175000Y58430D02*
X173355Y58268D01*
X171774Y57789D01*
X170316Y57010D01*
X169039Y55961D01*
X167990Y54684D01*
X167211Y53226D01*
X166732Y51645D01*
X166570Y50000D01*
X166732Y48355D01*
X167211Y46774D01*
X167990Y45316D01*
X169039Y44039D01*
X170316Y42990D01*
X171774Y42211D01*
X173355Y41732D01*
X175000Y41570D01*
X176645Y41732D01*
X178226Y42211D01*
X179684Y42990D01*
X180961Y44039D01*
X182010Y45316D01*
X182789Y46774D01*
X183268Y48355D01*
X183430Y50000D01*
X183268Y51645D01*
X182789Y53226D01*
X182010Y54684D01*
X180961Y55961D01*
X179684Y57010D01*
X178226Y57789D01*
X176645Y58268D01*
X175000Y58430D01*
D02*
G37*
G36*
X12587Y46650D02*
X12213D01*
Y38276D01*
X20587D01*
Y38650D01*
X20246Y40364D01*
X19577Y41979D01*
X18606Y43433D01*
X17369Y44668D01*
X15916Y45640D01*
X14301Y46309D01*
X12587Y46650D01*
D02*
G37*
G36*
X47350Y37028D02*
Y34589D01*
X49790D01*
X49617Y35234D01*
X49226Y35911D01*
X48673Y36464D01*
X47996Y36855D01*
X47350Y37028D01*
D02*
G37*
G36*
X46350D02*
X45704Y36855D01*
X45028Y36464D01*
X44475Y35911D01*
X44084Y35234D01*
X43911Y34589D01*
X46350D01*
Y37028D01*
D02*
G37*
G36*
X49790Y33589D02*
X47350D01*
Y31149D01*
X47996Y31323D01*
X48673Y31713D01*
X49226Y32266D01*
X49617Y32943D01*
X49790Y33589D01*
D02*
G37*
G36*
X46350D02*
X43911D01*
X44084Y32943D01*
X44475Y32266D01*
X45028Y31713D01*
X45704Y31323D01*
X46350Y31149D01*
Y33589D01*
D02*
G37*
G36*
X20587Y37276D02*
X12213D01*
Y28902D01*
X12587D01*
X14301Y29243D01*
X15916Y29912D01*
X17369Y30883D01*
X18606Y32119D01*
X19577Y33572D01*
X20246Y35187D01*
X20587Y36902D01*
Y37276D01*
D02*
G37*
G36*
X47500Y29346D02*
X47350D01*
Y24909D01*
X51787D01*
Y25059D01*
X51451Y26315D01*
X50801Y27441D01*
X49882Y28360D01*
X48756Y29010D01*
X47500Y29346D01*
D02*
G37*
G36*
X46350D02*
X46200D01*
X44945Y29010D01*
X43819Y28360D01*
X42900Y27441D01*
X42250Y26315D01*
X41913Y25059D01*
Y24909D01*
X46350D01*
Y29346D01*
D02*
G37*
G36*
X84643Y81126D02*
X83861D01*
X83106Y80924D01*
X82429Y80533D01*
X81876Y79981D01*
X81486Y79304D01*
X81283Y78549D01*
Y77767D01*
X81486Y77012D01*
X81876Y76335D01*
X82429Y75783D01*
X83087Y75403D01*
X83281Y74593D01*
X83974Y72921D01*
X84920Y71377D01*
X86095Y70001D01*
X86099Y70005D01*
X114887Y41218D01*
X114945Y41179D01*
X115958Y39945D01*
X116742Y38477D01*
X117225Y36884D01*
X117382Y35296D01*
X117368Y35228D01*
Y29111D01*
X116992Y29010D01*
X115866Y28360D01*
X114947Y27441D01*
X114297Y26315D01*
X113961Y25059D01*
Y23760D01*
X114297Y22504D01*
X114947Y21378D01*
X115866Y20459D01*
X116992Y19809D01*
X118248Y19472D01*
X119548D01*
X120803Y19809D01*
X121929Y20459D01*
X122848Y21378D01*
X123498Y22504D01*
X123835Y23760D01*
Y25059D01*
X123498Y26315D01*
X122848Y27441D01*
X121929Y28360D01*
X120803Y29010D01*
X120427Y29111D01*
Y35228D01*
X120433D01*
X120291Y37032D01*
X119869Y38793D01*
X119176Y40465D01*
X118230Y42008D01*
X117054Y43385D01*
X117050Y43380D01*
X88262Y72168D01*
X88204Y72207D01*
X87192Y73441D01*
X86407Y74909D01*
X86127Y75834D01*
X86627Y76335D01*
X87018Y77012D01*
X87220Y77767D01*
Y78549D01*
X87018Y79304D01*
X86627Y79981D01*
X86075Y80533D01*
X85398Y80924D01*
X84643Y81126D01*
D02*
G37*
G36*
X92776Y29346D02*
X91476D01*
X90220Y29010D01*
X89095Y28360D01*
X88175Y27441D01*
X87525Y26315D01*
X87189Y25059D01*
Y23760D01*
X87525Y22504D01*
X88175Y21378D01*
X89095Y20459D01*
X90220Y19809D01*
X91476Y19472D01*
X92776D01*
X94032Y19809D01*
X95157Y20459D01*
X96077Y21378D01*
X96727Y22504D01*
X97063Y23760D01*
Y25059D01*
X96727Y26315D01*
X96077Y27441D01*
X95157Y28360D01*
X94032Y29010D01*
X92776Y29346D01*
D02*
G37*
G36*
X72697D02*
X71397D01*
X70142Y29010D01*
X69016Y28360D01*
X68097Y27441D01*
X67447Y26315D01*
X67110Y25059D01*
Y23760D01*
X67447Y22504D01*
X68097Y21378D01*
X69016Y20459D01*
X70142Y19809D01*
X71397Y19472D01*
X72697D01*
X73953Y19809D01*
X75079Y20459D01*
X75998Y21378D01*
X76648Y22504D01*
X76984Y23760D01*
Y25059D01*
X76648Y26315D01*
X75998Y27441D01*
X75079Y28360D01*
X73953Y29010D01*
X72697Y29346D01*
D02*
G37*
G36*
X51787Y23910D02*
X47350D01*
Y19472D01*
X47500D01*
X48756Y19809D01*
X49882Y20459D01*
X50801Y21378D01*
X51451Y22504D01*
X51787Y23760D01*
Y23910D01*
D02*
G37*
G36*
X46350D02*
X41913D01*
Y23760D01*
X42250Y22504D01*
X42900Y21378D01*
X43819Y20459D01*
X44945Y19809D01*
X46200Y19472D01*
X46350D01*
Y23910D01*
D02*
G37*
%LPD*%
G36*
X204548Y143650D02*
X204356Y143188D01*
X200642D01*
X176295Y167535D01*
Y170773D01*
X177425D01*
X204548Y143650D01*
D02*
G37*
G36*
X197161Y141650D02*
X196970Y141188D01*
X194375D01*
X176295Y159267D01*
Y161862D01*
X176757Y162054D01*
X197161Y141650D01*
D02*
G37*
G36*
X199150Y130941D02*
X198224Y130015D01*
X176394D01*
Y131403D01*
X198958D01*
X199150Y130941D01*
D02*
G37*
G36*
X196627Y127004D02*
X195701Y126078D01*
X176394D01*
Y127466D01*
X196436D01*
X196627Y127004D01*
D02*
G37*
D11*
X59055Y153543D02*
X58396Y152816D01*
X57811Y152028D01*
X57307Y151186D01*
X56887Y150299D01*
X56557Y149375D01*
X56318Y148423D01*
X56174Y147452D01*
X56126Y146472D01*
X59055Y117905D02*
X59007Y118885D01*
X58863Y119856D01*
X58625Y120808D01*
X58294Y121732D01*
X57874Y122619D01*
X57370Y123461D01*
X56785Y124249D01*
X56126Y124976D01*
X57480Y197843D02*
X57528Y196863D01*
X57672Y195892D01*
X57911Y194940D01*
X58241Y194016D01*
X58661Y193129D01*
X59166Y192287D01*
X59750Y191499D01*
X60409Y190772D01*
X79527Y167512D02*
X79479Y168492D01*
X79335Y169463D01*
X79096Y170415D01*
X78766Y171339D01*
X78346Y172226D01*
X77842Y173068D01*
X77257Y173856D01*
X76598Y174583D01*
X80315Y140917D02*
X80315Y140969D01*
X79493Y143961D02*
X79527Y144223D01*
X80315Y140969D02*
X80055Y141632D01*
X79493Y143961D02*
X79475Y142724D01*
X80055Y141632D01*
X70472Y195481D02*
X70521Y194501D01*
X70665Y193530D01*
X70903Y192578D01*
X71234Y191654D01*
X71653Y190767D01*
X72158Y189925D01*
X72742Y189137D01*
X73401Y188410D01*
X81890Y175779D02*
X81842Y176759D01*
X81698Y177730D01*
X81459Y178682D01*
X81129Y179606D01*
X80709Y180493D01*
X80204Y181335D01*
X79620Y182123D01*
X78961Y182850D01*
X106914Y150615D02*
X107573Y151342D01*
X108157Y152130D01*
X108662Y152972D01*
X109081Y153859D01*
X109412Y154783D01*
X109650Y155735D01*
X109794Y156705D01*
X109843Y157685D01*
X118898Y35228D02*
X118850Y36208D01*
X118705Y37179D01*
X118467Y38131D01*
X118136Y39055D01*
X117717Y39942D01*
X117212Y40784D01*
X116628Y41572D01*
X115969Y42299D01*
X84252Y78158D02*
X84300Y77178D01*
X84444Y76207D01*
X84683Y75255D01*
X85013Y74331D01*
X85433Y73444D01*
X85937Y72602D01*
X86522Y71814D01*
X87181Y71087D01*
X142913Y132677D02*
X155118D01*
X155118Y132677D01*
X148425Y128740D02*
X167815D01*
X148425Y136614D02*
X167716D01*
X148031Y97244D02*
X167717D01*
X167717Y97244D01*
X81890Y143307D02*
Y175779D01*
X79527Y144223D02*
Y167512D01*
X59055Y153543D02*
Y153543D01*
X75590Y119291D02*
X106914Y150615D01*
X126870Y147539D02*
Y179823D01*
X56126Y124976D02*
Y146472D01*
X57480Y197843D02*
Y230709D01*
X60409Y190772D02*
X76598Y174583D01*
X80315Y138098D02*
Y140917D01*
X73401Y188410D02*
X78961Y182850D01*
X70472Y195481D02*
Y230709D01*
X114409Y192283D02*
X126870Y179823D01*
X114409Y192283D02*
Y210236D01*
X109843Y157685D02*
Y174016D01*
X104410Y192835D02*
Y210236D01*
X118504Y139764D02*
Y178740D01*
X104410Y192835D02*
X118504Y178740D01*
X118898Y24409D02*
Y35228D01*
X87181Y71087D02*
X115969Y42299D01*
X144286Y124593D02*
X144495Y124803D01*
X142520Y124031D02*
X143082Y124593D01*
X144495Y124803D02*
X155118D01*
X143082Y124593D02*
X144286D01*
X160637Y86614D02*
X162121Y88098D01*
X166445D02*
X167717Y89370D01*
X162121Y88098D02*
X166445D01*
X159843Y86614D02*
X160637D01*
X144882Y90158D02*
X148031Y93307D01*
X155118D01*
X141339Y101181D02*
X155118D01*
X167717Y105118D02*
X167717Y105118D01*
X148031Y105118D02*
X167717D01*
X154724Y108661D02*
X155118Y109055D01*
X142126Y108661D02*
X154724D01*
X147638Y112992D02*
X167717D01*
X167717Y112992D01*
X155118Y116929D02*
X155118Y116929D01*
X142126Y116929D02*
X155118D01*
X148622Y120669D02*
X167520D01*
X167717Y120866D01*
X167815Y128740D02*
X167815Y128740D01*
X167716Y136614D02*
X167717Y136614D01*
X155118Y140551D02*
X155118Y140551D01*
X142913Y140551D02*
X155118D01*
X167716Y144488D02*
X167717Y144488D01*
X148425Y144488D02*
X167716D01*
X142126Y148819D02*
X154725D01*
X155118Y148425D01*
X167716Y152362D02*
X167717Y152362D01*
X148425Y152362D02*
X167716D01*
X155118Y156299D02*
X155118Y156299D01*
X141732Y156299D02*
X155118D01*
X148425Y160236D02*
X167716D01*
X167717Y160236D01*
X141732Y164567D02*
X154725D01*
X155118Y164173D01*
X167323Y168110D02*
X167717Y168504D01*
X148425Y168110D02*
X167323D01*
X141732Y172047D02*
X155118D01*
X155118Y172047D01*
D15*
X160827Y132677D02*
D03*
X155118D02*
D03*
X173425Y97244D02*
D03*
X167717D02*
D03*
X173524Y128740D02*
D03*
X167815D02*
D03*
X173425Y89370D02*
D03*
X167717D02*
D03*
X160827Y93307D02*
D03*
X155118D02*
D03*
X160827Y101181D02*
D03*
X155118D02*
D03*
X173425Y105118D02*
D03*
X167717D02*
D03*
X160827Y109055D02*
D03*
X155118D02*
D03*
X173425Y112992D02*
D03*
X167717D02*
D03*
X160827Y116929D02*
D03*
X155118D02*
D03*
X173425Y120866D02*
D03*
X167717D02*
D03*
X160827Y124803D02*
D03*
X155118D02*
D03*
X160827Y172047D02*
D03*
X155118D02*
D03*
X173425Y168504D02*
D03*
X167717D02*
D03*
X160827Y164173D02*
D03*
X155118D02*
D03*
X173425Y160236D02*
D03*
X167717D02*
D03*
X160827Y156299D02*
D03*
X155118D02*
D03*
X173425Y152362D02*
D03*
X167717D02*
D03*
X160827Y148425D02*
D03*
X155118D02*
D03*
X173425Y144488D02*
D03*
X167717D02*
D03*
X160827Y140551D02*
D03*
X155118D02*
D03*
X173425Y136614D02*
D03*
X167717D02*
D03*
D40*
X210000Y84016D02*
X219685Y93701D01*
X250787D01*
X210000Y80413D02*
Y84016D01*
X250787Y81103D02*
Y93701D01*
X249999Y80315D02*
X250787Y81103D01*
X270079Y171260D02*
X310236D01*
X237008D02*
X270079D01*
Y184508D01*
X310236Y171260D02*
X350000D01*
X310000Y171496D02*
Y184488D01*
Y171496D02*
X310236Y171260D01*
X350000D02*
X390158D01*
X350000Y171260D02*
Y185039D01*
X350000Y171260D02*
X350000Y171260D01*
X390158Y171260D02*
X430315D01*
X390000Y171417D02*
X390158Y171260D01*
X390000Y171417D02*
Y184587D01*
X430315Y171260D02*
X470079D01*
X430000Y171575D02*
X430315Y171260D01*
X430000Y171575D02*
Y184587D01*
X470079Y171260D02*
X509842D01*
X470000Y171338D02*
X470079Y171260D01*
X470000Y171338D02*
Y184587D01*
X509842Y171260D02*
X550394D01*
X509842D02*
X510000Y171417D01*
Y184409D01*
X550394Y171260D02*
X590158D01*
X550000Y171653D02*
Y184252D01*
Y171653D02*
X550394Y171260D01*
X590158D02*
X652756D01*
X590000Y171417D02*
X590158Y171260D01*
X590000Y171417D02*
Y184409D01*
X659842Y178347D02*
Y184429D01*
X652756Y171260D02*
X659842Y178347D01*
X678740Y96007D02*
Y187402D01*
X676434Y93701D02*
X678740Y96007D01*
X669685Y196457D02*
X678740Y187402D01*
X229980Y178287D02*
X237008Y171260D01*
X229980Y178287D02*
Y184587D01*
X630077Y93701D02*
X676434D01*
X630077Y80413D02*
Y93701D01*
X570079D02*
X630077D01*
X632677Y196457D02*
X669685D01*
X629980Y193760D02*
X632677Y196457D01*
X629980Y184587D02*
Y193760D01*
X250787Y93701D02*
X290158D01*
X330315D01*
X290000Y93543D02*
X290158Y93701D01*
X290000Y80413D02*
Y93543D01*
X330315Y93701D02*
X370079D01*
X330000Y93386D02*
X330315Y93701D01*
X330000Y80394D02*
Y93386D01*
X370079Y93701D02*
X409842D01*
X370000Y93622D02*
X370079Y93701D01*
X370000Y80394D02*
Y93622D01*
X409842Y93701D02*
X450394D01*
X409842D02*
X410000Y93543D01*
Y80413D02*
Y93543D01*
X450394Y93701D02*
X489764D01*
X450000Y80315D02*
Y93307D01*
X450394Y93701D01*
X489764D02*
X529921D01*
X489764D02*
X489765Y93700D01*
Y80316D02*
Y93700D01*
X529921Y93701D02*
X570079D01*
X529921Y80604D02*
Y93701D01*
X569762Y80315D02*
Y93384D01*
X570079Y93701D01*
D41*
X117905Y133071D02*
X118885Y133119D01*
X119856Y133263D01*
X120808Y133502D01*
X121732Y133832D01*
X122619Y134252D01*
X123461Y134756D01*
X124249Y135341D01*
X124976Y136000D01*
X129355Y140378D02*
X130014Y141105D01*
X130598Y141893D01*
X131103Y142735D01*
X131522Y143622D01*
X131853Y144546D01*
X132091Y145498D01*
X132235Y146469D01*
X132283Y147449D01*
Y178535D02*
X132235Y179515D01*
X132091Y180486D01*
X131853Y181438D01*
X131522Y182362D01*
X131103Y183249D01*
X130598Y184091D01*
X130014Y184879D01*
X129355Y185606D01*
X124409Y194693D02*
X124458Y193713D01*
X124602Y192742D01*
X124840Y191790D01*
X125171Y190866D01*
X125590Y189979D01*
X126095Y189138D01*
X126679Y188349D01*
X127338Y187622D01*
X47244Y35039D02*
X46850Y34089D01*
X92520Y197013D02*
X92913Y196063D01*
X101181Y133071D02*
X117905D01*
X124976Y136000D02*
X129355Y140378D01*
X132283Y147449D02*
Y178535D01*
X127338Y187622D02*
X129355Y185606D01*
X124409Y194693D02*
Y210236D01*
X101181Y87795D02*
Y133071D01*
D42*
X160827Y132677D02*
X638189D01*
X646063Y140551D01*
X178569Y97244D02*
X204947Y123622D01*
X173425Y97244D02*
X178569D01*
X312992Y123622D02*
X314961Y121653D01*
X204947Y123622D02*
X312992D01*
X234593Y121622D02*
X235827Y120388D01*
X204533Y124622D02*
X351362D01*
X204119Y125622D02*
X391307D01*
X203705Y126622D02*
X429677D01*
X203290Y127622D02*
X469228D01*
X202876Y128622D02*
X508386D01*
X202462Y129622D02*
X547543D01*
X202048Y130622D02*
X585913D01*
X201634Y131622D02*
X645543D01*
X191361Y133913D02*
X581551D01*
X191776Y134913D02*
X542000D01*
X192190Y135913D02*
X502843D01*
X192604Y136913D02*
X462898D01*
X193018Y137913D02*
X423347D01*
X193432Y138913D02*
X383402D01*
X193847Y139913D02*
X343457D01*
X199700Y140913D02*
X303118D01*
X200114Y141913D02*
X262779D01*
X222819Y142913D02*
X225138Y145232D01*
X469228Y127622D02*
X474803Y122047D01*
X645543Y131622D02*
X655512Y121653D01*
X173524Y128740D02*
X198752D01*
X201634Y131622D01*
X585913Y130622D02*
X594488Y122047D01*
X196229Y124803D02*
X202048Y130622D01*
X160827Y124803D02*
X196229D01*
X547543Y129622D02*
X555512Y121653D01*
X193706Y120866D02*
X202462Y129622D01*
X173425Y120866D02*
X193706D01*
X508386Y128622D02*
X514961Y122047D01*
X191183Y116929D02*
X202876Y128622D01*
X160827Y116929D02*
X191183D01*
X173425Y112992D02*
X188661D01*
X203290Y127622D01*
X429677Y126622D02*
X435039Y121260D01*
X160827Y109055D02*
X186138D01*
X203705Y126622D01*
X391307Y125622D02*
X394882Y122047D01*
X173425Y105118D02*
X183615D01*
X204119Y125622D01*
X351362Y124622D02*
X355118Y120866D01*
X181092Y101181D02*
X204533Y124622D01*
X160827Y101181D02*
X181092D01*
X205362Y122622D02*
X273835D01*
X176047Y93307D02*
X205362Y122622D01*
X205776Y121622D02*
X234593D01*
X173524Y89370D02*
X205776Y121622D01*
X273835Y122622D02*
X275197Y121260D01*
X160827Y93307D02*
X176047D01*
X173425Y89370D02*
X173524D01*
X581551Y133913D02*
X587008Y139370D01*
X173425Y136614D02*
X188661D01*
X191361Y133913D01*
X542000Y134913D02*
X546850Y139764D01*
X186138Y140551D02*
X191776Y134913D01*
X160827Y140551D02*
X186138D01*
X383402Y138913D02*
X386614Y142126D01*
X343457Y139913D02*
X346063Y142520D01*
X502843Y135913D02*
X507087Y140157D01*
X173425Y144488D02*
X183615D01*
X192190Y135913D01*
X462898Y136913D02*
X466929Y140945D01*
X181092Y148425D02*
X192604Y136913D01*
X160827Y148425D02*
X181092D01*
X423347Y137913D02*
X426772Y141339D01*
X173425Y152362D02*
X178569D01*
X193018Y137913D01*
X176047Y156299D02*
X193432Y138913D01*
X160827Y156299D02*
X176047D01*
X173524Y160236D02*
X193847Y139913D01*
X173425Y160236D02*
X173524D01*
X305118Y142913D02*
Y143232D01*
X303118Y140913D02*
X305118Y142913D01*
X176440Y164173D02*
X199700Y140913D01*
X160827Y164173D02*
X176440D01*
X173524Y168504D02*
X200114Y141913D01*
X264961Y144095D02*
Y144232D01*
X262779Y141913D02*
X264961Y144095D01*
X173425Y168504D02*
X173524D01*
X177953Y172047D02*
X207087Y142913D01*
X222819D01*
X160827Y172047D02*
X177953D01*
D43*
X83858Y230709D02*
D03*
X46850Y24409D02*
D03*
X42520Y230709D02*
D03*
X92126Y24409D02*
D03*
X72047D02*
D03*
X57480Y230709D02*
D03*
X70473D02*
D03*
X118898Y24409D02*
D03*
D44*
X11713Y227776D02*
D03*
Y37776D02*
D03*
D45*
X21949Y57776D02*
D03*
X31949D02*
D03*
X21949Y67776D02*
D03*
X31949D02*
D03*
X21949Y77776D02*
D03*
X31949D02*
D03*
X21949Y87776D02*
D03*
X31949D02*
D03*
X21949Y97776D02*
D03*
X31949D02*
D03*
X21949Y107776D02*
D03*
X31949D02*
D03*
X21949Y117776D02*
D03*
X31949D02*
D03*
X21949Y127776D02*
D03*
X31949D02*
D03*
X21949Y137776D02*
D03*
X31949D02*
D03*
X21949Y147776D02*
D03*
X31949D02*
D03*
X21949Y157776D02*
D03*
X31949D02*
D03*
X21949Y167776D02*
D03*
X31949D02*
D03*
X21949Y177776D02*
D03*
X31949D02*
D03*
X21949Y187776D02*
D03*
X31949D02*
D03*
X21949Y197776D02*
D03*
X31949D02*
D03*
X21949Y207776D02*
D03*
D46*
X31949D02*
D03*
D47*
X380000Y50000D02*
D03*
X340000D02*
D03*
X300000D02*
D03*
X260000D02*
D03*
X220000D02*
D03*
X580000D02*
D03*
X540000D02*
D03*
X500000D02*
D03*
X460000D02*
D03*
X420000D02*
D03*
X640000D02*
D03*
X400000Y215000D02*
D03*
X360000D02*
D03*
X320000D02*
D03*
X280000D02*
D03*
X240000D02*
D03*
X600000D02*
D03*
X560000D02*
D03*
X520000D02*
D03*
X480000D02*
D03*
X440000D02*
D03*
X660000D02*
D03*
D48*
X400000Y50000D02*
D03*
X360000D02*
D03*
X320000D02*
D03*
X280000D02*
D03*
X240000D02*
D03*
X600000D02*
D03*
X560000D02*
D03*
X520000D02*
D03*
X480000D02*
D03*
X440000D02*
D03*
X660000D02*
D03*
X380000Y215000D02*
D03*
X340000D02*
D03*
X300000D02*
D03*
X260000D02*
D03*
X220000D02*
D03*
X580000D02*
D03*
X540000D02*
D03*
X500000D02*
D03*
X460000D02*
D03*
X420000D02*
D03*
X640000D02*
D03*
D49*
X144409Y210236D02*
D03*
X134409D02*
D03*
X114409D02*
D03*
X124409D02*
D03*
D50*
X104409D02*
D03*
D51*
X250000Y117224D02*
D03*
X240000Y147776D02*
D03*
X550000Y117224D02*
D03*
X210000Y117224D02*
D03*
X470000Y117224D02*
D03*
X520000Y147776D02*
D03*
X540000D02*
D03*
X126870Y147539D02*
D03*
X220000Y147776D02*
D03*
X260000D02*
D03*
X280000D02*
D03*
X300000D02*
D03*
X320000D02*
D03*
X340000D02*
D03*
X360000D02*
D03*
X380000D02*
D03*
X400000D02*
D03*
X420000D02*
D03*
X440000D02*
D03*
X460000D02*
D03*
X480000D02*
D03*
X500000D02*
D03*
X560000D02*
D03*
X580000D02*
D03*
X600000D02*
D03*
X640000D02*
D03*
X660000D02*
D03*
X650000Y117224D02*
D03*
X630000D02*
D03*
X590000D02*
D03*
X570000D02*
D03*
X530000D02*
D03*
X510000D02*
D03*
X490000D02*
D03*
X450000D02*
D03*
X430000D02*
D03*
X410000D02*
D03*
X390000D02*
D03*
X370000D02*
D03*
X350000D02*
D03*
X330000D02*
D03*
X310000D02*
D03*
X290000D02*
D03*
X270000D02*
D03*
X230000D02*
D03*
X249999Y80315D02*
D03*
X659842Y184429D02*
D03*
X229980Y184587D02*
D03*
X270079Y184508D02*
D03*
X310000Y184488D02*
D03*
X350000Y185039D02*
D03*
X390000Y184587D02*
D03*
X430000D02*
D03*
X470000D02*
D03*
X510000Y184409D02*
D03*
X550000Y184252D02*
D03*
X590000Y184409D02*
D03*
X629980Y184587D02*
D03*
X210000Y80413D02*
D03*
X258472Y70000D02*
D03*
X630077Y80413D02*
D03*
X569762Y80315D02*
D03*
X529921Y80604D02*
D03*
X489765Y80316D02*
D03*
X450000Y80315D02*
D03*
X410000Y80413D02*
D03*
X370000Y80394D02*
D03*
X338384Y70002D02*
D03*
X330000Y80394D02*
D03*
X290000Y80413D02*
D03*
X281496Y70079D02*
D03*
X601575Y194882D02*
D03*
X578346Y194905D02*
D03*
X561417Y194882D02*
D03*
X538449Y194937D02*
D03*
X521654Y194905D02*
D03*
X498386Y194977D02*
D03*
X481496Y195285D02*
D03*
X458275Y195269D02*
D03*
X441732Y195276D02*
D03*
X418386Y195000D02*
D03*
X401614Y194583D02*
D03*
X378520Y195056D02*
D03*
X361749Y194944D02*
D03*
X338330Y195134D02*
D03*
X321614Y195574D02*
D03*
X298425Y195095D02*
D03*
X281614Y195004D02*
D03*
X258275Y195269D02*
D03*
X241614Y195778D02*
D03*
X218393Y195007D02*
D03*
X601614Y70039D02*
D03*
X578346Y70079D02*
D03*
X561698Y69798D02*
D03*
X538499Y69887D02*
D03*
X521654Y70079D02*
D03*
X498587Y69917D02*
D03*
X481890Y69291D02*
D03*
X458386Y69970D02*
D03*
X441654Y70000D02*
D03*
X418110Y70079D02*
D03*
X401614Y70039D02*
D03*
X378346Y70079D02*
D03*
X361607Y70000D02*
D03*
X321654Y70039D02*
D03*
X298425Y70472D02*
D03*
X241614Y69970D02*
D03*
X218110Y69685D02*
D03*
X46063Y72047D02*
D03*
X67717Y131102D02*
D03*
X131102Y202362D02*
D03*
X109843Y174016D02*
D03*
X75590Y119291D02*
D03*
X84252Y78158D02*
D03*
X46850Y34089D02*
D03*
X42520Y221260D02*
D03*
X76772Y95276D02*
D03*
X103937Y73228D02*
D03*
X103150Y64567D02*
D03*
X92520Y197013D02*
D03*
X55512Y101969D02*
D03*
X101181Y87795D02*
D03*
Y133071D02*
D03*
X142520Y124031D02*
D03*
X148425Y152362D02*
D03*
X118504Y139764D02*
D03*
X142126Y148819D02*
D03*
X141732Y156299D02*
D03*
X148425Y168110D02*
D03*
Y160236D02*
D03*
X141732Y164567D02*
D03*
Y172047D02*
D03*
X142126Y116929D02*
D03*
X142126Y108661D02*
D03*
X147638Y112992D02*
D03*
X148031Y105118D02*
D03*
X141339Y101181D02*
D03*
X148031Y97244D02*
D03*
X144882Y90158D02*
D03*
X159843Y86614D02*
D03*
X148425Y144488D02*
D03*
X142913Y140551D02*
D03*
X148425Y136614D02*
D03*
X142913Y132677D02*
D03*
X148425Y128740D02*
D03*
X148622Y120669D02*
D03*
D52*
X235827Y120388D02*
D03*
X225138Y145232D02*
D03*
X474803Y122047D02*
D03*
X59055Y153543D02*
D03*
X81890Y143307D02*
D03*
X394882Y122047D02*
D03*
X314961Y121653D02*
D03*
X59055Y117905D02*
D03*
X80315Y138098D02*
D03*
X655512Y121653D02*
D03*
X594488Y122047D02*
D03*
X555512Y121653D02*
D03*
X514961Y122047D02*
D03*
X435039Y121260D02*
D03*
X355118Y120866D02*
D03*
X275197Y121260D02*
D03*
X646063Y140551D02*
D03*
X587008Y139370D02*
D03*
X546850Y139764D02*
D03*
X346063Y142520D02*
D03*
X386614Y142126D02*
D03*
X507087Y140157D02*
D03*
X466929Y140945D02*
D03*
X426772Y141339D02*
D03*
X305118Y143232D02*
D03*
X264961Y144232D02*
D03*
D53*
X281614Y70000D02*
D03*
X258386D02*
D03*
X281614Y195000D02*
D03*
X258386D02*
D03*
X401614Y70000D02*
D03*
X378386D02*
D03*
X361614D02*
D03*
X338386D02*
D03*
X321614D02*
D03*
X298386D02*
D03*
X241614D02*
D03*
X218386D02*
D03*
X601614D02*
D03*
X578386D02*
D03*
X561614D02*
D03*
X538386D02*
D03*
X521614D02*
D03*
X498386D02*
D03*
X481614D02*
D03*
X458386D02*
D03*
X441614D02*
D03*
X418386D02*
D03*
X401614Y195000D02*
D03*
X378386D02*
D03*
X361614D02*
D03*
X338386D02*
D03*
X321614D02*
D03*
X298386D02*
D03*
X241614D02*
D03*
X218386D02*
D03*
X601614D02*
D03*
X578386D02*
D03*
X561614D02*
D03*
X538386D02*
D03*
X521614D02*
D03*
X498386D02*
D03*
X481614D02*
D03*
X458386D02*
D03*
X441614D02*
D03*
X418386D02*
D03*
M02*
