G04*
G04 #@! TF.GenerationSoftware,Altium Limited,Altium Designer,22.5.1 (42)*
G04*
G04 Layer_Physical_Order=1*
G04 Layer_Color=255*
%FSLAX25Y25*%
%MOIN*%
G70*
G04*
G04 #@! TF.SameCoordinates,4C861729-87C5-483C-8B33-AEF81C08CF8D*
G04*
G04*
G04 #@! TF.FilePolarity,Positive*
G04*
G01*
G75*
%ADD11C,0.01000*%
%ADD13O,0.02362X0.06102*%
%ADD14O,0.04724X0.07480*%
%ADD15R,0.03740X0.03543*%
%ADD16R,0.03543X0.03740*%
%ADD17R,0.03740X0.03543*%
G04:AMPARAMS|DCode=18|XSize=23.62mil|YSize=39.37mil|CornerRadius=2.01mil|HoleSize=0mil|Usage=FLASHONLY|Rotation=180.000|XOffset=0mil|YOffset=0mil|HoleType=Round|Shape=RoundedRectangle|*
%AMROUNDEDRECTD18*
21,1,0.02362,0.03535,0,0,180.0*
21,1,0.01961,0.03937,0,0,180.0*
1,1,0.00402,-0.00980,0.01768*
1,1,0.00402,0.00980,0.01768*
1,1,0.00402,0.00980,-0.01768*
1,1,0.00402,-0.00980,-0.01768*
%
%ADD18ROUNDEDRECTD18*%
%ADD19R,0.03150X0.03150*%
%ADD20O,0.05709X0.02165*%
%ADD21O,0.02165X0.05709*%
%ADD22R,0.03543X0.03740*%
%ADD40C,0.03937*%
%ADD41C,0.01968*%
%ADD42C,0.00500*%
%ADD43C,0.07874*%
%ADD44C,0.15748*%
%ADD45C,0.06000*%
%ADD46R,0.06000X0.06000*%
%ADD47C,0.09843*%
%ADD48R,0.09843X0.09843*%
%ADD49C,0.06496*%
%ADD50R,0.06496X0.06496*%
%ADD51C,0.03937*%
%ADD52C,0.01968*%
D11*
X63312Y139837D02*
X64008Y139216D01*
X64768Y138676D01*
X65584Y138225D01*
X66446Y137868D01*
X67342Y137610D01*
X68262Y137454D01*
X69193Y137401D01*
X48007Y155143D02*
X47311Y155764D01*
X46551Y156304D01*
X45735Y156755D01*
X44873Y157112D01*
X43977Y157370D01*
X43057Y157526D01*
X42126Y157579D01*
X42126Y87697D02*
X41936Y87776D01*
X53637Y134847D02*
X52910Y135506D01*
X52122Y136090D01*
X51280Y136595D01*
X50393Y137014D01*
X49469Y137345D01*
X48517Y137583D01*
X47547Y137727D01*
X46567Y137776D01*
X42126Y197736D02*
X42031Y197776D01*
X76772Y82284D02*
X76335Y81629D01*
X76181Y80858D01*
X84252Y135039D02*
X84974Y134423D01*
X85783Y133927D01*
X86660Y133564D01*
X87583Y133342D01*
X88529Y133268D01*
X58661Y163886D02*
X58710Y162906D01*
X58854Y161935D01*
X59092Y160984D01*
X59423Y160059D01*
X59842Y159172D01*
X60347Y158331D01*
X60931Y157542D01*
X61590Y156815D01*
X56964Y96334D02*
X57580Y97036D01*
X58099Y97813D01*
X58512Y98650D01*
X58812Y99534D01*
X58994Y100450D01*
X59055Y101382D01*
X49893Y93405D02*
X50873Y93454D01*
X51844Y93598D01*
X52796Y93836D01*
X53720Y94167D01*
X54607Y94586D01*
X55449Y95091D01*
X56237Y95675D01*
X56964Y96334D01*
X59576Y154801D02*
X59055Y153543D01*
X54724Y153355D02*
X55017Y152648D01*
X64065Y143600D02*
X64772Y143307D01*
X82382Y138098D02*
X82378Y138098D01*
X83858Y190756D02*
X83907Y189776D01*
X84051Y188805D01*
X84289Y187853D01*
X84619Y186929D01*
X85039Y186042D01*
X85544Y185201D01*
X86128Y184412D01*
X86787Y183685D01*
X93504Y172826D02*
X93456Y173807D01*
X93312Y174777D01*
X93073Y175729D01*
X92743Y176653D01*
X92323Y177540D01*
X91819Y178382D01*
X91234Y179170D01*
X90575Y179897D01*
X101181Y133071D02*
X100706Y133268D01*
X143240Y207414D02*
X143875Y208240D01*
X144273Y209203D01*
X144410Y210236D01*
X90796Y126969D02*
X90024Y126815D01*
X89370Y126378D01*
X85568Y124803D02*
X86617Y124906D01*
X87626Y125212D01*
X88555Y125709D01*
X89370Y126378D01*
X86504Y138040D02*
X86122Y138098D01*
X54724Y165543D02*
X54676Y166523D01*
X54532Y167494D01*
X54294Y168446D01*
X53963Y169370D01*
X53544Y170257D01*
X53039Y171099D01*
X52455Y171887D01*
X51796Y172614D01*
X58661Y177059D02*
X58613Y178039D01*
X58469Y179009D01*
X58231Y179962D01*
X57900Y180886D01*
X57481Y181773D01*
X56976Y182614D01*
X56392Y183403D01*
X55733Y184130D01*
X49582Y174827D02*
X48855Y175486D01*
X48067Y176070D01*
X47225Y176575D01*
X46338Y176995D01*
X45414Y177325D01*
X44462Y177564D01*
X43492Y177708D01*
X42511Y177756D01*
X93701Y120194D02*
X93504Y120669D01*
X92823Y123819D02*
X91843Y123771D01*
X90872Y123627D01*
X89920Y123388D01*
X88996Y123058D01*
X88109Y122638D01*
X87268Y122134D01*
X86479Y121549D01*
X85752Y120890D01*
X103696Y209941D02*
X104410Y210236D01*
X76272Y138098D02*
X80315D01*
X82378D01*
X74901Y137401D02*
X76272Y138098D01*
X48007Y155143D02*
X63312Y139837D01*
X42126Y87697D02*
X48425D01*
X31949Y87776D02*
X41936D01*
X48425Y87697D02*
X48425Y87697D01*
X31949Y157776D02*
X40854D01*
X31949Y197776D02*
X42031D01*
X31949Y177776D02*
X42106D01*
X31949Y137776D02*
X46567D01*
X21949Y197776D02*
X31949D01*
X21949Y177776D02*
X31949D01*
X21949Y137776D02*
X31949D01*
X21949Y157776D02*
X31949D01*
X53637Y134847D02*
X63681Y124803D01*
X42106Y177776D02*
X42126Y177756D01*
X40854Y157776D02*
X42126Y157579D01*
X54724Y153355D02*
Y165543D01*
X55017Y152648D02*
X64065Y143600D01*
X59576Y154801D02*
X61590Y156815D01*
X69193Y149213D01*
X93504Y142717D02*
Y172826D01*
X74901Y143307D02*
X81890D01*
X105413Y150300D02*
X119680Y164567D01*
X108563Y150301D02*
X118499Y160236D01*
X117711Y156299D02*
X141732D01*
X111713Y150301D02*
X117711Y156299D01*
X118818Y154256D02*
X133311D01*
X114862Y150301D02*
X118818Y154256D01*
X114862Y148327D02*
Y150301D01*
X102264D02*
X120467Y168504D01*
X99114Y150301D02*
X120861Y172047D01*
X126870Y147539D02*
Y147741D01*
X76181Y74311D02*
Y80858D01*
X69390Y124803D02*
X75590D01*
X88529Y133268D02*
X93504D01*
X100706D01*
X84252Y128740D02*
X85622Y130012D01*
X91732Y130118D02*
X93504D01*
X85622Y130012D02*
X91732Y130118D01*
X82882Y129831D02*
X84252Y128740D01*
X76961Y129831D02*
X82882D01*
X75590Y131102D02*
X76961Y129831D01*
X103150Y44193D02*
Y53051D01*
X103150Y44193D02*
X103150Y44193D01*
X67717Y131102D02*
X75590D01*
X48425Y93405D02*
X49893D01*
X59055Y101382D02*
Y117905D01*
X82382Y138098D02*
X86122D01*
X91732Y139567D02*
X93504D01*
X76272Y142035D02*
X91732Y139567D01*
X74901Y143307D02*
X76272Y142035D01*
Y147941D02*
X91732Y142717D01*
X93504D01*
X74901Y149213D02*
X76272Y147941D01*
X83858Y190756D02*
Y230709D01*
X86787Y183685D02*
X90575Y179897D01*
X109843Y174016D02*
X143240Y207414D01*
X90796Y126969D02*
X93504D01*
X75590Y124803D02*
X85568D01*
X75590Y119291D02*
Y124803D01*
X84252Y78158D02*
Y113681D01*
X58661Y163886D02*
Y177059D01*
X64772Y143307D02*
X69193D01*
X42126Y197736D02*
X55733Y184130D01*
X49582Y174827D02*
X51796Y172614D01*
X42126Y177756D02*
X42511D01*
X91732Y136417D02*
X93504D01*
X86504Y138040D02*
X91732Y136417D01*
X93701Y93799D02*
X93701Y93799D01*
X93701Y93799D02*
Y99508D01*
Y105217D02*
Y120194D01*
X92823Y123819D02*
X93504D01*
X84252Y119390D02*
X85752Y120890D01*
X92520Y209941D02*
X103696D01*
X142413Y123925D02*
X142520Y124031D01*
X126878Y123925D02*
X142413D01*
X126772Y123819D02*
X126878Y123925D01*
X148622Y120669D02*
X167520D01*
X144172D02*
X148622D01*
X148425Y152362D02*
X167716D01*
X135205D02*
X148425D01*
X118504Y139764D02*
X121457Y142717D01*
X126772D01*
X126284Y148327D02*
X126870Y147741D01*
X121161Y148327D02*
X126284D01*
X118499Y160236D02*
X148425D01*
X141732Y164567D02*
X154725D01*
X119680D02*
X141732D01*
X120861Y172047D02*
X141732D01*
X120180Y152468D02*
X132571D01*
X141732Y172047D02*
X155118D01*
X132571Y152468D02*
X136221Y148819D01*
X148031Y168504D02*
X148425Y168110D01*
X120467Y168504D02*
X148031D01*
X118012Y150301D02*
X120180Y152468D01*
X141732Y156299D02*
X155118D01*
X148425Y160236D02*
X167716D01*
X154725Y148819D02*
X155118Y148425D01*
X142126Y148819D02*
X154725D01*
X136221D02*
X142126D01*
X133311Y154256D02*
X135205Y152362D01*
X118012Y148327D02*
Y150301D01*
X167716Y152362D02*
X167717Y152362D01*
X155118Y156299D02*
X155118Y156299D01*
X111713Y148327D02*
Y150301D01*
X148425Y168110D02*
X148819Y168504D01*
X167815D01*
X167815Y168504D01*
X154725Y164567D02*
X155118Y164173D01*
X167716Y160236D02*
X167717Y160236D01*
X108563Y148327D02*
Y150301D01*
X105413Y148327D02*
Y150300D01*
X102264Y148327D02*
Y150301D01*
X155118Y172047D02*
X155118Y172047D01*
X155118Y116929D02*
X155118Y116929D01*
X142126Y116929D02*
X155118D01*
X140256Y115059D02*
X142126Y116929D01*
X121161Y115059D02*
X140256D01*
X134749Y112992D02*
X147638D01*
X132675Y110917D02*
X134749Y112992D01*
X147638D02*
X167717D01*
X119286Y108661D02*
X142126D01*
X167717Y112992D02*
X167717Y112992D01*
X118012Y113085D02*
X120180Y110917D01*
X132675D01*
X118012Y113085D02*
Y115059D01*
X142126Y108661D02*
X154724D01*
X155118Y109055D01*
X114862Y113085D02*
X119286Y108661D01*
X114862Y113085D02*
Y115059D01*
X119680Y105118D02*
X148031D01*
X167717D01*
X167717Y105118D01*
X111713Y113085D02*
X119680Y105118D01*
X111713Y113085D02*
Y115059D01*
X141339Y101181D02*
X155118D01*
X120467D02*
X141339D01*
X108563Y113085D02*
X120467Y101181D01*
X108563Y113085D02*
Y115059D01*
X148031Y97244D02*
X167717D01*
X167717Y97244D01*
X121255Y97244D02*
X148031D01*
X105413Y113085D02*
X121255Y97244D01*
X105413Y113085D02*
Y115059D01*
X144882Y90158D02*
X148031Y93307D01*
X155118D01*
X125191Y90158D02*
X144882D01*
X102264Y113085D02*
X125191Y90158D01*
X102264Y113085D02*
Y115059D01*
X162121Y88098D02*
X166445D01*
X160637Y86614D02*
X162121Y88098D01*
X159843Y86614D02*
X160637D01*
X166445Y88098D02*
X167717Y89370D01*
X125585Y86614D02*
X159843D01*
X99114Y113085D02*
X125585Y86614D01*
X167716Y144488D02*
X167717Y144488D01*
X148425Y144488D02*
X167716D01*
X137402D02*
X148425D01*
X132480Y139567D02*
X137402Y144488D01*
X126772Y139567D02*
X132480D01*
X126772Y136417D02*
X133661D01*
X137795Y140551D01*
X142913D01*
X155118D01*
X137795Y136614D02*
X148425D01*
X167716D01*
X134449Y133268D02*
X137795Y136614D01*
X126772Y133268D02*
X134449D01*
X155118Y140551D02*
X155118Y140551D01*
X167716Y136614D02*
X167717Y136614D01*
X134718Y130118D02*
X137277Y132677D01*
X142913D01*
X155118D01*
X155118Y132677D01*
X126772Y130118D02*
X134718D01*
X139836Y128740D02*
X148425D01*
X138065Y126969D02*
X139836Y128740D01*
X126772Y126969D02*
X138065D01*
X148425Y128740D02*
X167716D01*
X167717Y128740D01*
X144495Y124803D02*
X155118D01*
X136627Y120563D02*
X144065D01*
X144172Y120669D01*
X126772D02*
X136520D01*
X136627Y120563D01*
X167520Y120669D02*
X167717Y120866D01*
D13*
X230039Y86319D02*
D03*
X240039D02*
D03*
X230039Y111319D02*
D03*
X240039D02*
D03*
X530000Y86500D02*
D03*
X540000D02*
D03*
X530000Y111500D02*
D03*
X540000D02*
D03*
X630000Y86500D02*
D03*
X640000D02*
D03*
X630000Y111500D02*
D03*
X640000D02*
D03*
X220000Y178500D02*
D03*
X210000D02*
D03*
X220000Y153500D02*
D03*
X210000D02*
D03*
X470000Y86500D02*
D03*
X480000D02*
D03*
X470000Y111500D02*
D03*
X480000D02*
D03*
X390000Y86500D02*
D03*
X400000D02*
D03*
X390000Y111500D02*
D03*
X400000D02*
D03*
X370000Y86500D02*
D03*
X380000D02*
D03*
X370000Y111500D02*
D03*
X380000D02*
D03*
X350000Y86500D02*
D03*
X360000D02*
D03*
X350000Y111500D02*
D03*
X360000D02*
D03*
X330000Y86500D02*
D03*
X340000D02*
D03*
X330000Y111500D02*
D03*
X340000D02*
D03*
X310000Y86500D02*
D03*
X320000D02*
D03*
X310000Y111500D02*
D03*
X320000D02*
D03*
X290000Y86500D02*
D03*
X300000D02*
D03*
X290000Y111500D02*
D03*
X300000D02*
D03*
X270000Y86500D02*
D03*
X280000D02*
D03*
X270000Y111500D02*
D03*
X280000D02*
D03*
X250000Y86500D02*
D03*
X260000D02*
D03*
X250000Y111500D02*
D03*
X260000D02*
D03*
X209842Y86221D02*
D03*
X219843D02*
D03*
X209842Y111221D02*
D03*
X219843D02*
D03*
X590000Y86500D02*
D03*
X600000D02*
D03*
X590000Y111500D02*
D03*
X600000D02*
D03*
X570000Y86500D02*
D03*
X580000D02*
D03*
X570000Y111500D02*
D03*
X580000D02*
D03*
X550000Y86500D02*
D03*
X560000D02*
D03*
X550000Y111500D02*
D03*
X560000D02*
D03*
X510000Y86500D02*
D03*
X520000D02*
D03*
X510000Y111500D02*
D03*
X520000D02*
D03*
X490000Y86500D02*
D03*
X500000D02*
D03*
X490000Y111500D02*
D03*
X500000D02*
D03*
X450000Y86500D02*
D03*
X460000D02*
D03*
X450000Y111500D02*
D03*
X460000D02*
D03*
X430000Y86500D02*
D03*
X440000D02*
D03*
X430000Y111500D02*
D03*
X440000D02*
D03*
X410000Y86500D02*
D03*
X420000D02*
D03*
X410000Y111500D02*
D03*
X420000D02*
D03*
X650000Y86500D02*
D03*
X660000D02*
D03*
X650000Y111500D02*
D03*
X660000D02*
D03*
X400000Y178500D02*
D03*
X390000D02*
D03*
X400000Y153500D02*
D03*
X390000D02*
D03*
X380000Y178500D02*
D03*
X370000D02*
D03*
X380000Y153500D02*
D03*
X370000D02*
D03*
X360000Y178500D02*
D03*
X350000D02*
D03*
X360000Y153500D02*
D03*
X350000D02*
D03*
X340000Y178500D02*
D03*
X330000D02*
D03*
X340000Y153500D02*
D03*
X330000D02*
D03*
X320000Y178500D02*
D03*
X310000D02*
D03*
X320000Y153500D02*
D03*
X310000D02*
D03*
X300000Y178500D02*
D03*
X290000D02*
D03*
X300000Y153500D02*
D03*
X290000D02*
D03*
X280000Y178500D02*
D03*
X270000D02*
D03*
X280000Y153500D02*
D03*
X270000D02*
D03*
X260000Y178500D02*
D03*
X250000D02*
D03*
X260000Y153500D02*
D03*
X250000D02*
D03*
X240000Y178500D02*
D03*
X230000D02*
D03*
X240000Y153500D02*
D03*
X230000D02*
D03*
X600000Y178500D02*
D03*
X590000D02*
D03*
X600000Y153500D02*
D03*
X590000D02*
D03*
X580000Y178500D02*
D03*
X570000D02*
D03*
X580000Y153500D02*
D03*
X570000D02*
D03*
X560000Y178500D02*
D03*
X550000D02*
D03*
X560000Y153500D02*
D03*
X550000D02*
D03*
X540000Y178500D02*
D03*
X530000D02*
D03*
X540000Y153500D02*
D03*
X530000D02*
D03*
X520000Y178500D02*
D03*
X510000D02*
D03*
X520000Y153500D02*
D03*
X510000D02*
D03*
X500000Y178500D02*
D03*
X490000D02*
D03*
X500000Y153500D02*
D03*
X490000D02*
D03*
X480000Y178500D02*
D03*
X470000D02*
D03*
X480000Y153500D02*
D03*
X470000D02*
D03*
X460000Y178500D02*
D03*
X450000D02*
D03*
X460000Y153500D02*
D03*
X450000D02*
D03*
X440000Y178500D02*
D03*
X430000D02*
D03*
X440000Y153500D02*
D03*
X430000D02*
D03*
X420000Y178500D02*
D03*
X410000D02*
D03*
X420000Y153500D02*
D03*
X410000D02*
D03*
X660000Y178500D02*
D03*
X650000D02*
D03*
X660000Y153500D02*
D03*
X650000D02*
D03*
X640000Y178500D02*
D03*
X630000D02*
D03*
X640000Y153500D02*
D03*
X630000D02*
D03*
D14*
X220000Y117224D02*
D03*
X210000D02*
D03*
X220000Y80413D02*
D03*
X210000D02*
D03*
X640000Y117224D02*
D03*
X630000D02*
D03*
X640000Y80413D02*
D03*
X630000D02*
D03*
X530000Y147776D02*
D03*
X540000D02*
D03*
X530000Y184587D02*
D03*
X540000D02*
D03*
X400000Y117224D02*
D03*
X390000D02*
D03*
X400000Y80413D02*
D03*
X390000D02*
D03*
X380000Y117224D02*
D03*
X370000D02*
D03*
X380000Y80413D02*
D03*
X370000D02*
D03*
X360000Y117224D02*
D03*
X350000D02*
D03*
X360000Y80413D02*
D03*
X350000D02*
D03*
X340000Y117224D02*
D03*
X330000D02*
D03*
X340000Y80413D02*
D03*
X330000D02*
D03*
X320000Y117224D02*
D03*
X310000D02*
D03*
X320000Y80413D02*
D03*
X310000D02*
D03*
X300000Y117224D02*
D03*
X290000D02*
D03*
X300000Y80413D02*
D03*
X290000D02*
D03*
X280000Y117224D02*
D03*
X270000D02*
D03*
X280000Y80413D02*
D03*
X270000D02*
D03*
X260000Y117224D02*
D03*
X250000D02*
D03*
X260000Y80413D02*
D03*
X250000D02*
D03*
X240000Y117224D02*
D03*
X230000D02*
D03*
X240000Y80413D02*
D03*
X230000D02*
D03*
X600000Y117224D02*
D03*
X590000D02*
D03*
X600000Y80413D02*
D03*
X590000D02*
D03*
X580000Y117224D02*
D03*
X570000D02*
D03*
X580000Y80413D02*
D03*
X570000D02*
D03*
X560000Y117224D02*
D03*
X550000D02*
D03*
X560000Y80413D02*
D03*
X550000D02*
D03*
X540000Y117224D02*
D03*
X530000D02*
D03*
X540000Y80413D02*
D03*
X530000D02*
D03*
X520000Y117224D02*
D03*
X510000D02*
D03*
X520000Y80413D02*
D03*
X510000D02*
D03*
X500000Y117224D02*
D03*
X490000D02*
D03*
X500000Y80413D02*
D03*
X490000D02*
D03*
X480000Y117224D02*
D03*
X470000D02*
D03*
X480000Y80413D02*
D03*
X470000D02*
D03*
X460000Y117224D02*
D03*
X450000D02*
D03*
X460000Y80413D02*
D03*
X450000D02*
D03*
X440000Y117224D02*
D03*
X430000D02*
D03*
X440000Y80413D02*
D03*
X430000D02*
D03*
X420000Y117224D02*
D03*
X410000D02*
D03*
X420000Y80413D02*
D03*
X410000D02*
D03*
X660000Y117224D02*
D03*
X650000D02*
D03*
X660000Y80413D02*
D03*
X650000D02*
D03*
X390000Y147776D02*
D03*
X400000D02*
D03*
X390000Y184587D02*
D03*
X400000D02*
D03*
X370000Y147776D02*
D03*
X380000D02*
D03*
X370000Y184587D02*
D03*
X380000D02*
D03*
X350000Y147776D02*
D03*
X360000D02*
D03*
X350000Y184587D02*
D03*
X360000D02*
D03*
X330000Y147776D02*
D03*
X340000D02*
D03*
X330000Y184587D02*
D03*
X340000D02*
D03*
X310000Y147776D02*
D03*
X320000D02*
D03*
X310000Y184587D02*
D03*
X320000D02*
D03*
X290000Y147776D02*
D03*
X300000D02*
D03*
X290000Y184587D02*
D03*
X300000D02*
D03*
X270000Y147776D02*
D03*
X280000D02*
D03*
X270000Y184587D02*
D03*
X280000D02*
D03*
X250000Y147776D02*
D03*
X260000D02*
D03*
X250000Y184587D02*
D03*
X260000D02*
D03*
X230000Y147776D02*
D03*
X240000D02*
D03*
X230000Y184587D02*
D03*
X240000D02*
D03*
X210000Y147776D02*
D03*
X220000D02*
D03*
X210000Y184587D02*
D03*
X220000D02*
D03*
X590000Y147776D02*
D03*
X600000D02*
D03*
X590000Y184587D02*
D03*
X600000D02*
D03*
X570000Y147776D02*
D03*
X580000D02*
D03*
X570000Y184587D02*
D03*
X580000D02*
D03*
X550000Y147776D02*
D03*
X560000D02*
D03*
X550000Y184587D02*
D03*
X560000D02*
D03*
X510000Y147776D02*
D03*
X520000D02*
D03*
X510000Y184587D02*
D03*
X520000D02*
D03*
X490000Y147776D02*
D03*
X500000D02*
D03*
X490000Y184587D02*
D03*
X500000D02*
D03*
X470000Y147776D02*
D03*
X480000D02*
D03*
X470000Y184587D02*
D03*
X480000D02*
D03*
X450000Y147776D02*
D03*
X460000D02*
D03*
X450000Y184587D02*
D03*
X460000D02*
D03*
X430000Y147776D02*
D03*
X440000D02*
D03*
X430000Y184587D02*
D03*
X440000D02*
D03*
X410000Y147776D02*
D03*
X420000D02*
D03*
X410000Y184587D02*
D03*
X420000D02*
D03*
X650000Y147776D02*
D03*
X660000D02*
D03*
X650000Y184587D02*
D03*
X660000D02*
D03*
X630000Y147776D02*
D03*
X640000D02*
D03*
X630000Y184587D02*
D03*
X640000D02*
D03*
D15*
X74902Y137402D02*
D03*
X69193D02*
D03*
X69390Y124803D02*
D03*
X63681D02*
D03*
X74902Y143307D02*
D03*
X69193D02*
D03*
X74902Y149213D02*
D03*
X69193D02*
D03*
X173425Y128740D02*
D03*
X167717D02*
D03*
X160827Y132677D02*
D03*
X155118D02*
D03*
X173425Y89370D02*
D03*
X167717D02*
D03*
X160827Y93307D02*
D03*
X155118D02*
D03*
X173425Y97244D02*
D03*
X167717D02*
D03*
X160827Y101181D02*
D03*
X155118D02*
D03*
X173425Y105118D02*
D03*
X167717D02*
D03*
X160827Y109055D02*
D03*
X155118D02*
D03*
X173425Y112992D02*
D03*
X167717D02*
D03*
X160827Y116929D02*
D03*
X155118D02*
D03*
X173425Y120866D02*
D03*
X167717D02*
D03*
X160827Y124803D02*
D03*
X155118D02*
D03*
X160827Y172047D02*
D03*
X155118D02*
D03*
X173524Y168504D02*
D03*
X167815D02*
D03*
X160827Y164173D02*
D03*
X155118D02*
D03*
X173425Y160236D02*
D03*
X167717D02*
D03*
X160827Y156299D02*
D03*
X155118D02*
D03*
X173425Y152362D02*
D03*
X167717D02*
D03*
X160827Y148425D02*
D03*
X155118D02*
D03*
X173425Y144488D02*
D03*
X167717D02*
D03*
X160827Y140551D02*
D03*
X155118D02*
D03*
X173425Y136614D02*
D03*
X167717D02*
D03*
D16*
X42126Y87697D02*
D03*
Y93405D02*
D03*
X103150Y53051D02*
D03*
Y58760D02*
D03*
X42126Y157579D02*
D03*
Y151870D02*
D03*
X42126Y177756D02*
D03*
Y172047D02*
D03*
X42126Y197736D02*
D03*
Y192028D02*
D03*
X48425Y93405D02*
D03*
Y87697D02*
D03*
X93701Y99508D02*
D03*
Y105217D02*
D03*
X84252Y113681D02*
D03*
Y119390D02*
D03*
X92520Y209941D02*
D03*
Y204232D02*
D03*
D17*
X61417Y72047D02*
D03*
Y65748D02*
D03*
X84252Y128740D02*
D03*
Y135039D02*
D03*
X76772Y82284D02*
D03*
Y88583D02*
D03*
X54331Y65748D02*
D03*
Y72047D02*
D03*
X75590Y124803D02*
D03*
Y131102D02*
D03*
D18*
X68701Y63484D02*
D03*
X72441D02*
D03*
X76181D02*
D03*
Y74311D02*
D03*
X68701D02*
D03*
D19*
X103150Y44193D02*
D03*
Y37697D02*
D03*
X93701Y93799D02*
D03*
Y87303D02*
D03*
D20*
X93504Y142717D02*
D03*
Y139567D02*
D03*
Y136417D02*
D03*
Y133268D02*
D03*
Y130118D02*
D03*
Y126969D02*
D03*
Y123819D02*
D03*
Y120669D02*
D03*
X126772D02*
D03*
Y123819D02*
D03*
Y126969D02*
D03*
Y130118D02*
D03*
Y133268D02*
D03*
Y136417D02*
D03*
Y139567D02*
D03*
Y142717D02*
D03*
D21*
X99114Y115059D02*
D03*
X102264D02*
D03*
X105413D02*
D03*
X108563D02*
D03*
X111713D02*
D03*
X114862D02*
D03*
X118012D02*
D03*
X121161D02*
D03*
Y148327D02*
D03*
X118012D02*
D03*
X114862D02*
D03*
X111713D02*
D03*
X108563D02*
D03*
X105413D02*
D03*
X102264D02*
D03*
X99114D02*
D03*
D22*
X97638Y79134D02*
D03*
X103937D02*
D03*
X42126Y101969D02*
D03*
X48425D02*
D03*
D40*
X538449Y194937D02*
X538583Y194882D01*
X540000Y191460D02*
X539907Y192404D01*
X539632Y193312D01*
X539185Y194149D01*
X538583Y194882D01*
X529921Y80604D02*
X530000Y80413D01*
X569762Y80315D02*
X570000Y80413D01*
X240000Y73867D02*
X240106Y72755D01*
X240418Y71682D01*
X240927Y70688D01*
X241614Y69807D01*
X258472Y70000D02*
X258661Y70079D01*
X220000Y215000D02*
X219318Y214168D01*
X218810Y213220D01*
X218498Y212190D01*
X218393Y211119D01*
X220000Y191664D02*
X219902Y192660D01*
X219611Y193618D01*
X219139Y194501D01*
X218504Y195276D01*
X218393Y195007D02*
X218504Y195276D01*
X241614Y211104D02*
X241508Y212179D01*
X241195Y213212D01*
X240685Y214165D01*
X240000Y215000D01*
X241614Y195941D02*
X240927Y195060D01*
X240418Y194066D01*
X240106Y192993D01*
X240000Y191881D01*
X260000Y215000D02*
X259400Y214297D01*
X258917Y213509D01*
X258563Y212655D01*
X258347Y211756D01*
X258275Y210835D01*
X260000Y191093D02*
X259928Y192017D01*
X259712Y192917D01*
X259358Y193773D01*
X258875Y194563D01*
X258275Y195269D01*
X281614Y211104D02*
X281508Y212179D01*
X281195Y213212D01*
X280685Y214165D01*
X280000Y215000D01*
X281614Y195376D02*
X281049Y194634D01*
X280598Y193819D01*
X280268Y192947D01*
X280067Y192037D01*
X280000Y191107D01*
X321614Y211104D02*
X321508Y212179D01*
X321195Y213212D01*
X320685Y214165D01*
X320000Y215000D01*
X321614Y195629D02*
X320928Y194779D01*
X320419Y193812D01*
X320106Y192765D01*
X320000Y191677D01*
X300000Y215000D02*
X299331Y214185D01*
X298834Y213256D01*
X298529Y212247D01*
X298425Y211198D01*
X300000Y191473D02*
X299897Y192523D01*
X299591Y193531D01*
X299094Y194461D01*
X298425Y195276D01*
X340000Y215000D02*
X339291Y214136D01*
X338764Y213151D01*
X338440Y212081D01*
X338330Y210969D01*
X340000Y190903D02*
X339924Y191869D01*
X339699Y192810D01*
X339329Y193705D01*
X338824Y194532D01*
X338196Y195269D01*
X338190Y195274D01*
X361749Y210779D02*
X361675Y211713D01*
X361456Y212624D01*
X361098Y213489D01*
X360608Y214288D01*
X360000Y215000D01*
X361811Y194882D02*
X361181Y194144D01*
X360674Y193317D01*
X360303Y192421D01*
X360076Y191477D01*
X360000Y190510D01*
X380000Y192234D02*
X379854Y193347D01*
X379424Y194385D01*
X378740Y195276D01*
X380000Y215000D02*
X379372Y214234D01*
X378905Y213361D01*
X378617Y212413D01*
X378520Y211428D01*
X401614Y211104D02*
X401508Y212179D01*
X401195Y213212D01*
X400685Y214165D01*
X400000Y215000D01*
X401575Y194488D02*
X400906Y193674D01*
X400409Y192744D01*
X400103Y191735D01*
X400000Y190687D01*
X420000Y215000D02*
X419315Y214165D01*
X418805Y213212D01*
X418492Y212178D01*
X418386Y211103D01*
X420000Y191270D02*
X419902Y192266D01*
X419611Y193225D01*
X419139Y194108D01*
X418504Y194882D01*
X441732Y210818D02*
X441659Y211743D01*
X441443Y212646D01*
X441088Y213503D01*
X440603Y214294D01*
X440000Y215000D01*
X441732Y195276D02*
X441130Y194570D01*
X440645Y193779D01*
X440289Y192921D01*
X440073Y192019D01*
X440000Y191094D01*
X460000Y215000D02*
X459400Y214297D01*
X458917Y213509D01*
X458563Y212655D01*
X458347Y211756D01*
X458275Y210835D01*
X460000Y191093D02*
X459928Y192017D01*
X459712Y192917D01*
X459358Y193773D01*
X458875Y194563D01*
X458275Y195269D01*
X481496Y211388D02*
X481398Y212385D01*
X481107Y213343D01*
X480635Y214226D01*
X480000Y215000D01*
X481496Y195669D02*
X480861Y194895D01*
X480389Y194012D01*
X480098Y193054D01*
X480000Y192058D01*
X500000Y191080D02*
X499897Y192129D01*
X499591Y193137D01*
X499094Y194067D01*
X498425Y194882D01*
X498386Y194977D02*
X498425Y194882D01*
X500000Y215000D02*
X499315Y214165D01*
X498805Y213212D01*
X498492Y212178D01*
X498386Y211103D01*
X521654Y194882D02*
X520952Y194026D01*
X520430Y193051D01*
X520109Y191991D01*
X520000Y190890D01*
X521654Y211008D02*
X521545Y212110D01*
X521224Y213169D01*
X520702Y214145D01*
X520000Y215000D01*
X540000D02*
X539341Y214197D01*
X538852Y213281D01*
X538550Y212288D01*
X538449Y211254D01*
X561417Y211579D02*
X561324Y212523D01*
X561049Y213430D01*
X560602Y214267D01*
X560000Y215000D01*
X561417Y194882D02*
X560816Y194149D01*
X560368Y193312D01*
X560093Y192404D01*
X560000Y191460D01*
X580000Y215000D02*
X579298Y214144D01*
X578776Y213168D01*
X578455Y212109D01*
X578346Y211008D01*
X580000Y190890D02*
X579892Y191991D01*
X579570Y193050D01*
X579049Y194026D01*
X578346Y194882D01*
X601575Y211198D02*
X601472Y212247D01*
X601165Y213256D01*
X600669Y214185D01*
X600000Y215000D01*
X601575Y194882D02*
X600906Y194067D01*
X600409Y193138D01*
X600103Y192129D01*
X600000Y191080D01*
X401575Y194488D02*
X401614Y194583D01*
X600000Y73880D02*
X600103Y72831D01*
X600409Y71823D01*
X600906Y70893D01*
X601575Y70079D01*
X600000Y50000D02*
X600685Y50835D01*
X601195Y51788D01*
X601508Y52822D01*
X601614Y53897D01*
X578346Y53992D02*
X578455Y52891D01*
X578776Y51832D01*
X579298Y50856D01*
X580000Y50000D01*
X578346Y70079D02*
X579049Y70934D01*
X579570Y71910D01*
X579892Y72970D01*
X580000Y74071D01*
X560000Y74057D02*
X560076Y73090D01*
X560303Y72146D01*
X560674Y71250D01*
X561181Y70423D01*
X561811Y69685D01*
X560000Y50000D02*
X560591Y50692D01*
X561066Y51467D01*
X561414Y52307D01*
X561626Y53192D01*
X561698Y54098D01*
X538499Y53624D02*
X538597Y52624D01*
X538889Y51663D01*
X539363Y50777D01*
X540000Y50000D01*
X520000Y74071D02*
X520109Y72969D01*
X520430Y71910D01*
X520952Y70934D01*
X521654Y70079D01*
X520000Y50000D02*
X520702Y50855D01*
X521224Y51832D01*
X521545Y52890D01*
X521654Y53992D01*
X498587Y53411D02*
X498680Y52470D01*
X498954Y51565D01*
X499400Y50731D01*
X500000Y50000D01*
X498819Y69685D02*
X499460Y70520D01*
X499863Y71493D01*
X500000Y72537D01*
X480000Y73297D02*
X480098Y72300D01*
X480389Y71342D01*
X480861Y70459D01*
X481496Y69685D01*
X480000Y50000D02*
X480658Y50770D01*
X481187Y51633D01*
X481574Y52569D01*
X481810Y53553D01*
X481890Y54562D01*
X458386Y53897D02*
X458492Y52822D01*
X458805Y51788D01*
X459315Y50835D01*
X460000Y50000D01*
X458386Y69807D02*
X459073Y70688D01*
X459582Y71683D01*
X459895Y72755D01*
X460000Y73867D01*
X440000Y74261D02*
X440073Y73335D01*
X440289Y72433D01*
X440645Y71576D01*
X441130Y70784D01*
X441732Y70079D01*
X440000Y50000D02*
X440702Y50856D01*
X441224Y51832D01*
X441545Y52891D01*
X441654Y53992D01*
X418110Y54563D02*
X418190Y53553D01*
X418426Y52569D01*
X418814Y51633D01*
X419343Y50770D01*
X420000Y50000D01*
X418110Y70079D02*
X418768Y70849D01*
X419297Y71712D01*
X419684Y72647D01*
X419921Y73632D01*
X420000Y74641D01*
X400000Y73880D02*
X400103Y72831D01*
X400409Y71823D01*
X400906Y70893D01*
X401575Y70079D01*
X400000Y50000D02*
X400685Y50835D01*
X401195Y51788D01*
X401508Y52822D01*
X401614Y53897D01*
X378346Y70079D02*
X379049Y70934D01*
X379570Y71910D01*
X379892Y72970D01*
X380000Y74071D01*
X378346Y53992D02*
X378455Y52891D01*
X378776Y51832D01*
X379298Y50856D01*
X380000Y50000D01*
X361417Y70079D02*
X361607Y70000D01*
X360000Y73500D02*
X360093Y72556D01*
X360368Y71649D01*
X360816Y70812D01*
X361417Y70079D01*
X360000Y50000D02*
X360683Y50832D01*
X361190Y51780D01*
X361502Y52810D01*
X361607Y53880D01*
X338189Y70472D02*
X338819Y71210D01*
X339326Y72038D01*
X339698Y72934D01*
X339924Y73878D01*
X340000Y74845D01*
X338189Y70472D02*
X338384Y70002D01*
Y53902D02*
X338490Y52826D01*
X338804Y51790D01*
X339314Y50836D01*
X340000Y50000D01*
X320000Y74071D02*
X320109Y72969D01*
X320430Y71910D01*
X320952Y70934D01*
X321654Y70079D01*
X320000Y50000D02*
X320702Y50855D01*
X321224Y51832D01*
X321545Y52890D01*
X321654Y53992D01*
X298425Y70472D02*
X299094Y71287D01*
X299591Y72217D01*
X299897Y73226D01*
X300000Y74275D01*
X298425Y53802D02*
X298529Y52753D01*
X298834Y51745D01*
X299331Y50815D01*
X300000Y50000D01*
X280000Y73690D02*
X280098Y72694D01*
X280389Y71736D01*
X280861Y70853D01*
X281496Y70079D01*
X280000Y50000D02*
X280635Y50774D01*
X281107Y51657D01*
X281398Y52615D01*
X281496Y53612D01*
X258472Y53690D02*
X258572Y52672D01*
X258869Y51693D01*
X259351Y50791D01*
X260000Y50000D01*
X258661Y70079D02*
X259230Y70771D01*
X259652Y71561D01*
X259912Y72419D01*
X260000Y73311D01*
X240000Y50000D02*
X240685Y50835D01*
X241195Y51788D01*
X241508Y52822D01*
X241614Y53897D01*
X218110Y54563D02*
X218190Y53553D01*
X218426Y52569D01*
X218813Y51633D01*
X219342Y50770D01*
X220000Y50000D01*
X538583Y69685D02*
X538499Y69887D01*
X538583Y69685D02*
X539185Y70418D01*
X539632Y71255D01*
X539907Y72163D01*
X540000Y73107D01*
X236503Y97047D02*
X269574D01*
X240000Y80413D02*
X240020Y80433D01*
Y86299D01*
X240039Y86319D01*
X230000Y80413D02*
X230039Y80453D01*
Y86319D01*
Y90583D01*
X236503Y97047D01*
X240000Y117224D02*
X240020Y117205D01*
Y111339D02*
Y117205D01*
Y111339D02*
X240039Y111319D01*
X230020Y111339D02*
Y117205D01*
Y111339D02*
X230039Y111319D01*
X250000Y111500D02*
Y117224D01*
X240000Y147776D02*
Y153500D01*
X538499Y53624D02*
Y69887D01*
X540000Y80413D02*
Y86500D01*
Y111500D02*
Y117224D01*
X530000Y80682D02*
Y86500D01*
X529921Y80604D02*
X530000Y80682D01*
Y111500D02*
Y117224D01*
X550000Y111500D02*
Y117224D01*
X640000Y111500D02*
Y117224D01*
X630000Y111500D02*
Y117224D01*
X640000Y80413D02*
Y86500D01*
X630000Y80491D02*
Y86500D01*
X590046Y97047D02*
X650039D01*
X210000Y172000D02*
Y184587D01*
X250000Y168547D02*
Y184587D01*
X290000Y168704D02*
Y184587D01*
X330000Y168626D02*
Y184587D01*
X370000Y168626D02*
Y184587D01*
X410000Y168783D02*
Y184587D01*
X450000Y168941D02*
Y184587D01*
X490000Y169098D02*
Y184587D01*
X530000Y168862D02*
Y184587D01*
X570000Y168626D02*
Y184587D01*
X640000Y171933D02*
Y215000D01*
X218393Y195007D02*
Y211119D01*
X220000Y147776D02*
Y153500D01*
X210000Y147776D02*
Y153500D01*
X220000Y184587D02*
X220000Y184587D01*
X220000Y178500D02*
Y184587D01*
X210000Y172000D02*
X213453Y168547D01*
X250000D01*
X220000Y71575D02*
Y80413D01*
X218110Y69685D02*
X220000Y71575D01*
X219843Y86221D02*
X219921Y86142D01*
X209842Y86221D02*
X209921Y86142D01*
X219921Y80492D02*
Y86142D01*
Y80492D02*
X220000Y80413D01*
X209921Y80492D02*
Y86142D01*
Y80492D02*
X210000Y80413D01*
X209921Y111299D02*
Y117146D01*
X209842Y111221D02*
X209921Y111299D01*
X219921Y117146D02*
X220000Y117224D01*
X219921Y111299D02*
Y117146D01*
X219843Y111221D02*
X219921Y111299D01*
X470000Y111500D02*
Y117224D01*
X480000Y111500D02*
Y117224D01*
X470000Y80413D02*
Y86500D01*
X469889Y87583D02*
Y96968D01*
X469967Y97047D01*
X480000Y80413D02*
Y86500D01*
X469967Y97047D02*
X510125D01*
X630000Y80491D02*
X630077Y80413D01*
X640000Y50000D02*
Y80413D01*
X520000Y147776D02*
Y153500D01*
X530000Y147776D02*
Y153500D01*
X540000Y147776D02*
Y153500D01*
X538449Y194937D02*
Y194937D01*
X540000Y184587D02*
Y191460D01*
X540000Y178500D02*
Y184587D01*
X530315Y168547D02*
X570079D01*
X240000Y73867D02*
Y80413D01*
X250000Y80413D02*
Y86500D01*
Y80315D02*
Y80413D01*
X249999Y80315D02*
X250000Y80315D01*
X260000Y80413D02*
Y86500D01*
X280000Y73690D02*
Y80413D01*
X280000Y80413D02*
Y86500D01*
X290000Y80414D02*
X290000Y80413D01*
X290000Y80414D02*
Y86500D01*
X300000Y80414D02*
X300000Y80413D01*
X300000Y80414D02*
Y86500D01*
X320000Y74071D02*
Y80413D01*
X320000Y80413D02*
Y86500D01*
X330000Y80413D02*
Y86500D01*
Y80394D02*
Y80413D01*
Y80394D02*
X330000Y80394D01*
X340000Y80414D02*
Y86500D01*
Y80414D02*
X340000Y80413D01*
X360000Y73500D02*
Y80413D01*
X360000Y80413D02*
Y86500D01*
X370000Y80413D02*
Y86500D01*
Y80394D02*
Y80413D01*
Y80394D02*
X370000Y80394D01*
X380000Y80413D02*
Y86500D01*
X400000Y73880D02*
Y80413D01*
X400000Y80413D02*
Y86500D01*
X410000Y80414D02*
Y86500D01*
Y80414D02*
X410000Y80413D01*
X420000Y80413D02*
Y86500D01*
X440000Y74261D02*
Y80413D01*
X440000Y80413D02*
Y86500D01*
X450000Y80413D02*
Y86500D01*
Y80315D02*
Y80413D01*
Y80315D02*
X450000Y80315D01*
X460000Y80413D02*
Y86500D01*
X480000Y73297D02*
Y80413D01*
X489765Y80316D02*
X490000Y80551D01*
Y86500D01*
X500000Y80413D02*
Y86500D01*
X520000Y74071D02*
Y80413D01*
X520000Y80413D02*
Y86500D01*
X560000Y74057D02*
Y80413D01*
X560000Y80413D02*
Y86500D01*
X569762Y80315D02*
X570000Y80553D01*
Y86500D01*
X580000Y80413D02*
Y86500D01*
X600000Y73880D02*
Y80413D01*
X600000Y80414D02*
X600000Y80413D01*
X600000Y80414D02*
Y86500D01*
X660000Y80413D02*
Y86500D01*
Y111500D02*
Y117224D01*
X650000Y111500D02*
Y117224D01*
X600000Y111500D02*
Y117224D01*
X590000Y111500D02*
Y117224D01*
X580000Y111500D02*
Y117224D01*
X570000Y111500D02*
Y117224D01*
X560000Y111500D02*
Y117224D01*
X520000Y111500D02*
Y117224D01*
X510000Y111500D02*
Y117224D01*
X500000Y111500D02*
Y117224D01*
X490000Y111500D02*
Y117224D01*
X460000Y111500D02*
Y117224D01*
X450000Y111500D02*
Y117224D01*
X440000Y111500D02*
Y117224D01*
X430000Y111500D02*
Y117224D01*
X420000Y111500D02*
Y117224D01*
X410000Y111500D02*
Y117224D01*
X400000Y111500D02*
Y117224D01*
X390000Y111500D02*
Y117224D01*
X380000Y111500D02*
Y117224D01*
X370000Y111500D02*
Y117224D01*
X360000Y111500D02*
Y117224D01*
X350000Y111500D02*
Y117224D01*
X340000Y111500D02*
Y117224D01*
X330000Y111500D02*
Y117224D01*
X320000Y111500D02*
Y117224D01*
X310000Y111500D02*
Y117224D01*
X300000Y111500D02*
Y117224D01*
X290000Y111500D02*
Y117224D01*
X280000Y111500D02*
Y117224D01*
X270000Y111500D02*
Y117224D01*
X260000Y111500D02*
Y117224D01*
X660000Y147776D02*
Y153500D01*
X650000Y147776D02*
Y153500D01*
X640000Y147776D02*
Y153500D01*
X630000Y147776D02*
Y153500D01*
X660000Y178500D02*
Y184272D01*
X659842Y184429D02*
X660000Y184272D01*
X629980Y184587D02*
X630000Y184567D01*
Y178500D02*
Y184567D01*
X600000Y147776D02*
Y153500D01*
X590000Y147776D02*
Y153500D01*
X580000Y147776D02*
Y153500D01*
X570000Y147776D02*
Y153500D01*
X560000Y147776D02*
Y153500D01*
X550000Y147776D02*
Y153500D01*
X510000Y147776D02*
Y153500D01*
X500000Y147776D02*
Y153500D01*
X490000Y147776D02*
Y153500D01*
X480000Y147776D02*
Y153500D01*
X470000Y147776D02*
Y153500D01*
X460000Y147776D02*
Y153500D01*
X450000Y147776D02*
Y153500D01*
X440000Y147776D02*
Y153500D01*
X430000Y147776D02*
Y153500D01*
X420000Y147776D02*
Y153500D01*
X410000Y147776D02*
Y153500D01*
X400000Y147776D02*
Y153500D01*
X390000Y147776D02*
Y153500D01*
X380000Y147776D02*
Y153500D01*
X370000Y147776D02*
Y153500D01*
X360000Y147776D02*
Y153500D01*
X350000Y147776D02*
Y153500D01*
X340000Y147776D02*
Y153500D01*
X330000Y147776D02*
Y153500D01*
X320000Y147776D02*
Y153500D01*
X310000Y147776D02*
Y153500D01*
X300000Y147776D02*
Y153500D01*
X290000Y147776D02*
Y153500D01*
Y147541D02*
Y147776D01*
Y147541D02*
X290000Y147541D01*
X280000Y147776D02*
Y153500D01*
X270000Y147776D02*
Y153500D01*
X260000Y147776D02*
Y153500D01*
X250000Y147776D02*
Y153500D01*
X230000Y147776D02*
Y153500D01*
X210000Y147776D02*
Y147776D01*
X220000Y184587D02*
Y191664D01*
X240000Y184587D02*
Y191881D01*
X240000Y178500D02*
Y184587D01*
X240000Y184587D01*
X270000Y184429D02*
X270079Y184508D01*
X270000Y178500D02*
Y184429D01*
X310000Y184488D02*
X310000Y184488D01*
X310000Y178500D02*
Y184488D01*
X350000Y184587D02*
Y185039D01*
Y178500D02*
Y184587D01*
Y185039D02*
X350000Y185039D01*
X390000Y178500D02*
Y184587D01*
X390000Y184587D01*
X590000Y184409D02*
X590000Y184409D01*
X590000Y178500D02*
Y184409D01*
X600000Y184587D02*
Y191080D01*
X600000Y178500D02*
Y184587D01*
X580000Y184587D02*
Y190890D01*
X580000Y178500D02*
Y184587D01*
X560000Y184587D02*
Y191460D01*
X560000Y178500D02*
Y184587D01*
X550000Y184252D02*
X550000Y184252D01*
X550000Y178500D02*
Y184252D01*
X520000Y184587D02*
Y190890D01*
X520000Y178500D02*
Y184587D01*
X510000Y184409D02*
X510000Y184409D01*
X510000Y178500D02*
Y184409D01*
X500000Y184587D02*
Y191080D01*
X500000Y178500D02*
Y184587D01*
X480000Y184587D02*
Y192058D01*
X480000Y178500D02*
Y184587D01*
X470000Y184587D02*
X470000Y184587D01*
X470000Y178500D02*
Y184587D01*
X460000Y184587D02*
Y191093D01*
X460000Y178500D02*
Y184587D01*
X430000Y184587D02*
X430000Y184587D01*
X430000Y178500D02*
Y184587D01*
X440000Y184587D02*
Y191094D01*
X440000Y178500D02*
Y184587D01*
X420000Y184587D02*
Y191270D01*
X420000Y178500D02*
Y184587D01*
X400000Y184587D02*
Y190687D01*
X400000Y178500D02*
Y184587D01*
X380000Y184587D02*
Y192234D01*
X380000Y178500D02*
Y184587D01*
X360000Y184587D02*
Y190510D01*
X360000Y178500D02*
Y184587D01*
X340000Y184587D02*
Y190903D01*
X340000Y178500D02*
Y184587D01*
X320000Y184587D02*
Y191677D01*
X320000Y178500D02*
Y184587D01*
X300000Y184587D02*
Y191473D01*
X300000Y178500D02*
Y184587D01*
X280000Y184587D02*
Y191107D01*
X280000Y184587D02*
X280000Y184587D01*
X280000Y178500D02*
Y184587D01*
X260000Y184587D02*
Y191093D01*
X260000Y184587D02*
X260000Y184587D01*
X260000Y178500D02*
Y184587D01*
X229980Y184587D02*
X230000Y184567D01*
Y178500D02*
Y184567D01*
X650000Y172000D02*
Y178500D01*
X653000Y169000D02*
X676323D01*
X650000Y172000D02*
X653000Y169000D01*
X678629Y99353D02*
Y166694D01*
X676323Y169000D02*
X678629Y166694D01*
X649889Y178316D02*
Y184475D01*
X329921Y168547D02*
X370079D01*
X570079D02*
X636614D01*
X570000Y168626D02*
X570079Y168547D01*
X370079D02*
X410236D01*
X449606D02*
X490551D01*
X250000D02*
X290157D01*
X370000Y168626D02*
X370079Y168547D01*
X410236D02*
X449606D01*
X490000Y169098D02*
X490551Y168547D01*
X290000Y168704D02*
X290157Y168547D01*
X410000Y168783D02*
X410236Y168547D01*
X636614D02*
X640000Y171933D01*
X250000Y168547D02*
X250000Y168547D01*
X329921Y168547D02*
X330000Y168626D01*
X530000Y168862D02*
X530315Y168547D01*
X290157D02*
X329921D01*
X449606D02*
X450000Y168941D01*
X490551Y168547D02*
X530315D01*
X549889Y87583D02*
Y96653D01*
X589889Y87583D02*
Y96889D01*
X389889Y87583D02*
Y96811D01*
X650000Y80413D02*
Y85417D01*
X309889Y87583D02*
Y96811D01*
X650039Y87583D02*
Y97047D01*
X389652D02*
X429810D01*
X310125D02*
X349889D01*
X269574D02*
X269889Y96732D01*
X509889Y96811D02*
X510125Y97047D01*
X429810D02*
X469967D01*
X309889Y80525D02*
Y86389D01*
X269574Y97047D02*
X310125D01*
X430000Y80413D02*
Y86500D01*
X429810Y97047D02*
X429889Y96968D01*
X550000Y80413D02*
Y86500D01*
X429889Y87583D02*
Y96968D01*
X389652Y97047D02*
X389889Y96811D01*
X590000Y80413D02*
Y86500D01*
X510000Y80413D02*
Y86500D01*
X270000Y80413D02*
Y86500D01*
X650000Y80413D02*
X650000Y80413D01*
X349889Y97047D02*
X349889Y97047D01*
X349889Y97047D02*
X389652D01*
X510125D02*
X550282D01*
X589889Y96889D02*
X590046Y97047D01*
X269889Y87583D02*
Y96732D01*
X549889Y96653D02*
X550282Y97047D01*
X650039D02*
X676323D01*
X350000Y80413D02*
Y86500D01*
X390000Y80413D02*
Y86500D01*
X550282Y97047D02*
X590046D01*
X509889Y87583D02*
Y96811D01*
X676323Y97047D02*
X678629Y99353D01*
X309889Y96811D02*
X310125Y97047D01*
X349889Y87583D02*
Y97047D01*
X241614Y69807D02*
Y69970D01*
X659842Y184429D02*
X660000Y184587D01*
X229980D02*
X230000D01*
X270000D02*
X270079Y184508D01*
X310000Y184488D02*
Y184587D01*
X350000D02*
Y185039D01*
X510000Y184409D02*
Y184587D01*
X550000Y184252D02*
Y184587D01*
X590000Y184409D02*
Y184587D01*
X629980D02*
X630000D01*
X258472Y53690D02*
Y70000D01*
X260000Y73311D02*
Y80413D01*
X450000Y80315D02*
Y80413D01*
X370000Y80394D02*
Y80413D01*
X338384Y53902D02*
Y70002D01*
X330000Y80394D02*
Y80413D01*
X281496Y53612D02*
Y70079D01*
X218393Y195007D02*
Y195007D01*
X241614Y195941D02*
Y211104D01*
Y195778D02*
Y195941D01*
X258275Y195269D02*
Y210835D01*
Y195269D02*
Y195269D01*
X281614Y195376D02*
Y211104D01*
Y195004D02*
Y195376D01*
X321614Y195629D02*
Y211104D01*
Y195574D02*
Y195629D01*
X298425Y195276D02*
Y211198D01*
Y195095D02*
Y195276D01*
X338196Y195269D02*
X338330Y195134D01*
X338190Y195274D02*
X338196Y195269D01*
X338330Y195134D02*
Y210969D01*
X361749Y194944D02*
X361811Y194882D01*
X361749Y194944D02*
Y210779D01*
X378520Y195056D02*
X378740Y195276D01*
X378520Y195056D02*
Y211428D01*
X401614Y194583D02*
Y211104D01*
X418386Y195000D02*
X418504Y194882D01*
X418386Y195000D02*
Y211103D01*
X441732Y195276D02*
Y210818D01*
X458275Y195269D02*
Y210835D01*
Y195269D02*
Y195269D01*
X481496Y195669D02*
Y211388D01*
Y195285D02*
Y195669D01*
X498386Y194977D02*
Y211103D01*
X521654Y194882D02*
Y194905D01*
Y211008D01*
X538449Y194937D02*
Y211254D01*
X561417Y194882D02*
Y211579D01*
X578346Y194882D02*
Y194905D01*
Y211008D01*
X601575Y194882D02*
Y211198D01*
Y70079D02*
X601614Y70039D01*
Y53897D02*
Y70039D01*
X578346Y53992D02*
Y70079D01*
X561698Y69798D02*
X561811Y69685D01*
X561698Y54098D02*
Y69798D01*
X521654Y53992D02*
Y70079D01*
X498587Y69917D02*
X498819Y69685D01*
X498587Y53411D02*
Y69917D01*
X481496Y69685D02*
X481890Y69291D01*
Y54562D02*
Y69291D01*
X458386Y69807D02*
Y69970D01*
Y53897D02*
Y69807D01*
X441654Y70000D02*
X441732Y70079D01*
X441654Y53992D02*
Y70000D01*
X418110Y54563D02*
Y70079D01*
X401575D02*
X401614Y70039D01*
Y53897D02*
Y70039D01*
X378346Y53992D02*
Y70079D01*
X361607Y53880D02*
Y70000D01*
X321654Y70039D02*
Y70079D01*
Y53992D02*
Y70039D01*
X298425Y53802D02*
Y70472D01*
X241614Y53897D02*
Y69807D01*
X218110Y54563D02*
Y69685D01*
X580000Y74071D02*
Y80413D01*
X540000Y73107D02*
Y80413D01*
X500000Y72537D02*
Y80413D01*
X460000Y73867D02*
Y80413D01*
X420000Y74641D02*
Y80413D01*
X380000Y74071D02*
Y80413D01*
X340000Y74845D02*
Y80413D01*
X300000Y74275D02*
Y80413D01*
X660000Y50000D02*
Y80413D01*
Y184587D02*
Y215000D01*
D41*
X40685Y94847D02*
X39957Y95506D01*
X39169Y96090D01*
X38328Y96595D01*
X37440Y97014D01*
X36516Y97345D01*
X35565Y97584D01*
X34594Y97727D01*
X33614Y97776D01*
X33889Y147776D02*
X34870Y147824D01*
X35840Y147968D01*
X36792Y148206D01*
X37716Y148537D01*
X38603Y148956D01*
X39445Y149461D01*
X40233Y150046D01*
X40961Y150705D01*
X40343Y192027D02*
X39363Y191979D01*
X38392Y191835D01*
X37440Y191597D01*
X36516Y191266D01*
X35629Y190847D01*
X34787Y190342D01*
X33999Y189758D01*
X33272Y189099D01*
X40363Y172047D02*
X39382Y171999D01*
X38412Y171855D01*
X37460Y171617D01*
X36536Y171286D01*
X35649Y170867D01*
X34807Y170362D01*
X34019Y169777D01*
X33292Y169118D01*
X17496Y93323D02*
X16837Y92595D01*
X16252Y91807D01*
X15748Y90965D01*
X15328Y90078D01*
X14998Y89154D01*
X14759Y88203D01*
X14615Y87232D01*
X14567Y86252D01*
Y58079D02*
X14615Y57099D01*
X14759Y56128D01*
X14998Y55176D01*
X15328Y54252D01*
X15748Y53365D01*
X16252Y52523D01*
X16837Y51735D01*
X17496Y51008D01*
X17544Y50960D02*
X18271Y50301D01*
X19059Y49717D01*
X19901Y49212D01*
X20788Y48793D01*
X21712Y48462D01*
X22664Y48224D01*
X23634Y48080D01*
X24615Y48031D01*
X32472D02*
X33452Y48080D01*
X34423Y48224D01*
X35375Y48462D01*
X36299Y48793D01*
X37186Y49212D01*
X38028Y49717D01*
X38816Y50301D01*
X39543Y50960D01*
X67120Y68110D02*
X66067Y68041D01*
X65033Y67835D01*
X64034Y67496D01*
X63088Y67030D01*
X62210Y66444D01*
X61417Y65748D01*
X72441Y66535D02*
X71626Y67204D01*
X70697Y67701D01*
X69688Y68007D01*
X68639Y68110D01*
X55675Y71491D02*
X54331Y72047D01*
X63236D02*
X64244Y72113D01*
X65236Y72311D01*
X66193Y72636D01*
X67100Y73083D01*
X67941Y73644D01*
X68701Y74311D01*
X73690Y58661D02*
X74718Y58866D01*
X75590Y59449D01*
X76028Y60103D01*
X76181Y60874D01*
X71185Y71827D02*
X71912Y71167D01*
X72701Y70583D01*
X73542Y70078D01*
X74430Y69659D01*
X75353Y69328D01*
X76306Y69090D01*
X77276Y68946D01*
X78256Y68898D01*
X68504Y59842D02*
X68701Y60318D01*
X65653Y58661D02*
X66696Y58799D01*
X67669Y59202D01*
X68504Y59842D01*
X82284Y62705D02*
X82332Y61725D01*
X82476Y60754D01*
X82714Y59802D01*
X83045Y58878D01*
X83464Y57991D01*
X83969Y57149D01*
X84553Y56361D01*
X85212Y55634D01*
X93727Y28274D02*
X93047Y27446D01*
X92542Y26501D01*
X92231Y25476D01*
X92126Y24409D01*
X131481Y202740D02*
X132140Y203468D01*
X132724Y204256D01*
X133229Y205098D01*
X133648Y205985D01*
X133979Y206909D01*
X134217Y207861D01*
X134361Y208831D01*
X134409Y209811D01*
X83259Y68898D02*
X84240Y68946D01*
X85210Y69090D01*
X86162Y69328D01*
X87086Y69659D01*
X87973Y70078D01*
X88815Y70583D01*
X89603Y71167D01*
X90330Y71827D01*
X93701Y87213D02*
X93749Y86233D01*
X93893Y85262D01*
X94131Y84310D01*
X94462Y83386D01*
X94882Y82499D01*
X95386Y81657D01*
X95971Y80869D01*
X96630Y80142D01*
X99993Y87303D02*
X101181Y87795D01*
X72047Y57711D02*
X71653Y58661D01*
X58489Y61590D02*
X59216Y60931D01*
X60004Y60347D01*
X60846Y59842D01*
X61733Y59423D01*
X62657Y59092D01*
X63609Y58854D01*
X64579Y58710D01*
X65560Y58661D01*
X71653D02*
X73690D01*
X42126Y93406D02*
Y101969D01*
X42126Y93405D02*
X42126Y93406D01*
X40685Y94847D02*
X42126Y93405D01*
X31949Y97776D02*
X33614D01*
X31949Y147776D02*
X33889D01*
X40961Y150705D02*
X42126Y151870D01*
X31949Y187776D02*
X33272Y189099D01*
X31949Y167776D02*
X33292Y169118D01*
X17496Y93323D02*
X21949Y97776D01*
X31949Y117776D02*
Y127776D01*
Y97776D02*
Y107776D01*
X21949D02*
X31949D01*
X21949Y97776D02*
X31949D01*
X21949Y127776D02*
X31949D01*
X21949Y117776D02*
X31949D01*
Y107776D02*
Y117776D01*
X14567Y58079D02*
Y86252D01*
X17496Y51008D02*
X17544Y50960D01*
X24615Y48031D02*
X32472D01*
X39543Y50960D02*
X54331Y65748D01*
X40363Y172047D02*
X42126D01*
X40343Y192027D02*
X42126D01*
X72441Y63484D02*
X72441Y63484D01*
Y66535D01*
X67120Y68110D02*
X68639D01*
X55675Y71491D02*
X61417Y65748D01*
Y72047D02*
X63236D01*
X76181Y60874D02*
Y63484D01*
X68701Y60318D02*
Y63484D01*
Y74311D02*
X71185Y71827D01*
X78256Y68898D02*
X82284D01*
X93727Y28274D02*
X103150Y37697D01*
X85212Y55634D02*
X103150Y37697D01*
X82284Y62705D02*
Y68898D01*
X46063Y72047D02*
X54331D01*
Y65748D02*
X58489Y61590D01*
X131102Y202362D02*
X131481Y202740D01*
X134409Y209811D02*
Y210236D01*
X82284Y68898D02*
X83259D01*
X90330Y71827D02*
X97638Y79134D01*
X46850Y24409D02*
Y34089D01*
X42520Y221260D02*
Y230709D01*
X76772Y95275D02*
X76772Y95276D01*
X76772Y88583D02*
Y95275D01*
X103937Y73228D02*
Y79134D01*
X103150Y58760D02*
Y64567D01*
X92520Y197013D02*
Y204232D01*
X48425Y101969D02*
X55512D01*
X93701Y87213D02*
Y87303D01*
X99993D01*
X65653Y58661D02*
X71653D01*
X72047Y24409D02*
Y57711D01*
X96630Y80142D02*
X97638Y79134D01*
X65560Y58661D02*
X65653D01*
D42*
X211823Y123002D02*
X258713D01*
X212237Y124002D02*
X294601D01*
X212651Y125002D02*
X333600D01*
X213065Y126002D02*
X372601D01*
X213479Y127002D02*
X411600D01*
X213894Y128002D02*
X450600D01*
X214308Y129002D02*
X489600D01*
X214722Y130002D02*
X528601D01*
X215136Y131002D02*
X567600D01*
X191922Y132002D02*
X626601D01*
X235827Y120388D02*
X236023Y120192D01*
X192504Y133998D02*
X617600D01*
X204243Y134998D02*
X557223D01*
X204657Y135998D02*
X518223D01*
X205071Y136998D02*
X479222D01*
X205485Y137998D02*
X440223D01*
X205899Y138998D02*
X402600D01*
X206314Y139998D02*
X362223D01*
X206728Y140998D02*
X323222D01*
X207142Y141998D02*
X284223D01*
X245222Y142998D02*
X247814Y145589D01*
X207556Y142998D02*
X245222D01*
X227457Y145232D02*
X227814Y145589D01*
X225138Y145232D02*
X227457D01*
X206155Y122002D02*
X211408D01*
X211408Y122002D01*
X211408D01*
X216186Y117224D01*
X220000D01*
X173524Y89370D02*
X206155Y122002D01*
X173425Y89370D02*
X173524D01*
X212237Y124002D02*
X212237Y124002D01*
X205327Y124002D02*
X212237D01*
X212651Y125002D02*
X212651Y125002D01*
X204151Y125002D02*
X212651D01*
X213065Y126002D02*
X213065Y126002D01*
X203736Y126002D02*
X213065D01*
X213479Y127002D02*
X213479Y127002D01*
X202389Y127002D02*
X213479D01*
X213894Y128002D02*
X213894Y128002D01*
X201974Y128002D02*
X213894D01*
X214308Y129002D02*
X214308Y129002D01*
X199866Y129002D02*
X214308D01*
X214722Y130002D02*
X214722Y130002D01*
X199451Y130002D02*
X214722D01*
X215136Y131002D02*
X215136Y131002D01*
X192336Y131002D02*
X215136D01*
X202626Y136614D02*
X204243Y134998D01*
X200104Y140551D02*
X204657Y135998D01*
X195058Y148425D02*
X205485Y137998D01*
X192535Y152362D02*
X205899Y138998D01*
X190012Y156299D02*
X206314Y139998D01*
X187490Y160236D02*
X206728Y140998D01*
X184967Y164173D02*
X207142Y141998D01*
X182050Y168504D02*
X207556Y142998D01*
X197581Y144488D02*
X205071Y136998D01*
X211823Y123002D02*
X211823Y123002D01*
X205741Y123002D02*
X211823D01*
X173425Y136614D02*
X202626D01*
X228049Y145589D02*
X230000Y147541D01*
X227814Y145589D02*
X228049D01*
X178569Y97244D02*
X205327Y124002D01*
X176046Y93307D02*
X205741Y123002D01*
X186138Y124803D02*
X192336Y131002D01*
X190316Y120866D02*
X199451Y130002D01*
X187793Y116929D02*
X199866Y129002D01*
X479222Y136998D02*
X487814Y145589D01*
X490000Y147541D02*
Y147776D01*
X487814Y145589D02*
X488049D01*
X490000Y147541D01*
X160827Y124803D02*
X186138D01*
X173425Y120866D02*
X190316D01*
X160827Y116929D02*
X187793D01*
X474803Y122047D02*
X476555D01*
X626601Y132002D02*
X640000Y118602D01*
Y117224D02*
Y118602D01*
X188661Y128740D02*
X191922Y132002D01*
X173425Y128740D02*
X188661D01*
X528601Y130002D02*
X540000Y118602D01*
X557223Y134998D02*
X567814Y145589D01*
X540000Y117224D02*
Y118602D01*
X570000Y147541D02*
Y147776D01*
X568049Y145589D02*
X570000Y147541D01*
X567814Y145589D02*
X568049D01*
X617600Y133998D02*
X630000Y146398D01*
X567600Y131002D02*
X580000Y118602D01*
X630000Y146398D02*
Y147776D01*
X580000Y117224D02*
Y118602D01*
X518223Y135998D02*
X527814Y145589D01*
X528049D01*
X530000Y147541D01*
Y147776D01*
X160827Y140551D02*
X200104D01*
X396616Y121986D02*
X400000Y118602D01*
X394882Y122047D02*
X394943Y121986D01*
X396616D01*
X400000Y117224D02*
Y118602D01*
X440223Y137998D02*
X447814Y145589D01*
X316949Y121653D02*
X320000Y118602D01*
X323222Y140998D02*
X327814Y145589D01*
X314961Y121653D02*
X316949D01*
X320000Y117224D02*
Y118602D01*
X362223Y139998D02*
X367814Y145589D01*
X402600Y138998D02*
X410000Y146398D01*
X204193Y147776D02*
X210000D01*
X191183Y132677D02*
X192504Y133998D01*
X284223Y141998D02*
X287814Y145589D01*
X237268Y120192D02*
X240000Y117459D01*
Y117224D02*
Y117459D01*
X236023Y120192D02*
X237268D01*
X300000Y117224D02*
Y118602D01*
X294601Y124002D02*
X300000Y118602D01*
X340000Y117224D02*
Y118602D01*
X333600Y125002D02*
X340000Y118602D01*
X180330Y101181D02*
X204151Y125002D01*
X160827Y101181D02*
X180330D01*
X380000Y117224D02*
Y118602D01*
X372601Y126002D02*
X380000Y118602D01*
X184374Y106640D02*
X203736Y126002D01*
X174947Y106640D02*
X184374D01*
X184442Y109055D02*
X202389Y127002D01*
X160827Y109055D02*
X184442D01*
X186964Y112992D02*
X201974Y128002D01*
X173425Y112992D02*
X186964D01*
X160827Y124803D02*
X160827Y124803D01*
X500000Y117224D02*
Y118602D01*
X489600Y129002D02*
X500000Y118602D01*
X160827Y116929D02*
X160827Y116929D01*
X460000Y117224D02*
Y118602D01*
X450600Y128002D02*
X460000Y118602D01*
X420000Y117224D02*
Y118602D01*
X411600Y127002D02*
X420000Y118602D01*
X160827Y109055D02*
X160827Y109055D01*
X173425Y105118D02*
X174947Y106640D01*
X173425Y97244D02*
X178569D01*
X260000Y117224D02*
X260000Y117225D01*
Y121715D01*
X160827Y93307D02*
X176046D01*
X160827Y93307D02*
X160827Y93307D01*
X173425Y112992D02*
X173425Y112992D01*
X173425Y120866D02*
X173425Y120866D01*
X655909Y121653D02*
X660000Y117563D01*
X655512Y121653D02*
X655909D01*
X660000Y117224D02*
Y117563D01*
X600000Y117224D02*
Y118602D01*
X596555Y122047D02*
X600000Y118602D01*
X594488Y122047D02*
X596555D01*
X560000Y117224D02*
Y117563D01*
X555909Y121653D02*
X560000Y117563D01*
X555512Y121653D02*
X555909D01*
X516695Y121908D02*
X520000Y118602D01*
X514961Y122047D02*
X515100Y121908D01*
X520000Y117224D02*
Y118602D01*
X515100Y121908D02*
X516695D01*
X480000Y117224D02*
Y118602D01*
X476555Y122047D02*
X480000Y118602D01*
X437343Y121260D02*
X440000Y118602D01*
Y117224D02*
Y118602D01*
X435039Y121260D02*
X437343D01*
X358049Y119411D02*
X360000Y117459D01*
X356639Y120585D02*
X357814Y119411D01*
X360000Y117224D02*
Y117459D01*
X357814Y119411D02*
X358049D01*
X355399Y120585D02*
X356639D01*
X355118Y120866D02*
X355399Y120585D01*
X275197Y121260D02*
X277343D01*
X280000Y117224D02*
Y118602D01*
X277343Y121260D02*
X280000Y118602D01*
X258713Y123002D02*
X260000Y121715D01*
X650000Y146398D02*
Y147776D01*
X646063Y142461D02*
X650000Y146398D01*
X646063Y140551D02*
Y142461D01*
X590000Y142362D02*
Y147776D01*
X587008Y139370D02*
X590000Y142362D01*
X546850Y139764D02*
X550000Y142913D01*
Y147776D01*
X386614Y142523D02*
X390000Y145909D01*
Y147776D01*
X346063Y142520D02*
X346093D01*
X350000Y146427D01*
X386614Y142126D02*
Y142523D01*
X350000Y146427D02*
Y147776D01*
X507087Y140157D02*
X510000Y143071D01*
Y147776D01*
X469270Y143285D02*
Y147045D01*
X470000Y147776D01*
X466929Y140945D02*
X469270Y143285D01*
X430000Y146398D02*
Y147776D01*
X426772Y143169D02*
X430000Y146398D01*
X426772Y141339D02*
Y143169D01*
X310000Y146398D02*
Y147776D01*
X306852Y143250D02*
X310000Y146398D01*
X305136Y143250D02*
X306852D01*
X305118Y143232D02*
X305136Y143250D01*
X268049Y145589D02*
X270000Y147541D01*
X267814Y145589D02*
X268049D01*
X266695Y144470D02*
X267814Y145589D01*
X264961Y144232D02*
X265199Y144470D01*
X270000Y147541D02*
Y147776D01*
X265199Y144470D02*
X266695D01*
X230000Y147541D02*
Y147776D01*
X160827Y172047D02*
X179921D01*
X173425Y152362D02*
X192535D01*
X179921Y172047D02*
X204193Y147776D01*
X160827Y164173D02*
X184967D01*
X160827Y156299D02*
X190012D01*
X173524Y168504D02*
X182050D01*
X173425Y144488D02*
X197581D01*
X173425Y160236D02*
X187490D01*
X160827Y148425D02*
X195058D01*
X160827Y132677D02*
X191183D01*
X248049Y145589D02*
X250000Y147541D01*
X247814Y145589D02*
X248049D01*
X250000Y147541D02*
Y147776D01*
X447814Y145589D02*
X448049D01*
X450000Y147541D02*
Y147776D01*
X448049Y145589D02*
X450000Y147541D01*
X410000Y146398D02*
Y147776D01*
X370000Y147541D02*
Y147776D01*
X368049Y145589D02*
X370000Y147541D01*
X367814Y145589D02*
X368049D01*
X328049D02*
X330000Y147541D01*
X327814Y145589D02*
X328049D01*
X330000Y147541D02*
Y147776D01*
X288049Y145589D02*
X290000Y147541D01*
X287814Y145589D02*
X288049D01*
D43*
X83858Y230709D02*
D03*
X46850Y24409D02*
D03*
X42520Y230709D02*
D03*
X92126Y24409D02*
D03*
X72047D02*
D03*
X57480Y230709D02*
D03*
X70473D02*
D03*
X118898Y24409D02*
D03*
D44*
X11713Y227776D02*
D03*
Y37776D02*
D03*
D45*
X21949Y57776D02*
D03*
X31949D02*
D03*
X21949Y67776D02*
D03*
X31949D02*
D03*
X21949Y77776D02*
D03*
X31949D02*
D03*
X21949Y87776D02*
D03*
X31949D02*
D03*
X21949Y97776D02*
D03*
X31949D02*
D03*
X21949Y107776D02*
D03*
X31949D02*
D03*
X21949Y117776D02*
D03*
X31949D02*
D03*
X21949Y127776D02*
D03*
X31949D02*
D03*
X21949Y137776D02*
D03*
X31949D02*
D03*
X21949Y147776D02*
D03*
X31949D02*
D03*
X21949Y157776D02*
D03*
X31949D02*
D03*
X21949Y167776D02*
D03*
X31949D02*
D03*
X21949Y177776D02*
D03*
X31949D02*
D03*
X21949Y187776D02*
D03*
X31949D02*
D03*
X21949Y197776D02*
D03*
X31949D02*
D03*
X21949Y207776D02*
D03*
D46*
X31949D02*
D03*
D47*
X380000Y50000D02*
D03*
X340000D02*
D03*
X300000D02*
D03*
X260000D02*
D03*
X220000D02*
D03*
X580000D02*
D03*
X540000D02*
D03*
X500000D02*
D03*
X460000D02*
D03*
X420000D02*
D03*
X640000D02*
D03*
X400000Y215000D02*
D03*
X360000D02*
D03*
X320000D02*
D03*
X280000D02*
D03*
X240000D02*
D03*
X600000D02*
D03*
X560000D02*
D03*
X520000D02*
D03*
X480000D02*
D03*
X440000D02*
D03*
X660000D02*
D03*
D48*
X400000Y50000D02*
D03*
X360000D02*
D03*
X320000D02*
D03*
X280000D02*
D03*
X240000D02*
D03*
X600000D02*
D03*
X560000D02*
D03*
X520000D02*
D03*
X480000D02*
D03*
X440000D02*
D03*
X660000D02*
D03*
X380000Y215000D02*
D03*
X340000D02*
D03*
X300000D02*
D03*
X260000D02*
D03*
X220000D02*
D03*
X580000D02*
D03*
X540000D02*
D03*
X500000D02*
D03*
X460000D02*
D03*
X420000D02*
D03*
X640000D02*
D03*
D49*
X144409Y210236D02*
D03*
X134409D02*
D03*
X114409D02*
D03*
X124409D02*
D03*
D50*
X104409D02*
D03*
D51*
X250000Y117224D02*
D03*
X240000Y147776D02*
D03*
X550000Y117224D02*
D03*
X210000Y117224D02*
D03*
X470000Y117224D02*
D03*
X520000Y147776D02*
D03*
X540000D02*
D03*
X126870Y147539D02*
D03*
X220000Y147776D02*
D03*
X260000D02*
D03*
X280000D02*
D03*
X300000D02*
D03*
X320000D02*
D03*
X340000D02*
D03*
X360000D02*
D03*
X380000D02*
D03*
X400000D02*
D03*
X420000D02*
D03*
X440000D02*
D03*
X460000D02*
D03*
X480000D02*
D03*
X500000D02*
D03*
X560000D02*
D03*
X580000D02*
D03*
X600000D02*
D03*
X640000D02*
D03*
X660000D02*
D03*
X650000Y117224D02*
D03*
X630000D02*
D03*
X590000D02*
D03*
X570000D02*
D03*
X530000D02*
D03*
X510000D02*
D03*
X490000D02*
D03*
X450000D02*
D03*
X430000D02*
D03*
X410000D02*
D03*
X390000D02*
D03*
X370000D02*
D03*
X350000D02*
D03*
X330000D02*
D03*
X310000D02*
D03*
X290000D02*
D03*
X270000D02*
D03*
X230000D02*
D03*
X249999Y80315D02*
D03*
X659842Y184429D02*
D03*
X229980Y184587D02*
D03*
X270079Y184508D02*
D03*
X310000Y184488D02*
D03*
X350000Y185039D02*
D03*
X390000Y184587D02*
D03*
X430000D02*
D03*
X470000D02*
D03*
X510000Y184409D02*
D03*
X550000Y184252D02*
D03*
X590000Y184409D02*
D03*
X629980Y184587D02*
D03*
X210000Y80413D02*
D03*
X258472Y70000D02*
D03*
X630077Y80413D02*
D03*
X569762Y80315D02*
D03*
X529921Y80604D02*
D03*
X489765Y80316D02*
D03*
X450000Y80315D02*
D03*
X410000Y80413D02*
D03*
X370000Y80394D02*
D03*
X338384Y70002D02*
D03*
X330000Y80394D02*
D03*
X290000Y80413D02*
D03*
X281496Y70079D02*
D03*
X601575Y194882D02*
D03*
X578346Y194905D02*
D03*
X561417Y194882D02*
D03*
X538449Y194937D02*
D03*
X521654Y194905D02*
D03*
X498386Y194977D02*
D03*
X481496Y195285D02*
D03*
X458275Y195269D02*
D03*
X441732Y195276D02*
D03*
X418386Y195000D02*
D03*
X401614Y194583D02*
D03*
X378520Y195056D02*
D03*
X361749Y194944D02*
D03*
X338330Y195134D02*
D03*
X321614Y195574D02*
D03*
X298425Y195095D02*
D03*
X281614Y195004D02*
D03*
X258275Y195269D02*
D03*
X241614Y195778D02*
D03*
X218393Y195007D02*
D03*
X601614Y70039D02*
D03*
X578346Y70079D02*
D03*
X561698Y69798D02*
D03*
X538499Y69887D02*
D03*
X521654Y70079D02*
D03*
X498587Y69917D02*
D03*
X481890Y69291D02*
D03*
X458386Y69970D02*
D03*
X441654Y70000D02*
D03*
X418110Y70079D02*
D03*
X401614Y70039D02*
D03*
X378346Y70079D02*
D03*
X361607Y70000D02*
D03*
X321654Y70039D02*
D03*
X298425Y70472D02*
D03*
X241614Y69970D02*
D03*
X218110Y69685D02*
D03*
X46063Y72047D02*
D03*
X67717Y131102D02*
D03*
X131102Y202362D02*
D03*
X109843Y174016D02*
D03*
X75590Y119291D02*
D03*
X84252Y78158D02*
D03*
X46850Y34089D02*
D03*
X42520Y221260D02*
D03*
X76772Y95276D02*
D03*
X103937Y73228D02*
D03*
X103150Y64567D02*
D03*
X92520Y197013D02*
D03*
X55512Y101969D02*
D03*
X101181Y87795D02*
D03*
Y133071D02*
D03*
X142520Y124031D02*
D03*
X148425Y152362D02*
D03*
X118504Y139764D02*
D03*
X142126Y148819D02*
D03*
X141732Y156299D02*
D03*
X148425Y168110D02*
D03*
Y160236D02*
D03*
X141732Y164567D02*
D03*
Y172047D02*
D03*
X142126Y116929D02*
D03*
X142126Y108661D02*
D03*
X147638Y112992D02*
D03*
X148031Y105118D02*
D03*
X141339Y101181D02*
D03*
X148031Y97244D02*
D03*
X144882Y90158D02*
D03*
X159843Y86614D02*
D03*
X148425Y144488D02*
D03*
X142913Y140551D02*
D03*
X148425Y136614D02*
D03*
X142913Y132677D02*
D03*
X148425Y128740D02*
D03*
X148622Y120669D02*
D03*
D52*
X235827Y120388D02*
D03*
X225138Y145232D02*
D03*
X474803Y122047D02*
D03*
X59055Y153543D02*
D03*
X81890Y143307D02*
D03*
X394882Y122047D02*
D03*
X314961Y121653D02*
D03*
X59055Y117905D02*
D03*
X80315Y138098D02*
D03*
X655512Y121653D02*
D03*
X594488Y122047D02*
D03*
X555512Y121653D02*
D03*
X514961Y122047D02*
D03*
X435039Y121260D02*
D03*
X355118Y120866D02*
D03*
X275197Y121260D02*
D03*
X646063Y140551D02*
D03*
X587008Y139370D02*
D03*
X546850Y139764D02*
D03*
X346063Y142520D02*
D03*
X386614Y142126D02*
D03*
X507087Y140157D02*
D03*
X466929Y140945D02*
D03*
X426772Y141339D02*
D03*
X305118Y143232D02*
D03*
X264961Y144232D02*
D03*
M02*
