M48
;Layer_Color=9474304
;FILE_FORMAT=2:4
INCH,TZ
;TYPE=PLATED
T1F00S00C0.0118
T2F00S00C0.0197
T3F00S00C0.0315
T4F00S00C0.0394
T5F00S00C0.0433
T6F00S00C0.0512
T7F00S00C0.1102
%
T01
X55551Y12165
X54685Y13976
X58701Y13937
X59449Y12205
X65551Y12165
X64606Y14055
X50709Y14016
X51496Y12205
X47480
X46693Y14094
X42677Y14134
X43504Y12126
X39488Y12205
X38661Y14213
X34606Y14252
X35512Y12087
X31496Y12165
X30512Y14323
X26496Y14423
X27520Y12126
X23583Y12039
X22514Y14523
X8189Y14331
X8031Y13810
X5906Y15354
Y11791
T02
X4685Y3409
X53850Y6989
X52992Y8060
X53000Y11722
X55000
X57000
X59000
X63000
X65000
X64000Y14778
X66000
X65984Y18443
X62998Y18459
X60157Y19488
X59000Y18441
X57835Y19490
X56142Y19488
X55000Y18425
X53845Y19494
X54000Y14778
X56000
X58000
X60000
X60161Y7004
X57835Y7008
X56170Y6980
X56976Y8031
X63008Y8041
X52165Y7008
X49859Y6992
X48189Y6929
X48976Y8032
X49000Y11722
X47000
X45000
X43000
X41000
X39000
X37000
X37000Y8039
X37835Y7008
X40161Y7004
X41811Y7008
X41000Y8041
X45000Y8032
X44165Y7000
X45839Y6997
X46000Y14778
X44000
X42000
X40000
X38000
X39000Y18459
X40161Y19458
X41839Y19500
X43000Y18459
X44173Y19528
X45827Y19527
X47000Y18459
X48150Y19529
X49839Y19498
X51000Y18441
X52165Y19490
X52000Y14778
X50000
X48000
X51000Y11722
X37852Y19506
X36175Y19494
X35000Y18504
X33833Y19513
X32161Y19557
X31000Y18449
X29843Y19510
X28161Y19500
X27008Y18451
X25827Y19527
X24161Y19578
X22998Y18459
X21839Y19501
X22000Y14778
X24000
X26000
X28000
X30000
X32000
X34000
X36000
X35000Y11722
X33000
X31000
X29000
X27000
X25000
X23000
X25000Y8031
X24161Y6997
X25847Y7000
X28150Y7008
X29843Y7047
X29000Y8041
X33000Y8039
X32165Y7004
X33838Y7000
X36161Y7000
X21811Y6969
X21000Y8041
Y11722
X14862Y12067
X14843Y12874
Y13661
Y14449
Y15236
Y16024
Y16811
X14173Y16457
Y17205
Y15630
X14213Y14882
X14291Y14055
X14291Y13268
X14252Y12403
X14213Y11693
X14213Y10866
X14134Y10118
X14803Y10512
Y9724
X14488Y9016
X15984Y8661
X14764Y11299
X12687Y14754
X11850Y13976
X10118Y13307
X6772Y13110
X7559Y11929
X7677Y9528
X8425Y7816
X10394Y7323
X10315Y6457
X10118Y8780
X10984Y17402
X9252Y19701
X13110Y20236
X5551Y10197
X4606Y7205
X4252Y22126
T03
X2195Y5778
X3195
Y6778
X2195
Y7778
X3195
Y8778
X2195
Y9778
X3195
Y10778
X2195
Y11778
X3195
Y12778
X2195
Y13778
X3195
Y14778
X2195
Y15778
X3195
Y16778
X2195
Y17778
X3195
Y18778
X2195
Y19778
X3195
Y20778
X2195
T04
X4685Y2441
X7205
X9213
X11890
X4252Y23071
X5748
X7047
X8386Y23071
T05
X10441Y21024
X11441
X12441
X13441
X14441
T06
X22000Y5000
X24000
X26000
X28000
X30000
X32000
X34000
X36000
X38000
X40000
X42000
X44000
X46000
X48000
X50000
X52000
X54000
X56000
X58000
X60000
X64000
X66000
X36000Y21500
X34000
X32000
X30000
X28000
X26000
X24000
X22000
X38000
X40000
X42000
X44000
X46000
X48000
X50000
X52000
X54000
X56000
X58000
X60000
X64000
X66000
T07
X1171Y3778
Y22778
M30
